<svg width="1171" height="192" viewBox="0 0 1171 192" fill="none" xmlns="http://www.w3.org/2000/svg">
<path d="M0.5 6C0.5 2.96243 2.96243 0.5 6 0.5H390.5V191.5H6C2.96244 191.5 0.5 189.038 0.5 186V6Z" stroke="#F3D1BF"/>
<rect x="390.5" y="0.5" width="390" height="191" fill="#FDF0E9" stroke="#F3D1BF"/>
<path d="M780.5 0.5H1165C1168.04 0.5 1170.5 2.96243 1170.5 6V186C1170.5 189.038 1168.04 191.5 1165 191.5H780.5V0.5Z" stroke="#F3D1BF"/>
<circle cx="80" cy="64" r="32" fill="#EF6D58"/>
<path fill-rule="evenodd" clip-rule="evenodd" d="M70.8281 52.7653C71.359 52.2352 72.0919 51.9583 72.8407 52.0051C73.5895 52.0519 74.2822 52.4177 74.743 53.0098L77.4354 56.469C77.9289 57.1035 78.1029 57.93 77.9079 58.7101L77.0874 61.9952C77.0011 62.3413 77.1024 62.7073 77.3544 62.9598L81.0398 66.6454C81.2925 66.8979 81.6592 66.9993 82.0058 66.9124L85.2892 66.0919C86.0691 65.8969 86.8953 66.0711 87.5301 66.5644L90.989 69.2555C92.2324 70.2231 92.3464 72.0607 91.2335 73.1722L89.6825 74.7233C88.5726 75.8333 86.9136 76.3209 85.3672 75.7763C81.4091 74.3836 77.8153 72.1174 74.8525 69.146C71.8815 66.1834 69.6156 62.5899 68.2227 58.6321C67.6797 57.087 68.1672 55.4264 69.2772 54.3164L70.8281 52.7653Z" fill="white"/>
<path d="M138.496 72H137.128V60.2H140.44C141.352 60.2 142.109 60.3707 142.712 60.712C143.315 61.048 143.765 61.5013 144.064 62.072C144.363 62.6427 144.512 63.2773 144.512 63.976C144.512 64.6747 144.357 65.32 144.048 65.912C143.744 66.504 143.288 66.9813 142.68 67.344C142.077 67.7013 141.331 67.88 140.44 67.88H138.496V72ZM138.496 67.376L137.88 66.68H140.272C140.912 66.68 141.443 66.568 141.864 66.344C142.291 66.1147 142.608 65.7973 142.816 65.392C143.029 64.9867 143.136 64.5147 143.136 63.976C143.136 63.432 143.035 62.968 142.832 62.584C142.629 62.2 142.317 61.9067 141.896 61.704C141.475 61.5013 140.933 61.4 140.272 61.4H137.88L138.496 60.624V67.376ZM157.339 60.2V72H155.971V66.032L156.587 66.712H150.083L150.699 66.032V72H149.331V60.2H150.699V66.232L150.083 65.512H156.587L155.971 66.232V60.2H157.339ZM166.997 72.16C166.309 72.16 165.677 72.024 165.101 71.752C164.53 71.48 164.031 71.0853 163.605 70.568C163.183 70.0453 162.855 69.408 162.621 68.656C162.391 67.904 162.277 67.048 162.277 66.088C162.277 65.128 162.391 64.2747 162.621 63.528C162.855 62.776 163.183 62.144 163.605 61.632C164.031 61.1147 164.533 60.7227 165.109 60.456C165.685 60.1893 166.314 60.056 166.997 60.056C167.685 60.056 168.317 60.1893 168.893 60.456C169.469 60.7227 169.967 61.1147 170.389 61.632C170.815 62.144 171.143 62.776 171.373 63.528C171.607 64.2747 171.725 65.128 171.725 66.088C171.725 67.048 171.607 67.904 171.373 68.656C171.143 69.408 170.815 70.0453 170.389 70.568C169.967 71.0853 169.469 71.48 168.893 71.752C168.317 72.024 167.685 72.16 166.997 72.16ZM166.997 70.928C167.653 70.928 168.231 70.7493 168.733 70.392C169.234 70.0347 169.626 69.4987 169.909 68.784C170.191 68.064 170.333 67.1653 170.333 66.088C170.333 65.0053 170.189 64.1093 169.901 63.4C169.618 62.6907 169.226 62.1627 168.725 61.816C168.223 61.4693 167.647 61.296 166.997 61.296C166.351 61.296 165.775 61.4693 165.269 61.816C164.767 62.1627 164.373 62.6907 164.085 63.4C163.802 64.1093 163.661 65.0053 163.661 66.088C163.661 67.1707 163.802 68.072 164.085 68.792C164.373 69.5067 164.767 70.0427 165.269 70.4C165.775 70.752 166.351 70.928 166.997 70.928ZM177.987 72H176.659V60.2H178.891L183.899 71.216L183.795 71.28V60.2H185.123V72H182.859L177.867 61L177.987 60.944V72ZM191.13 61.4L191.746 60.624V65.952L191.41 65.48H195.938V66.68H191.41L191.746 66.208V71.576L191.13 70.8H196.826V72H190.378V60.2H196.826V61.4H191.13Z" fill="#EF6D58"/>
<path d="M57.71 139.3H54.51V141.89H53.38V139.3H50.18V138.19H53.38V135.59H54.51V138.19H57.71V139.3ZM65.7036 129.2V144H64.0036V131.05C63.9503 131.123 63.7836 131.22 63.5036 131.34C63.2303 131.46 62.8903 131.577 62.4836 131.69C62.0836 131.797 61.6569 131.873 61.2036 131.92V130.38C61.6503 130.307 62.0703 130.203 62.4636 130.07C62.8636 129.937 63.2036 129.793 63.4836 129.64C63.7636 129.48 63.9503 129.333 64.0436 129.2H65.7036ZM79.2158 148.67C79.0358 148.53 78.7791 148.29 78.4458 147.95C78.1124 147.617 77.7524 147.17 77.3658 146.61C76.9858 146.05 76.6191 145.37 76.2658 144.57C75.9191 143.777 75.6324 142.85 75.4058 141.79C75.1858 140.73 75.0758 139.533 75.0758 138.2C75.0758 136.86 75.1858 135.66 75.4058 134.6C75.6324 133.533 75.9191 132.6 76.2658 131.8C76.6191 130.993 76.9858 130.31 77.3658 129.75C77.7524 129.19 78.1124 128.743 78.4458 128.41C78.7791 128.077 79.0358 127.85 79.2158 127.73L80.1358 128.69C79.9091 128.863 79.5991 129.18 79.2058 129.64C78.8124 130.093 78.4124 130.707 78.0058 131.48C77.6058 132.247 77.2658 133.187 76.9858 134.3C76.7124 135.413 76.5758 136.713 76.5758 138.2C76.5758 139.687 76.7124 140.983 76.9858 142.09C77.2658 143.197 77.6058 144.133 78.0058 144.9C78.4124 145.667 78.8124 146.277 79.2058 146.73C79.5991 147.19 79.9091 147.517 80.1358 147.71L79.2158 148.67ZM82.1506 144V142.53C82.204 142.23 82.3606 141.887 82.6206 141.5C82.8806 141.107 83.2006 140.697 83.5806 140.27C83.9606 139.843 84.3606 139.423 84.7806 139.01C85.2073 138.59 85.6073 138.203 85.9806 137.85C86.4473 137.41 86.904 136.953 87.3506 136.48C87.804 136 88.1806 135.493 88.4806 134.96C88.7806 134.427 88.9306 133.867 88.9306 133.28C88.9306 132.407 88.7273 131.74 88.3206 131.28C87.914 130.82 87.304 130.59 86.4906 130.59C85.8373 130.59 85.314 130.727 84.9206 131C84.5273 131.273 84.244 131.657 84.0706 132.15C83.8973 132.643 83.8106 133.22 83.8106 133.88H82.1006C82.1006 132.927 82.2606 132.09 82.5806 131.37C82.9006 130.643 83.3873 130.08 84.0406 129.68C84.694 129.273 85.5173 129.07 86.5106 129.07C87.424 129.07 88.1873 129.25 88.8006 129.61C89.414 129.963 89.874 130.457 90.1806 131.09C90.494 131.723 90.6506 132.457 90.6506 133.29C90.6506 133.837 90.5473 134.367 90.3406 134.88C90.1406 135.387 89.8773 135.87 89.5506 136.33C89.224 136.783 88.8706 137.207 88.4906 137.6C88.1173 137.987 87.7606 138.337 87.4206 138.65C86.874 139.15 86.3573 139.637 85.8706 140.11C85.3906 140.583 84.9873 141.02 84.6606 141.42C84.3406 141.82 84.1473 142.163 84.0806 142.45H90.7506V144H82.1506ZM99.7178 136.23C100.304 136.25 100.774 136.417 101.128 136.73C101.488 137.043 101.748 137.457 101.908 137.97C102.068 138.477 102.148 139.037 102.148 139.65C102.148 140.51 101.994 141.283 101.688 141.97C101.388 142.657 100.924 143.2 100.298 143.6C99.6778 144 98.8878 144.2 97.9278 144.2C97.1345 144.2 96.4611 144.093 95.9078 143.88C95.3545 143.667 94.9045 143.357 94.5578 142.95C94.2178 142.543 93.9678 142.05 93.8078 141.47C93.6478 140.89 93.5678 140.237 93.5678 139.51C93.5678 139.503 93.5678 139.497 93.5678 139.49C93.5678 139.483 93.5678 139.477 93.5678 139.47H95.2778C95.2778 139.477 95.2778 139.483 95.2778 139.49C95.2778 139.497 95.2778 139.503 95.2778 139.51C95.2778 140.343 95.3845 140.993 95.5978 141.46C95.8111 141.92 96.1145 142.243 96.5078 142.43C96.9078 142.61 97.3878 142.7 97.9478 142.7C98.7145 142.7 99.3178 142.447 99.7578 141.94C100.204 141.433 100.428 140.657 100.428 139.61C100.428 139.263 100.391 138.933 100.318 138.62C100.251 138.3 100.124 138.02 99.9378 137.78C99.7578 137.533 99.5011 137.34 99.1678 137.2C98.8345 137.053 98.4045 136.98 97.8778 136.98H97.3278V135.59H97.8778C98.3911 135.59 98.8111 135.52 99.1378 135.38C99.4711 135.233 99.7311 135.043 99.9178 134.81C100.104 134.57 100.234 134.303 100.308 134.01C100.388 133.71 100.428 133.407 100.428 133.1C100.428 132.213 100.208 131.573 99.7678 131.18C99.3278 130.787 98.7311 130.59 97.9778 130.59C97.1578 130.59 96.5011 130.807 96.0078 131.24C95.5211 131.673 95.2778 132.453 95.2778 133.58H93.5678C93.5678 132.913 93.6545 132.303 93.8278 131.75C94.0078 131.197 94.2778 130.72 94.6378 130.32C94.9978 129.92 95.4511 129.613 95.9978 129.4C96.5511 129.18 97.2011 129.07 97.9478 129.07C98.9011 129.07 99.6878 129.243 100.308 129.59C100.928 129.937 101.388 130.41 101.688 131.01C101.994 131.603 102.148 132.273 102.148 133.02C102.148 133.567 102.068 134.08 101.908 134.56C101.748 135.04 101.488 135.433 101.128 135.74C100.774 136.04 100.304 136.203 99.7178 136.23ZM110.234 144V140.68H104.314V139.31L109.574 129.2H111.904V139.18H113.894V140.68H111.904V144H110.234ZM105.794 140.1L105.234 139.18H110.234V130.38L110.664 130.48L105.794 140.1ZM116.597 148.67L115.687 147.71C115.914 147.517 116.22 147.19 116.607 146.73C117 146.277 117.397 145.667 117.797 144.9C118.204 144.133 118.544 143.197 118.817 142.09C119.097 140.983 119.237 139.687 119.237 138.2C119.237 136.713 119.097 135.413 118.817 134.3C118.544 133.187 118.204 132.247 117.797 131.48C117.397 130.707 117 130.093 116.607 129.64C116.22 129.18 115.914 128.863 115.687 128.69L116.597 127.73C116.777 127.85 117.034 128.077 117.367 128.41C117.7 128.743 118.057 129.19 118.437 129.75C118.824 130.31 119.19 130.993 119.537 131.8C119.89 132.6 120.177 133.533 120.397 134.6C120.624 135.66 120.737 136.86 120.737 138.2C120.737 139.533 120.624 140.73 120.397 141.79C120.177 142.85 119.89 143.777 119.537 144.57C119.19 145.37 118.824 146.05 118.437 146.61C118.057 147.17 117.7 147.617 117.367 147.95C117.034 148.29 116.777 148.53 116.597 148.67ZM137.12 130.74H131.36L130.84 135.6C130.86 135.52 130.927 135.413 131.04 135.28C131.16 135.147 131.333 135.01 131.56 134.87C131.793 134.73 132.083 134.613 132.43 134.52C132.777 134.427 133.183 134.38 133.65 134.38C134.863 134.38 135.783 134.813 136.41 135.68C137.043 136.547 137.36 137.69 137.36 139.11C137.36 140.203 137.19 141.13 136.85 141.89C136.517 142.65 136.033 143.227 135.4 143.62C134.767 144.007 134 144.2 133.1 144.2C132.373 144.2 131.74 144.093 131.2 143.88C130.667 143.66 130.227 143.353 129.88 142.96C129.54 142.567 129.283 142.107 129.11 141.58C128.943 141.053 128.86 140.477 128.86 139.85C128.86 139.843 128.86 139.84 128.86 139.84C128.86 139.833 128.86 139.827 128.86 139.82H130.55C130.55 139.827 130.55 139.833 130.55 139.84C130.55 139.84 130.55 139.843 130.55 139.85C130.557 140.857 130.783 141.583 131.23 142.03C131.683 142.477 132.313 142.7 133.12 142.7C133.64 142.7 134.087 142.57 134.46 142.31C134.84 142.05 135.13 141.657 135.33 141.13C135.537 140.603 135.64 139.94 135.64 139.14C135.64 138.073 135.443 137.263 135.05 136.71C134.663 136.157 134.093 135.88 133.34 135.88C132.853 135.88 132.427 135.977 132.06 136.17C131.693 136.357 131.39 136.587 131.15 136.86C130.917 137.133 130.75 137.393 130.65 137.64L129.01 137.22L129.92 129.25H137.12V130.74ZM144.618 144.2C143.651 144.2 142.851 143.927 142.218 143.38C141.584 142.827 141.111 142.06 140.798 141.08C140.491 140.093 140.338 138.947 140.338 137.64C140.338 136.06 140.451 134.723 140.678 133.63C140.904 132.537 141.218 131.657 141.618 130.99C142.024 130.317 142.494 129.83 143.028 129.53C143.568 129.223 144.148 129.07 144.768 129.07C145.501 129.07 146.101 129.2 146.568 129.46C147.041 129.713 147.408 130.037 147.668 130.43C147.928 130.823 148.108 131.23 148.208 131.65C148.314 132.07 148.368 132.443 148.368 132.77C148.368 132.777 148.368 132.783 148.368 132.79C148.368 132.79 148.368 132.797 148.368 132.81H146.768C146.768 132.797 146.768 132.79 146.768 132.79C146.768 132.783 146.768 132.777 146.768 132.77C146.768 132.53 146.738 132.283 146.678 132.03C146.624 131.77 146.524 131.53 146.378 131.31C146.231 131.09 146.028 130.913 145.768 130.78C145.508 130.647 145.171 130.58 144.758 130.58C144.224 130.58 143.744 130.803 143.318 131.25C142.898 131.69 142.564 132.447 142.318 133.52C142.078 134.593 141.958 136.08 141.958 137.98H141.138C141.138 137.273 141.311 136.66 141.658 136.14C142.011 135.613 142.478 135.207 143.058 134.92C143.638 134.627 144.264 134.48 144.938 134.48C145.778 134.48 146.494 134.687 147.088 135.1C147.681 135.507 148.131 136.07 148.438 136.79C148.751 137.503 148.908 138.323 148.908 139.25C148.908 140.217 148.744 141.073 148.418 141.82C148.091 142.567 147.608 143.15 146.968 143.57C146.334 143.99 145.551 144.2 144.618 144.2ZM144.628 142.7C145.194 142.7 145.664 142.567 146.038 142.3C146.418 142.033 146.704 141.65 146.898 141.15C147.091 140.65 147.188 140.053 147.188 139.36C147.188 138.707 147.094 138.127 146.908 137.62C146.728 137.107 146.458 136.707 146.098 136.42C145.744 136.127 145.308 135.98 144.788 135.98C144.261 135.98 143.788 136.107 143.368 136.36C142.954 136.613 142.628 136.97 142.388 137.43C142.154 137.89 142.038 138.433 142.038 139.06C142.038 139.727 142.141 140.337 142.348 140.89C142.561 141.443 142.861 141.883 143.248 142.21C143.641 142.537 144.101 142.7 144.628 142.7ZM157.972 130.77V130.79H151.352V129.25H159.922V130.71C159.149 131.27 158.502 131.943 157.982 132.73C157.462 133.517 157.039 134.377 156.712 135.31C156.392 136.237 156.149 137.197 155.982 138.19C155.815 139.183 155.702 140.177 155.642 141.17C155.582 142.157 155.552 143.1 155.552 144H153.842C153.842 143.033 153.875 142.047 153.942 141.04C154.009 140.027 154.125 139.027 154.292 138.04C154.465 137.047 154.705 136.1 155.012 135.2C155.325 134.293 155.722 133.463 156.202 132.71C156.689 131.95 157.279 131.303 157.972 130.77ZM161.449 138.88V137.8H168.409V138.88H161.449ZM176.081 144.2C175.121 144.2 174.295 144.02 173.601 143.66C172.908 143.293 172.375 142.787 172.001 142.14C171.628 141.487 171.441 140.733 171.441 139.88C171.441 139.113 171.568 138.477 171.821 137.97C172.075 137.463 172.398 137.067 172.791 136.78C173.185 136.493 173.588 136.297 174.001 136.19C173.648 136.11 173.301 135.937 172.961 135.67C172.621 135.403 172.341 135.037 172.121 134.57C171.901 134.097 171.791 133.52 171.791 132.84C171.791 132.067 171.981 131.4 172.361 130.84C172.748 130.273 173.265 129.837 173.911 129.53C174.558 129.223 175.281 129.07 176.081 129.07C176.881 129.07 177.605 129.223 178.251 129.53C178.905 129.837 179.421 130.273 179.801 130.84C180.181 131.4 180.371 132.067 180.371 132.84C180.371 133.52 180.261 134.097 180.041 134.57C179.821 135.037 179.541 135.403 179.201 135.67C178.861 135.937 178.515 136.11 178.161 136.19C178.581 136.297 178.985 136.493 179.371 136.78C179.765 137.067 180.088 137.463 180.341 137.97C180.595 138.477 180.721 139.113 180.721 139.88C180.721 140.733 180.535 141.487 180.161 142.14C179.788 142.787 179.255 143.293 178.561 143.66C177.868 144.02 177.041 144.2 176.081 144.2ZM176.081 142.7C176.615 142.7 177.098 142.6 177.531 142.4C177.971 142.2 178.321 141.893 178.581 141.48C178.841 141.067 178.971 140.54 178.971 139.9C178.971 139.313 178.851 138.8 178.611 138.36C178.371 137.913 178.035 137.567 177.601 137.32C177.168 137.073 176.661 136.95 176.081 136.95C175.501 136.95 174.995 137.073 174.561 137.32C174.128 137.567 173.791 137.913 173.551 138.36C173.311 138.8 173.191 139.313 173.191 139.9C173.191 140.54 173.321 141.067 173.581 141.48C173.841 141.893 174.188 142.2 174.621 142.4C175.061 142.6 175.548 142.7 176.081 142.7ZM176.081 135.49C176.861 135.49 177.495 135.26 177.981 134.8C178.468 134.34 178.711 133.727 178.711 132.96C178.711 132.387 178.588 131.927 178.341 131.58C178.095 131.233 177.771 130.983 177.371 130.83C176.971 130.67 176.541 130.59 176.081 130.59C175.621 130.59 175.191 130.67 174.791 130.83C174.391 130.983 174.068 131.233 173.821 131.58C173.575 131.927 173.451 132.387 173.451 132.96C173.451 133.727 173.691 134.34 174.171 134.8C174.658 135.26 175.295 135.49 176.081 135.49ZM187.689 144.2C186.956 144.2 186.353 144.073 185.879 143.82C185.413 143.56 185.049 143.233 184.789 142.84C184.529 142.447 184.346 142.04 184.239 141.62C184.139 141.2 184.089 140.827 184.089 140.5C184.089 140.487 184.089 140.48 184.089 140.48C184.089 140.473 184.089 140.467 184.089 140.46H185.689C185.689 140.467 185.689 140.473 185.689 140.48C185.689 140.48 185.689 140.487 185.689 140.5C185.689 140.74 185.716 140.99 185.769 141.25C185.829 141.503 185.933 141.74 186.079 141.96C186.226 142.18 186.429 142.357 186.689 142.49C186.956 142.623 187.293 142.69 187.699 142.69C188.239 142.69 188.719 142.47 189.139 142.03C189.559 141.583 189.889 140.823 190.129 139.75C190.376 138.67 190.499 137.183 190.499 135.29H191.319C191.319 135.99 191.143 136.603 190.789 137.13C190.443 137.657 189.979 138.067 189.399 138.36C188.826 138.647 188.199 138.79 187.519 138.79C186.679 138.79 185.963 138.587 185.369 138.18C184.783 137.767 184.333 137.203 184.019 136.49C183.706 135.77 183.549 134.947 183.549 134.02C183.549 133.047 183.713 132.19 184.039 131.45C184.366 130.703 184.849 130.12 185.489 129.7C186.129 129.28 186.913 129.07 187.839 129.07C188.806 129.07 189.606 129.347 190.239 129.9C190.873 130.447 191.343 131.213 191.649 132.2C191.963 133.18 192.119 134.323 192.119 135.63C192.119 137.21 192.006 138.547 191.779 139.64C191.553 140.733 191.236 141.617 190.829 142.29C190.429 142.957 189.959 143.443 189.419 143.75C188.886 144.05 188.309 144.2 187.689 144.2ZM187.669 137.29C188.203 137.29 188.676 137.163 189.089 136.91C189.503 136.657 189.826 136.3 190.059 135.84C190.299 135.38 190.419 134.837 190.419 134.21C190.419 133.537 190.313 132.927 190.099 132.38C189.893 131.827 189.596 131.387 189.209 131.06C188.823 130.733 188.363 130.57 187.829 130.57C187.269 130.57 186.799 130.703 186.419 130.97C186.039 131.237 185.753 131.62 185.559 132.12C185.366 132.613 185.269 133.21 185.269 133.91C185.269 134.563 185.359 135.147 185.539 135.66C185.726 136.167 185.999 136.567 186.359 136.86C186.719 137.147 187.156 137.29 187.669 137.29ZM194.417 138.88V137.8H201.377V138.88H194.417ZM208.61 144.2C207.803 144.2 207.113 144.007 206.54 143.62C205.973 143.227 205.51 142.687 205.15 142C204.797 141.307 204.537 140.503 204.37 139.59C204.21 138.677 204.13 137.7 204.13 136.66C204.13 135.62 204.21 134.643 204.37 133.73C204.537 132.81 204.797 132.003 205.15 131.31C205.51 130.61 205.973 130.063 206.54 129.67C207.113 129.27 207.803 129.07 208.61 129.07C209.417 129.07 210.103 129.27 210.67 129.67C211.243 130.063 211.707 130.61 212.06 131.31C212.413 132.003 212.673 132.81 212.84 133.73C213.007 134.643 213.09 135.62 213.09 136.66C213.09 137.7 213.007 138.677 212.84 139.59C212.673 140.503 212.413 141.307 212.06 142C211.707 142.687 211.243 143.227 210.67 143.62C210.103 144.007 209.417 144.2 208.61 144.2ZM208.61 142.7C209.237 142.7 209.75 142.47 210.15 142.01C210.557 141.55 210.86 140.87 211.06 139.97C211.26 139.07 211.36 137.967 211.36 136.66C211.36 135.347 211.26 134.24 211.06 133.34C210.86 132.44 210.557 131.76 210.15 131.3C209.75 130.833 209.237 130.6 208.61 130.6C207.99 130.6 207.473 130.833 207.06 131.3C206.653 131.76 206.35 132.44 206.15 133.34C205.95 134.24 205.85 135.347 205.85 136.66C205.85 137.973 205.95 139.08 206.15 139.98C206.35 140.873 206.653 141.55 207.06 142.01C207.473 142.47 207.99 142.7 208.61 142.7ZM219.977 144.2C219.171 144.2 218.481 144.007 217.907 143.62C217.341 143.227 216.877 142.687 216.517 142C216.164 141.307 215.904 140.503 215.737 139.59C215.577 138.677 215.497 137.7 215.497 136.66C215.497 135.62 215.577 134.643 215.737 133.73C215.904 132.81 216.164 132.003 216.517 131.31C216.877 130.61 217.341 130.063 217.907 129.67C218.481 129.27 219.171 129.07 219.977 129.07C220.784 129.07 221.471 129.27 222.037 129.67C222.611 130.063 223.074 130.61 223.427 131.31C223.781 132.003 224.041 132.81 224.207 133.73C224.374 134.643 224.457 135.62 224.457 136.66C224.457 137.7 224.374 138.677 224.207 139.59C224.041 140.503 223.781 141.307 223.427 142C223.074 142.687 222.611 143.227 222.037 143.62C221.471 144.007 220.784 144.2 219.977 144.2ZM219.977 142.7C220.604 142.7 221.117 142.47 221.517 142.01C221.924 141.55 222.227 140.87 222.427 139.97C222.627 139.07 222.727 137.967 222.727 136.66C222.727 135.347 222.627 134.24 222.427 133.34C222.227 132.44 221.924 131.76 221.517 131.3C221.117 130.833 220.604 130.6 219.977 130.6C219.357 130.6 218.841 130.833 218.427 131.3C218.021 131.76 217.717 132.44 217.517 133.34C217.317 134.24 217.217 135.347 217.217 136.66C217.217 137.973 217.317 139.08 217.517 139.98C217.717 140.873 218.021 141.55 218.427 142.01C218.841 142.47 219.357 142.7 219.977 142.7Z" fill="#391400"/>
<circle cx="470" cy="64" r="32" fill="#EF6D58"/>
<path fill-rule="evenodd" clip-rule="evenodd" d="M461 55C459.6 54.9999 458.386 55.9678 458.075 57.3325L470 64.621L481.925 57.3325C481.614 55.9678 480.4 54.9999 479 55H461ZM458 69.7015V59.0455L466.705 64.3645L458 69.7015ZM468.141 65.245L458.287 71.2855C458.784 72.3335 459.84 73.0011 461 73H479C480.16 73.0003 481.216 72.3321 481.712 71.284L471.857 65.2435L470 66.379L468.141 65.2435V65.245ZM482 69.7015L473.295 64.366V64.3645L482 59.0455V69.7015Z" fill="white"/>
<path d="M527.88 61.4L528.496 60.624V65.952L528.16 65.48H532.688V66.68H528.16L528.496 66.208V71.576L527.88 70.8H533.576V72H527.128V60.2H533.576V61.4H527.88ZM547.111 60.2H549.463V72H548.167V61.288L548.207 61.304L545.199 72H543.247L540.223 61.296L540.263 61.28V72H538.967V60.2H541.319L544.215 70.904H544.199L547.111 60.2ZM554.233 72L557.481 60.168H559.609L562.833 72H561.425L558.537 61.056H558.553L555.641 72H554.233ZM555.913 68.872V67.672H561.177V68.872H555.913ZM567.512 72V60.2H568.856V72H567.512ZM574.175 72V60.2H575.543V71.576L574.927 70.8H580.199V72H574.175Z" fill="#EF6D58"/>
<path d="M439.63 144V133.38H441.31V144H439.63ZM440.48 130.94C440.167 130.94 439.893 130.853 439.66 130.68C439.433 130.5 439.32 130.257 439.32 129.95C439.32 129.65 439.433 129.413 439.66 129.24C439.893 129.06 440.167 128.97 440.48 128.97C440.793 128.97 441.063 129.06 441.29 129.24C441.517 129.413 441.63 129.65 441.63 129.95C441.63 130.257 441.517 130.5 441.29 130.68C441.063 130.853 440.793 130.94 440.48 130.94ZM452.071 144V138.91C452.071 138.603 452.071 138.353 452.071 138.16C452.071 137.96 452.071 137.77 452.071 137.59C452.071 137.037 451.978 136.553 451.791 136.14C451.605 135.727 451.311 135.407 450.911 135.18C450.511 134.953 449.988 134.84 449.341 134.84C448.775 134.84 448.248 134.987 447.761 135.28C447.281 135.567 446.895 135.957 446.601 136.45C446.315 136.937 446.171 137.483 446.171 138.09L445.201 137.72C445.201 136.887 445.405 136.13 445.811 135.45C446.225 134.77 446.771 134.23 447.451 133.83C448.138 133.423 448.885 133.22 449.691 133.22C450.511 133.22 451.228 133.377 451.841 133.69C452.455 134.003 452.928 134.453 453.261 135.04C453.601 135.62 453.771 136.32 453.771 137.14C453.771 137.433 453.771 137.753 453.771 138.1C453.771 138.447 453.771 138.77 453.771 139.07V144H452.071ZM444.471 144V133.38H446.171V144H444.471ZM458.047 144V134.88H455.727V133.38H458.047V132.01C458.047 131.537 458.1 131.103 458.207 130.71C458.32 130.31 458.48 129.957 458.687 129.65C458.9 129.343 459.157 129.083 459.457 128.87C459.757 128.657 460.097 128.497 460.477 128.39C460.864 128.277 461.284 128.22 461.737 128.22C462.064 128.22 462.324 128.24 462.517 128.28C462.71 128.32 462.84 128.357 462.907 128.39V129.89C462.827 129.863 462.694 129.833 462.507 129.8C462.32 129.767 462.12 129.75 461.907 129.75C461.454 129.75 461.084 129.82 460.797 129.96C460.517 130.1 460.3 130.293 460.147 130.54C459.994 130.78 459.887 131.053 459.827 131.36C459.774 131.667 459.747 131.987 459.747 132.32V133.38H462.847V134.88H459.747V144H458.047ZM469.306 144.19C468.239 144.19 467.296 143.953 466.476 143.48C465.663 143 465.023 142.347 464.556 141.52C464.096 140.687 463.866 139.74 463.866 138.68C463.866 137.62 464.096 136.68 464.556 135.86C465.023 135.04 465.663 134.397 466.476 133.93C467.296 133.463 468.239 133.23 469.306 133.23C470.373 133.23 471.313 133.463 472.126 133.93C472.946 134.397 473.586 135.04 474.046 135.86C474.513 136.68 474.746 137.62 474.746 138.68C474.746 139.74 474.513 140.687 474.046 141.52C473.586 142.347 472.946 143 472.126 143.48C471.313 143.953 470.373 144.19 469.306 144.19ZM469.306 142.63C470.039 142.63 470.686 142.467 471.246 142.14C471.806 141.813 472.243 141.353 472.556 140.76C472.876 140.167 473.036 139.473 473.036 138.68C473.036 137.887 472.876 137.2 472.556 136.62C472.243 136.033 471.806 135.583 471.246 135.27C470.686 134.95 470.039 134.79 469.306 134.79C468.579 134.79 467.933 134.95 467.366 135.27C466.806 135.583 466.366 136.033 466.046 136.62C465.733 137.2 465.576 137.887 465.576 138.68C465.576 139.473 465.733 140.167 466.046 140.76C466.366 141.353 466.806 141.813 467.366 142.14C467.933 142.467 468.579 142.63 469.306 142.63ZM491.221 142.78C490.708 143.06 490.094 143.3 489.381 143.5C488.668 143.7 487.894 143.853 487.061 143.96C486.234 144.06 485.388 144.11 484.521 144.11C482.928 144.11 481.551 143.84 480.391 143.3C479.231 142.753 478.338 141.977 477.711 140.97C477.091 139.957 476.781 138.747 476.781 137.34C476.781 136.187 477.008 135.113 477.461 134.12C477.921 133.127 478.568 132.257 479.401 131.51C480.234 130.763 481.221 130.183 482.361 129.77C483.508 129.35 484.768 129.14 486.141 129.14C487.301 129.14 488.338 129.3 489.251 129.62C490.164 129.933 490.938 130.373 491.571 130.94C492.204 131.507 492.688 132.167 493.021 132.92C493.354 133.667 493.521 134.47 493.521 135.33C493.521 136.103 493.401 136.833 493.161 137.52C492.928 138.2 492.581 138.8 492.121 139.32C491.661 139.833 491.091 140.237 490.411 140.53C489.738 140.823 488.958 140.97 488.071 140.97C487.818 140.97 487.554 140.943 487.281 140.89C487.008 140.837 486.778 140.733 486.591 140.58C486.411 140.42 486.318 140.187 486.311 139.88C486.311 139.873 486.311 139.863 486.311 139.85C486.311 139.837 486.311 139.827 486.311 139.82C486.138 140.167 485.844 140.433 485.431 140.62C485.024 140.807 484.544 140.9 483.991 140.9C483.318 140.9 482.758 140.76 482.311 140.48C481.864 140.193 481.528 139.793 481.301 139.28C481.081 138.76 480.971 138.153 480.971 137.46C480.971 136.493 481.164 135.64 481.551 134.9C481.944 134.153 482.478 133.567 483.151 133.14C483.831 132.713 484.598 132.5 485.451 132.5C486.038 132.5 486.518 132.617 486.891 132.85C487.264 133.083 487.451 133.347 487.451 133.64L487.691 132.72H488.891L487.371 138.97C487.364 139.01 487.358 139.057 487.351 139.11C487.344 139.163 487.341 139.2 487.341 139.22C487.341 139.533 487.451 139.75 487.671 139.87C487.891 139.983 488.141 140.04 488.421 140.04C489.161 140.04 489.778 139.9 490.271 139.62C490.764 139.34 491.154 138.97 491.441 138.51C491.728 138.043 491.931 137.533 492.051 136.98C492.178 136.42 492.241 135.863 492.241 135.31C492.241 134.257 491.988 133.337 491.481 132.55C490.974 131.763 490.254 131.153 489.321 130.72C488.394 130.28 487.301 130.06 486.041 130.06C484.841 130.06 483.751 130.247 482.771 130.62C481.798 130.987 480.958 131.503 480.251 132.17C479.551 132.83 479.011 133.603 478.631 134.49C478.258 135.377 478.071 136.333 478.071 137.36C478.071 138.6 478.341 139.657 478.881 140.53C479.421 141.397 480.178 142.057 481.151 142.51C482.124 142.963 483.264 143.19 484.571 143.19C485.311 143.19 486.038 143.143 486.751 143.05C487.471 142.957 488.151 142.82 488.791 142.64C489.431 142.46 490.001 142.24 490.501 141.98L491.221 142.78ZM484.201 139.98C484.774 139.98 485.221 139.863 485.541 139.63C485.868 139.397 486.088 139.053 486.201 138.6C486.208 138.58 486.238 138.453 486.291 138.22C486.351 137.987 486.421 137.7 486.501 137.36C486.588 137.02 486.671 136.68 486.751 136.34C486.838 135.993 486.911 135.693 486.971 135.44C487.031 135.18 487.068 135.02 487.081 134.96C487.108 134.827 487.121 134.703 487.121 134.59C487.121 134.257 487.001 133.973 486.761 133.74C486.528 133.507 486.134 133.39 485.581 133.39C484.948 133.39 484.378 133.577 483.871 133.95C483.364 134.317 482.964 134.813 482.671 135.44C482.384 136.06 482.241 136.75 482.241 137.51C482.241 138.297 482.411 138.907 482.751 139.34C483.091 139.767 483.574 139.98 484.201 139.98ZM500.467 144.2C499.66 144.2 498.953 144.073 498.347 143.82C497.747 143.567 497.28 143.203 496.947 142.73C496.613 142.25 496.447 141.677 496.447 141.01C496.447 140.317 496.627 139.74 496.987 139.28C497.347 138.813 497.853 138.45 498.507 138.19C499.16 137.93 499.92 137.757 500.787 137.67C502.093 137.537 503.023 137.407 503.577 137.28C504.13 137.147 504.407 136.933 504.407 136.64C504.407 136.633 504.407 136.63 504.407 136.63C504.407 136.623 504.407 136.617 504.407 136.61C504.407 135.997 504.157 135.54 503.657 135.24C503.157 134.933 502.433 134.78 501.487 134.78C500.5 134.78 499.733 134.953 499.187 135.3C498.64 135.64 498.367 136.193 498.367 136.96H496.687C496.687 136.167 496.89 135.493 497.297 134.94C497.703 134.38 498.267 133.953 498.987 133.66C499.713 133.367 500.55 133.22 501.497 133.22C502.363 133.22 503.143 133.353 503.837 133.62C504.537 133.88 505.09 134.27 505.497 134.79C505.91 135.303 506.117 135.94 506.117 136.7C506.117 136.84 506.117 136.98 506.117 137.12C506.117 137.253 506.117 137.39 506.117 137.53V142C506.117 142.233 506.127 142.46 506.147 142.68C506.167 142.9 506.2 143.093 506.247 143.26C506.307 143.46 506.373 143.623 506.447 143.75C506.52 143.87 506.58 143.953 506.627 144H504.917C504.883 143.967 504.833 143.89 504.767 143.77C504.7 143.643 504.637 143.497 504.577 143.33C504.53 143.197 504.493 143.03 504.467 142.83C504.44 142.623 504.427 142.41 504.427 142.19L504.707 142.38C504.5 142.74 504.197 143.057 503.797 143.33C503.403 143.603 502.927 143.817 502.367 143.97C501.807 144.123 501.173 144.2 500.467 144.2ZM500.737 142.67C501.423 142.67 502.043 142.567 502.597 142.36C503.15 142.147 503.59 141.833 503.917 141.42C504.243 141.007 504.407 140.493 504.407 139.88V137.77L504.787 138.41C504.36 138.577 503.827 138.713 503.187 138.82C502.553 138.92 501.89 139.003 501.197 139.07C500.19 139.163 499.43 139.34 498.917 139.6C498.41 139.86 498.157 140.297 498.157 140.91C498.157 141.49 498.367 141.93 498.787 142.23C499.207 142.523 499.857 142.67 500.737 142.67ZM515.724 143.35C516.297 143.397 516.801 143.503 517.234 143.67C517.674 143.83 518.017 144.067 518.264 144.38C518.511 144.7 518.634 145.117 518.634 145.63C518.634 146.197 518.441 146.697 518.054 147.13C517.667 147.57 517.081 147.913 516.294 148.16C515.507 148.407 514.517 148.53 513.324 148.53C511.637 148.53 510.364 148.283 509.504 147.79C508.644 147.303 508.214 146.637 508.214 145.79C508.214 145.523 508.244 145.287 508.304 145.08C508.371 144.88 508.444 144.717 508.524 144.59L510.144 144.83C510.091 144.903 510.037 145.013 509.984 145.16C509.937 145.313 509.914 145.49 509.914 145.69C509.914 146.223 510.217 146.597 510.824 146.81C511.431 147.03 512.291 147.14 513.404 147.14C514.237 147.14 514.921 147.083 515.454 146.97C515.987 146.857 516.384 146.693 516.644 146.48C516.904 146.267 517.034 146.017 517.034 145.73C517.034 145.297 516.851 145.027 516.484 144.92C516.124 144.82 515.677 144.75 515.144 144.71L511.104 144.41C510.431 144.357 509.881 144.15 509.454 143.79C509.034 143.423 508.824 142.98 508.824 142.46C508.824 142.14 508.901 141.837 509.054 141.55C509.214 141.263 509.397 141.023 509.604 140.83C509.817 140.63 510.007 140.51 510.174 140.47L511.514 141.08C511.347 141.107 511.141 141.223 510.894 141.43C510.654 141.63 510.534 141.867 510.534 142.14C510.534 142.387 510.631 142.59 510.824 142.75C511.017 142.903 511.401 143.003 511.974 143.05L515.724 143.35ZM517.194 133.38H518.794L518.134 137.56C518.014 138.34 517.764 139.047 517.384 139.68C517.004 140.307 516.484 140.807 515.824 141.18C515.171 141.547 514.361 141.73 513.394 141.73C512.387 141.73 511.527 141.547 510.814 141.18C510.101 140.813 509.554 140.313 509.174 139.68C508.794 139.04 508.604 138.32 508.604 137.52C508.604 136.707 508.801 135.977 509.194 135.33C509.594 134.677 510.147 134.163 510.854 133.79C511.561 133.41 512.371 133.22 513.284 133.22C514.104 133.22 514.821 133.363 515.434 133.65C516.047 133.93 516.531 134.283 516.884 134.71C517.244 135.137 517.444 135.567 517.484 136L516.844 136.04L517.194 133.38ZM513.384 140.21C514.031 140.21 514.584 140.103 515.044 139.89C515.511 139.677 515.867 139.367 516.114 138.96C516.367 138.553 516.494 138.06 516.494 137.48C516.494 136.92 516.367 136.437 516.114 136.03C515.867 135.617 515.511 135.3 515.044 135.08C514.584 134.853 514.034 134.74 513.394 134.74C512.781 134.74 512.237 134.857 511.764 135.09C511.297 135.317 510.931 135.637 510.664 136.05C510.404 136.463 510.274 136.95 510.274 137.51C510.274 138.077 510.397 138.563 510.644 138.97C510.897 139.37 511.254 139.677 511.714 139.89C512.181 140.103 512.737 140.21 513.384 140.21ZM521.174 139.37V137.85H529.384L529.084 138.35C529.084 138.31 529.084 138.273 529.084 138.24C529.084 138.2 529.084 138.163 529.084 138.13C529.084 137.517 528.954 136.957 528.694 136.45C528.44 135.937 528.06 135.527 527.554 135.22C527.047 134.913 526.42 134.76 525.674 134.76C524.92 134.76 524.257 134.92 523.684 135.24C523.11 135.56 522.664 136.013 522.344 136.6C522.024 137.18 521.864 137.873 521.864 138.68C521.864 139.5 522.017 140.207 522.324 140.8C522.637 141.393 523.08 141.85 523.654 142.17C524.227 142.49 524.907 142.65 525.694 142.65C526.254 142.65 526.74 142.593 527.154 142.48C527.567 142.36 527.907 142.203 528.174 142.01C528.447 141.81 528.654 141.593 528.794 141.36C528.934 141.127 529.017 140.893 529.044 140.66H530.744C530.71 141.087 530.577 141.51 530.344 141.93C530.11 142.35 529.78 142.733 529.354 143.08C528.927 143.42 528.404 143.693 527.784 143.9C527.164 144.107 526.45 144.21 525.644 144.21C524.577 144.21 523.637 143.977 522.824 143.51C522.01 143.043 521.37 142.397 520.904 141.57C520.444 140.743 520.214 139.793 520.214 138.72C520.214 137.633 520.447 136.68 520.914 135.86C521.38 135.033 522.024 134.387 522.844 133.92C523.664 133.453 524.6 133.22 525.654 133.22C526.727 133.22 527.657 133.453 528.444 133.92C529.23 134.387 529.837 135.027 530.264 135.84C530.69 136.647 530.904 137.567 530.904 138.6C530.904 138.707 530.9 138.847 530.894 139.02C530.887 139.193 530.877 139.31 530.864 139.37H521.174ZM541.153 144V138.91C541.153 138.603 541.153 138.353 541.153 138.16C541.153 137.96 541.153 137.77 541.153 137.59C541.153 137.037 541.06 136.553 540.873 136.14C540.687 135.727 540.393 135.407 539.993 135.18C539.593 134.953 539.07 134.84 538.423 134.84C537.857 134.84 537.33 134.987 536.843 135.28C536.363 135.567 535.977 135.957 535.683 136.45C535.397 136.937 535.253 137.483 535.253 138.09L534.283 137.72C534.283 136.887 534.487 136.13 534.893 135.45C535.307 134.77 535.853 134.23 536.533 133.83C537.22 133.423 537.967 133.22 538.773 133.22C539.593 133.22 540.31 133.377 540.923 133.69C541.537 134.003 542.01 134.453 542.343 135.04C542.683 135.62 542.853 136.32 542.853 137.14C542.853 137.433 542.853 137.753 542.853 138.1C542.853 138.447 542.853 138.77 542.853 139.07V144H541.153ZM533.553 144V133.38H535.253V144H533.553ZM550.859 144.2C549.846 144.2 548.926 143.98 548.099 143.54C547.272 143.093 546.616 142.457 546.129 141.63C545.649 140.803 545.409 139.82 545.409 138.68C545.409 137.54 545.649 136.563 546.129 135.75C546.616 134.93 547.272 134.303 548.099 133.87C548.926 133.437 549.846 133.22 550.859 133.22C551.632 133.22 552.322 133.34 552.929 133.58C553.536 133.813 554.049 134.127 554.469 134.52C554.889 134.913 555.209 135.347 555.429 135.82C555.656 136.287 555.769 136.753 555.769 137.22C555.769 137.227 555.769 137.237 555.769 137.25C555.769 137.263 555.769 137.277 555.769 137.29H554.079C554.079 137.257 554.076 137.22 554.069 137.18C554.062 137.133 554.056 137.087 554.049 137.04C553.996 136.593 553.826 136.203 553.539 135.87C553.252 135.53 552.879 135.263 552.419 135.07C551.959 134.877 551.436 134.78 550.849 134.78C550.189 134.78 549.576 134.923 549.009 135.21C548.449 135.49 547.996 135.92 547.649 136.5C547.309 137.073 547.139 137.8 547.139 138.68C547.139 139.553 547.309 140.283 547.649 140.87C547.989 141.457 548.439 141.9 548.999 142.2C549.566 142.493 550.182 142.64 550.849 142.64C551.569 142.64 552.162 142.527 552.629 142.3C553.096 142.073 553.446 141.773 553.679 141.4C553.919 141.02 554.052 140.613 554.079 140.18H555.769C555.769 140.66 555.662 141.14 555.449 141.62C555.236 142.093 554.922 142.527 554.509 142.92C554.096 143.307 553.582 143.617 552.969 143.85C552.362 144.083 551.659 144.2 550.859 144.2ZM558.092 148.48C557.826 148.48 557.582 148.463 557.362 148.43C557.142 148.403 557.006 148.377 556.952 148.35V146.87C557.039 146.91 557.182 146.943 557.382 146.97C557.582 146.997 557.782 147.01 557.982 147.01C558.409 147.01 558.769 146.92 559.062 146.74C559.356 146.567 559.602 146.327 559.802 146.02C560.002 145.72 560.166 145.38 560.292 145L560.612 144.06L556.952 133.38H558.732L561.672 142.53H561.432L564.312 133.38H566.062L562.172 144.91C561.952 145.557 561.686 146.15 561.372 146.69C561.066 147.23 560.652 147.663 560.132 147.99C559.619 148.317 558.939 148.48 558.092 148.48ZM568.226 144.26C567.9 144.26 567.623 144.15 567.396 143.93C567.176 143.703 567.066 143.427 567.066 143.1C567.066 142.78 567.176 142.507 567.396 142.28C567.623 142.053 567.9 141.94 568.226 141.94C568.546 141.94 568.82 142.053 569.046 142.28C569.273 142.507 569.386 142.78 569.386 143.1C569.386 143.427 569.273 143.703 569.046 143.93C568.82 144.15 568.546 144.26 568.226 144.26ZM577.363 144.2C576.35 144.2 575.43 143.98 574.603 143.54C573.776 143.093 573.12 142.457 572.633 141.63C572.153 140.803 571.913 139.82 571.913 138.68C571.913 137.54 572.153 136.563 572.633 135.75C573.12 134.93 573.776 134.303 574.603 133.87C575.43 133.437 576.35 133.22 577.363 133.22C578.136 133.22 578.826 133.34 579.433 133.58C580.04 133.813 580.553 134.127 580.973 134.52C581.393 134.913 581.713 135.347 581.933 135.82C582.16 136.287 582.273 136.753 582.273 137.22C582.273 137.227 582.273 137.237 582.273 137.25C582.273 137.263 582.273 137.277 582.273 137.29H580.583C580.583 137.257 580.58 137.22 580.573 137.18C580.566 137.133 580.56 137.087 580.553 137.04C580.5 136.593 580.33 136.203 580.043 135.87C579.756 135.53 579.383 135.263 578.923 135.07C578.463 134.877 577.94 134.78 577.353 134.78C576.693 134.78 576.08 134.923 575.513 135.21C574.953 135.49 574.5 135.92 574.153 136.5C573.813 137.073 573.643 137.8 573.643 138.68C573.643 139.553 573.813 140.283 574.153 140.87C574.493 141.457 574.943 141.9 575.503 142.2C576.07 142.493 576.686 142.64 577.353 142.64C578.073 142.64 578.666 142.527 579.133 142.3C579.6 142.073 579.95 141.773 580.183 141.4C580.423 141.02 580.556 140.613 580.583 140.18H582.273C582.273 140.66 582.166 141.14 581.953 141.62C581.74 142.093 581.426 142.527 581.013 142.92C580.6 143.307 580.086 143.617 579.473 143.85C578.866 144.083 578.163 144.2 577.363 144.2ZM589.951 144.19C588.884 144.19 587.941 143.953 587.121 143.48C586.307 143 585.667 142.347 585.201 141.52C584.741 140.687 584.511 139.74 584.511 138.68C584.511 137.62 584.741 136.68 585.201 135.86C585.667 135.04 586.307 134.397 587.121 133.93C587.941 133.463 588.884 133.23 589.951 133.23C591.017 133.23 591.957 133.463 592.771 133.93C593.591 134.397 594.231 135.04 594.691 135.86C595.157 136.68 595.391 137.62 595.391 138.68C595.391 139.74 595.157 140.687 594.691 141.52C594.231 142.347 593.591 143 592.771 143.48C591.957 143.953 591.017 144.19 589.951 144.19ZM589.951 142.63C590.684 142.63 591.331 142.467 591.891 142.14C592.451 141.813 592.887 141.353 593.201 140.76C593.521 140.167 593.681 139.473 593.681 138.68C593.681 137.887 593.521 137.2 593.201 136.62C592.887 136.033 592.451 135.583 591.891 135.27C591.331 134.95 590.684 134.79 589.951 134.79C589.224 134.79 588.577 134.95 588.011 135.27C587.451 135.583 587.011 136.033 586.691 136.62C586.377 137.2 586.221 137.887 586.221 138.68C586.221 139.473 586.377 140.167 586.691 140.76C587.011 141.353 587.451 141.813 588.011 142.14C588.577 142.467 589.224 142.63 589.951 142.63ZM604.576 144V139.31C604.576 138.897 604.576 138.54 604.576 138.24C604.576 137.933 604.576 137.677 604.576 137.47C604.576 137.21 604.556 136.93 604.516 136.63C604.482 136.323 604.399 136.037 604.266 135.77C604.132 135.497 603.922 135.273 603.636 135.1C603.356 134.927 602.966 134.84 602.466 134.84C601.959 134.84 601.532 134.94 601.186 135.14C600.839 135.333 600.559 135.59 600.346 135.91C600.132 136.23 599.979 136.583 599.886 136.97C599.792 137.35 599.746 137.727 599.746 138.1L598.786 137.71C598.786 136.91 598.952 136.17 599.286 135.49C599.619 134.81 600.086 134.263 600.686 133.85C601.292 133.43 602.002 133.22 602.816 133.22C603.622 133.22 604.279 133.383 604.786 133.71C605.292 134.037 605.666 134.487 605.906 135.06C606.146 135.633 606.266 136.293 606.266 137.04C606.266 137.307 606.266 137.65 606.266 138.07C606.266 138.483 606.266 138.957 606.266 139.49V144H604.576ZM598.046 144V133.38H599.746V144H598.046ZM611.086 144V139.31C611.086 138.857 611.086 138.483 611.086 138.19C611.086 137.89 611.086 137.637 611.086 137.43C611.086 137.17 611.069 136.89 611.036 136.59C611.002 136.29 610.919 136.01 610.786 135.75C610.652 135.483 610.439 135.267 610.146 135.1C609.859 134.927 609.456 134.84 608.936 134.84C608.422 134.84 607.992 134.937 607.646 135.13C607.306 135.323 607.032 135.577 606.826 135.89C606.626 136.203 606.482 136.543 606.396 136.91C606.309 137.27 606.266 137.617 606.266 137.95L605.306 137.58C605.306 136.82 605.466 136.11 605.786 135.45C606.112 134.783 606.572 134.247 607.166 133.84C607.766 133.427 608.476 133.22 609.296 133.22C610.062 133.22 610.702 133.37 611.216 133.67C611.736 133.97 612.126 134.393 612.386 134.94C612.652 135.48 612.786 136.123 612.786 136.87C612.786 137.15 612.786 137.497 612.786 137.91C612.786 138.323 612.786 138.79 612.786 139.31V144H611.086Z" fill="#391400"/>
<circle cx="860" cy="64" r="32" fill="#EF6D58"/>
<path fill-rule="evenodd" clip-rule="evenodd" d="M861.513 75.9559C867.448 75.4434 871.999 70.5852 872 64.7619C871.999 59.6868 868.52 55.2413 863.509 53.9122C863.642 53.4597 863.55 52.9724 863.26 52.5964C862.97 52.2205 862.516 51.9996 862.034 52H858.968C858.486 51.9996 858.032 52.2205 857.742 52.5964C857.452 52.9724 857.36 53.4597 857.493 53.9122C851.742 55.4356 848.134 60.9996 849.18 66.7325C850.225 72.4654 855.578 76.4683 861.513 75.9559ZM866.462 58.9118L866.465 58.9099L866.462 58.9114L866.462 58.9118ZM866.462 58.9118L858.876 63.1479L854.536 70.5674L862.126 66.3294L866.462 58.9118Z" fill="white"/>
<path d="M916.624 72L919.872 60.168H922L925.224 72H923.816L920.928 61.056H920.944L918.032 72H916.624ZM918.304 68.872V67.672H923.568V68.872H918.304ZM929.847 72V60.2H932.807C933.585 60.2 934.287 60.336 934.911 60.608C935.54 60.88 936.076 61.272 936.519 61.784C936.967 62.2907 937.311 62.9093 937.551 63.64C937.791 64.3653 937.911 65.184 937.911 66.096C937.911 67.008 937.791 67.8293 937.551 68.56C937.311 69.2853 936.967 69.904 936.519 70.416C936.076 70.928 935.54 71.32 934.911 71.592C934.287 71.864 933.585 72 932.807 72H929.847ZM931.223 71.576L930.607 70.8H932.647C933.404 70.8 934.073 70.6107 934.655 70.232C935.241 69.848 935.7 69.304 936.031 68.6C936.361 67.896 936.527 67.0613 936.527 66.096C936.527 65.1253 936.361 64.2907 936.031 63.592C935.7 62.888 935.241 62.3467 934.655 61.968C934.073 61.5893 933.404 61.4 932.647 61.4H930.607L931.223 60.624V71.576ZM942.847 72V60.2H945.807C946.585 60.2 947.287 60.336 947.911 60.608C948.54 60.88 949.076 61.272 949.519 61.784C949.967 62.2907 950.311 62.9093 950.551 63.64C950.791 64.3653 950.911 65.184 950.911 66.096C950.911 67.008 950.791 67.8293 950.551 68.56C950.311 69.2853 949.967 69.904 949.519 70.416C949.076 70.928 948.54 71.32 947.911 71.592C947.287 71.864 946.585 72 945.807 72H942.847ZM944.223 71.576L943.607 70.8H945.647C946.404 70.8 947.073 70.6107 947.655 70.232C948.241 69.848 948.7 69.304 949.031 68.6C949.361 67.896 949.527 67.0613 949.527 66.096C949.527 65.1253 949.361 64.2907 949.031 63.592C948.7 62.888 948.241 62.3467 947.655 61.968C947.073 61.5893 946.404 61.4 945.647 61.4H943.607L944.223 60.624V71.576ZM955.847 72V60.2H959.943C961.025 60.2 961.849 60.456 962.415 60.968C962.98 61.48 963.263 62.2613 963.263 63.312C963.263 63.9413 963.143 64.4773 962.903 64.92C962.668 65.3573 962.383 65.696 962.047 65.936C961.716 66.176 961.409 66.312 961.127 66.344C961.415 66.3653 961.697 66.4453 961.975 66.584C962.257 66.7173 962.492 66.9253 962.679 67.208C962.865 67.4907 962.959 67.8693 962.959 68.344C962.959 68.7813 962.959 69.2293 962.959 69.688C962.959 70.1413 962.959 70.5893 962.959 71.032C962.959 71.2613 962.977 71.4667 963.015 71.648C963.052 71.824 963.095 71.9413 963.143 72H961.767C961.729 71.9307 961.692 71.8107 961.655 71.64C961.617 71.4693 961.599 71.2667 961.599 71.032C961.599 70.6213 961.599 70.2027 961.599 69.776C961.599 69.3493 961.599 68.928 961.599 68.512C961.599 67.9893 961.433 67.6 961.103 67.344C960.772 67.088 960.305 66.96 959.703 66.96H956.799L957.183 66.44V72H955.847ZM957.183 66.328L956.799 65.76H959.719C960.113 65.76 960.471 65.664 960.791 65.472C961.116 65.2747 961.375 65.0027 961.567 64.656C961.764 64.304 961.863 63.8933 961.863 63.424C961.863 62.6933 961.671 62.1733 961.287 61.864C960.903 61.5547 960.348 61.4 959.623 61.4H956.767L957.183 60.808V66.328ZM969.114 61.4L969.73 60.624V65.952L969.394 65.48H973.922V66.68H969.394L969.73 66.208V71.576L969.114 70.8H974.81V72H968.362V60.2H974.81V61.4H969.114ZM983.634 72.16C982.818 72.16 982.119 72.032 981.538 71.776C980.962 71.5147 980.519 71.1227 980.21 70.6C979.9 70.0773 979.746 69.4267 979.746 68.648C979.746 68.5413 979.746 68.4507 979.746 68.376C979.746 68.3013 979.746 68.2107 979.746 68.104H981.114C981.114 68.2053 981.114 68.2907 981.114 68.36C981.114 68.4293 981.114 68.5173 981.114 68.624C981.114 69.44 981.327 70.0293 981.754 70.392C982.18 70.7493 982.802 70.928 983.618 70.928C984.46 70.928 985.098 70.784 985.53 70.496C985.962 70.208 986.178 69.7413 986.178 69.096C986.178 68.6427 986.052 68.2667 985.802 67.968C985.556 67.664 985.215 67.408 984.778 67.2C984.34 66.9867 983.831 66.792 983.25 66.616C982.594 66.4133 982.007 66.1573 981.49 65.848C980.978 65.5387 980.572 65.1573 980.274 64.704C979.98 64.2453 979.834 63.688 979.834 63.032C979.834 62.392 979.988 61.8507 980.298 61.408C980.612 60.9653 981.05 60.6293 981.61 60.4C982.17 60.1707 982.82 60.056 983.562 60.056C984.346 60.056 985.026 60.1787 985.602 60.424C986.183 60.664 986.631 61.032 986.946 61.528C987.266 62.0187 987.426 62.6373 987.426 63.384C987.426 63.5013 987.426 63.6027 987.426 63.688C987.426 63.768 987.426 63.8667 987.426 63.984H986.058C986.058 63.8827 986.058 63.792 986.058 63.712C986.058 63.632 986.058 63.5413 986.058 63.44C986.058 62.6613 985.847 62.1093 985.426 61.784C985.004 61.4533 984.391 61.288 983.586 61.288C982.812 61.288 982.215 61.424 981.794 61.696C981.372 61.968 981.162 62.4133 981.162 63.032C981.162 63.496 981.29 63.88 981.546 64.184C981.807 64.4827 982.162 64.7387 982.61 64.952C983.058 65.16 983.57 65.36 984.146 65.552C984.844 65.7813 985.444 66.0427 985.946 66.336C986.452 66.624 986.839 66.984 987.106 67.416C987.378 67.848 987.514 68.392 987.514 69.048C987.514 69.704 987.356 70.264 987.042 70.728C986.732 71.192 986.287 71.5467 985.706 71.792C985.13 72.0373 984.439 72.16 983.634 72.16ZM996.024 72.16C995.208 72.16 994.509 72.032 993.928 71.776C993.352 71.5147 992.909 71.1227 992.6 70.6C992.291 70.0773 992.136 69.4267 992.136 68.648C992.136 68.5413 992.136 68.4507 992.136 68.376C992.136 68.3013 992.136 68.2107 992.136 68.104H993.504C993.504 68.2053 993.504 68.2907 993.504 68.36C993.504 68.4293 993.504 68.5173 993.504 68.624C993.504 69.44 993.717 70.0293 994.144 70.392C994.571 70.7493 995.192 70.928 996.008 70.928C996.851 70.928 997.488 70.784 997.92 70.496C998.352 70.208 998.568 69.7413 998.568 69.096C998.568 68.6427 998.443 68.2667 998.192 67.968C997.947 67.664 997.605 67.408 997.168 67.2C996.731 66.9867 996.221 66.792 995.64 66.616C994.984 66.4133 994.397 66.1573 993.88 65.848C993.368 65.5387 992.963 65.1573 992.664 64.704C992.371 64.2453 992.224 63.688 992.224 63.032C992.224 62.392 992.379 61.8507 992.688 61.408C993.003 60.9653 993.44 60.6293 994 60.4C994.56 60.1707 995.211 60.056 995.952 60.056C996.736 60.056 997.416 60.1787 997.992 60.424C998.573 60.664 999.021 61.032 999.336 61.528C999.656 62.0187 999.816 62.6373 999.816 63.384C999.816 63.5013 999.816 63.6027 999.816 63.688C999.816 63.768 999.816 63.8667 999.816 63.984H998.448C998.448 63.8827 998.448 63.792 998.448 63.712C998.448 63.632 998.448 63.5413 998.448 63.44C998.448 62.6613 998.237 62.1093 997.816 61.784C997.395 61.4533 996.781 61.288 995.976 61.288C995.203 61.288 994.605 61.424 994.184 61.696C993.763 61.968 993.552 62.4133 993.552 63.032C993.552 63.496 993.68 63.88 993.936 64.184C994.197 64.4827 994.552 64.7387 995 64.952C995.448 65.16 995.96 65.36 996.536 65.552C997.235 65.7813 997.835 66.0427 998.336 66.336C998.843 66.624 999.229 66.984 999.496 67.416C999.768 67.848 999.904 68.392 999.904 69.048C999.904 69.704 999.747 70.264 999.432 70.728C999.123 71.192 998.677 71.5467 998.096 71.792C997.52 72.0373 996.829 72.16 996.024 72.16Z" fill="#EF6D58"/>
<path d="M829.26 144V142.53C829.313 142.23 829.47 141.887 829.73 141.5C829.99 141.107 830.31 140.697 830.69 140.27C831.07 139.843 831.47 139.423 831.89 139.01C832.317 138.59 832.717 138.203 833.09 137.85C833.557 137.41 834.013 136.953 834.46 136.48C834.913 136 835.29 135.493 835.59 134.96C835.89 134.427 836.04 133.867 836.04 133.28C836.04 132.407 835.837 131.74 835.43 131.28C835.023 130.82 834.413 130.59 833.6 130.59C832.947 130.59 832.423 130.727 832.03 131C831.637 131.273 831.353 131.657 831.18 132.15C831.007 132.643 830.92 133.22 830.92 133.88H829.21C829.21 132.927 829.37 132.09 829.69 131.37C830.01 130.643 830.497 130.08 831.15 129.68C831.803 129.273 832.627 129.07 833.62 129.07C834.533 129.07 835.297 129.25 835.91 129.61C836.523 129.963 836.983 130.457 837.29 131.09C837.603 131.723 837.76 132.457 837.76 133.29C837.76 133.837 837.657 134.367 837.45 134.88C837.25 135.387 836.987 135.87 836.66 136.33C836.333 136.783 835.98 137.207 835.6 137.6C835.227 137.987 834.87 138.337 834.53 138.65C833.983 139.15 833.467 139.637 832.98 140.11C832.5 140.583 832.097 141.02 831.77 141.42C831.45 141.82 831.257 142.163 831.19 142.45H837.86V144H829.26ZM840.627 144V142.53C840.681 142.23 840.837 141.887 841.097 141.5C841.357 141.107 841.677 140.697 842.057 140.27C842.437 139.843 842.837 139.423 843.257 139.01C843.684 138.59 844.084 138.203 844.457 137.85C844.924 137.41 845.381 136.953 845.827 136.48C846.281 136 846.657 135.493 846.957 134.96C847.257 134.427 847.407 133.867 847.407 133.28C847.407 132.407 847.204 131.74 846.797 131.28C846.391 130.82 845.781 130.59 844.967 130.59C844.314 130.59 843.791 130.727 843.397 131C843.004 131.273 842.721 131.657 842.547 132.15C842.374 132.643 842.287 133.22 842.287 133.88H840.577C840.577 132.927 840.737 132.09 841.057 131.37C841.377 130.643 841.864 130.08 842.517 129.68C843.171 129.273 843.994 129.07 844.987 129.07C845.901 129.07 846.664 129.25 847.277 129.61C847.891 129.963 848.351 130.457 848.657 131.09C848.971 131.723 849.127 132.457 849.127 133.29C849.127 133.837 849.024 134.367 848.817 134.88C848.617 135.387 848.354 135.87 848.027 136.33C847.701 136.783 847.347 137.207 846.967 137.6C846.594 137.987 846.237 138.337 845.897 138.65C845.351 139.15 844.834 139.637 844.347 140.11C843.867 140.583 843.464 141.02 843.137 141.42C842.817 141.82 842.624 142.163 842.557 142.45H849.227V144H840.627ZM856.777 144V140.68H850.857V139.31L856.117 129.2H858.447V139.18H860.437V140.68H858.447V144H856.777ZM852.337 140.1L851.777 139.18H856.777V130.38L857.207 130.48L852.337 140.1ZM868.382 130.77V130.79H861.762V129.25H870.332V130.71C869.559 131.27 868.912 131.943 868.392 132.73C867.872 133.517 867.449 134.377 867.122 135.31C866.802 136.237 866.559 137.197 866.392 138.19C866.225 139.183 866.112 140.177 866.052 141.17C865.992 142.157 865.962 143.1 865.962 144H864.252C864.252 143.033 864.285 142.047 864.352 141.04C864.419 140.027 864.535 139.027 864.702 138.04C864.875 137.047 865.115 136.1 865.422 135.2C865.735 134.293 866.132 133.463 866.612 132.71C867.099 131.95 867.689 131.303 868.382 130.77ZM877.379 144V129.25H879.089V143.47L878.319 142.5H884.909V144H877.379ZM891.223 144.19C890.463 144.19 889.83 144.06 889.323 143.8C888.817 143.533 888.413 143.19 888.113 142.77C887.82 142.35 887.61 141.897 887.483 141.41C887.363 140.917 887.303 140.443 887.303 139.99C887.303 139.737 887.303 139.477 887.303 139.21C887.303 138.937 887.303 138.663 887.303 138.39V133.38H889.013V138.17C889.013 138.417 889.013 138.66 889.013 138.9C889.013 139.14 889.013 139.367 889.013 139.58C889.013 140.12 889.087 140.62 889.233 141.08C889.387 141.54 889.65 141.913 890.023 142.2C890.397 142.48 890.91 142.62 891.563 142.62C892.177 142.62 892.713 142.437 893.173 142.07C893.633 141.697 893.993 141.233 894.253 140.68C894.513 140.12 894.643 139.563 894.643 139.01L895.633 139.42C895.633 140.007 895.53 140.583 895.323 141.15C895.117 141.71 894.82 142.22 894.433 142.68C894.053 143.14 893.59 143.507 893.043 143.78C892.503 144.053 891.897 144.19 891.223 144.19ZM894.643 144V133.38H896.343V144H894.643ZM906.896 144V138.91C906.896 138.603 906.896 138.353 906.896 138.16C906.896 137.96 906.896 137.77 906.896 137.59C906.896 137.037 906.802 136.553 906.616 136.14C906.429 135.727 906.136 135.407 905.736 135.18C905.336 134.953 904.812 134.84 904.166 134.84C903.599 134.84 903.072 134.987 902.586 135.28C902.106 135.567 901.719 135.957 901.426 136.45C901.139 136.937 900.996 137.483 900.996 138.09L900.026 137.72C900.026 136.887 900.229 136.13 900.636 135.45C901.049 134.77 901.596 134.23 902.276 133.83C902.962 133.423 903.709 133.22 904.516 133.22C905.336 133.22 906.052 133.377 906.666 133.69C907.279 134.003 907.752 134.453 908.086 135.04C908.426 135.62 908.596 136.32 908.596 137.14C908.596 137.433 908.596 137.753 908.596 138.1C908.596 138.447 908.596 138.77 908.596 139.07V144H906.896ZM899.296 144V133.38H900.996V144H899.296ZM912.111 139.37V137.85H920.321L920.021 138.35C920.021 138.31 920.021 138.273 920.021 138.24C920.021 138.2 920.021 138.163 920.021 138.13C920.021 137.517 919.891 136.957 919.631 136.45C919.378 135.937 918.998 135.527 918.491 135.22C917.985 134.913 917.358 134.76 916.611 134.76C915.858 134.76 915.195 134.92 914.621 135.24C914.048 135.56 913.601 136.013 913.281 136.6C912.961 137.18 912.801 137.873 912.801 138.68C912.801 139.5 912.955 140.207 913.261 140.8C913.575 141.393 914.018 141.85 914.591 142.17C915.165 142.49 915.845 142.65 916.631 142.65C917.191 142.65 917.678 142.593 918.091 142.48C918.505 142.36 918.845 142.203 919.111 142.01C919.385 141.81 919.591 141.593 919.731 141.36C919.871 141.127 919.955 140.893 919.981 140.66H921.681C921.648 141.087 921.515 141.51 921.281 141.93C921.048 142.35 920.718 142.733 920.291 143.08C919.865 143.42 919.341 143.693 918.721 143.9C918.101 144.107 917.388 144.21 916.581 144.21C915.515 144.21 914.575 143.977 913.761 143.51C912.948 143.043 912.308 142.397 911.841 141.57C911.381 140.743 911.151 139.793 911.151 138.72C911.151 137.633 911.385 136.68 911.851 135.86C912.318 135.033 912.961 134.387 913.781 133.92C914.601 133.453 915.538 133.22 916.591 133.22C917.665 133.22 918.595 133.453 919.381 133.92C920.168 134.387 920.775 135.027 921.201 135.84C921.628 136.647 921.841 137.567 921.841 138.6C921.841 138.707 921.838 138.847 921.831 139.02C921.825 139.193 921.815 139.31 921.801 139.37H912.111ZM928.476 144.16C928.149 144.16 927.829 144.123 927.516 144.05C927.203 143.977 926.919 143.847 926.666 143.66C926.419 143.467 926.223 143.197 926.076 142.85C925.929 142.497 925.856 142.043 925.856 141.49C925.856 141.35 925.856 141.207 925.856 141.06C925.856 140.907 925.856 140.747 925.856 140.58V134.88H923.266V133.38H924.926C925.153 133.38 925.329 133.373 925.456 133.36C925.583 133.34 925.673 133.297 925.726 133.23C925.786 133.157 925.823 133.047 925.836 132.9C925.849 132.747 925.856 132.537 925.856 132.27V129.86H927.566V133.38H930.886V134.88H927.566V140.03C927.566 140.177 927.566 140.32 927.566 140.46C927.566 140.6 927.566 140.73 927.566 140.85C927.566 141.417 927.633 141.86 927.766 142.18C927.906 142.5 928.216 142.66 928.696 142.66C928.889 142.66 929.073 142.643 929.246 142.61C929.419 142.577 929.549 142.543 929.636 142.51V143.99C929.523 144.03 929.363 144.067 929.156 144.1C928.956 144.14 928.729 144.16 928.476 144.16ZM936.386 144.16C936.06 144.16 935.74 144.123 935.426 144.05C935.113 143.977 934.83 143.847 934.576 143.66C934.33 143.467 934.133 143.197 933.986 142.85C933.84 142.497 933.766 142.043 933.766 141.49C933.766 141.35 933.766 141.207 933.766 141.06C933.766 140.907 933.766 140.747 933.766 140.58V134.88H931.176V133.38H932.836C933.063 133.38 933.24 133.373 933.366 133.36C933.493 133.34 933.583 133.297 933.636 133.23C933.696 133.157 933.733 133.047 933.746 132.9C933.76 132.747 933.766 132.537 933.766 132.27V129.86H935.476V133.38H938.796V134.88H935.476V140.03C935.476 140.177 935.476 140.32 935.476 140.46C935.476 140.6 935.476 140.73 935.476 140.85C935.476 141.417 935.543 141.86 935.676 142.18C935.816 142.5 936.126 142.66 936.606 142.66C936.8 142.66 936.983 142.643 937.156 142.61C937.33 142.577 937.46 142.543 937.546 142.51V143.99C937.433 144.03 937.273 144.067 937.066 144.1C936.866 144.14 936.64 144.16 936.386 144.16ZM944.334 144.2C943.527 144.2 942.82 144.073 942.214 143.82C941.614 143.567 941.147 143.203 940.814 142.73C940.48 142.25 940.314 141.677 940.314 141.01C940.314 140.317 940.494 139.74 940.854 139.28C941.214 138.813 941.72 138.45 942.374 138.19C943.027 137.93 943.787 137.757 944.654 137.67C945.96 137.537 946.89 137.407 947.444 137.28C947.997 137.147 948.274 136.933 948.274 136.64C948.274 136.633 948.274 136.63 948.274 136.63C948.274 136.623 948.274 136.617 948.274 136.61C948.274 135.997 948.024 135.54 947.524 135.24C947.024 134.933 946.3 134.78 945.354 134.78C944.367 134.78 943.6 134.953 943.054 135.3C942.507 135.64 942.234 136.193 942.234 136.96H940.554C940.554 136.167 940.757 135.493 941.164 134.94C941.57 134.38 942.134 133.953 942.854 133.66C943.58 133.367 944.417 133.22 945.364 133.22C946.23 133.22 947.01 133.353 947.704 133.62C948.404 133.88 948.957 134.27 949.364 134.79C949.777 135.303 949.984 135.94 949.984 136.7C949.984 136.84 949.984 136.98 949.984 137.12C949.984 137.253 949.984 137.39 949.984 137.53V142C949.984 142.233 949.994 142.46 950.014 142.68C950.034 142.9 950.067 143.093 950.114 143.26C950.174 143.46 950.24 143.623 950.314 143.75C950.387 143.87 950.447 143.953 950.494 144H948.784C948.75 143.967 948.7 143.89 948.634 143.77C948.567 143.643 948.504 143.497 948.444 143.33C948.397 143.197 948.36 143.03 948.334 142.83C948.307 142.623 948.294 142.41 948.294 142.19L948.574 142.38C948.367 142.74 948.064 143.057 947.664 143.33C947.27 143.603 946.794 143.817 946.234 143.97C945.674 144.123 945.04 144.2 944.334 144.2ZM944.604 142.67C945.29 142.67 945.91 142.567 946.464 142.36C947.017 142.147 947.457 141.833 947.784 141.42C948.11 141.007 948.274 140.493 948.274 139.88V137.77L948.654 138.41C948.227 138.577 947.694 138.713 947.054 138.82C946.42 138.92 945.757 139.003 945.064 139.07C944.057 139.163 943.297 139.34 942.784 139.6C942.277 139.86 942.024 140.297 942.024 140.91C942.024 141.49 942.234 141.93 942.654 142.23C943.074 142.523 943.724 142.67 944.604 142.67ZM962.151 144.2C961.131 144.2 960.258 144.04 959.531 143.72C958.811 143.393 958.258 142.903 957.871 142.25C957.485 141.597 957.291 140.783 957.291 139.81C957.291 139.677 957.291 139.563 957.291 139.47C957.291 139.377 957.291 139.263 957.291 139.13H959.001C959.001 139.257 959.001 139.363 959.001 139.45C959.001 139.537 959.001 139.647 959.001 139.78C959.001 140.8 959.268 141.537 959.801 141.99C960.335 142.437 961.111 142.66 962.131 142.66C963.185 142.66 963.981 142.48 964.521 142.12C965.061 141.76 965.331 141.177 965.331 140.37C965.331 139.803 965.175 139.333 964.861 138.96C964.555 138.58 964.128 138.26 963.581 138C963.035 137.733 962.398 137.49 961.671 137.27C960.851 137.017 960.118 136.697 959.471 136.31C958.831 135.923 958.325 135.447 957.951 134.88C957.585 134.307 957.401 133.61 957.401 132.79C957.401 131.99 957.595 131.313 957.981 130.76C958.375 130.207 958.921 129.787 959.621 129.5C960.321 129.213 961.135 129.07 962.061 129.07C963.041 129.07 963.891 129.223 964.611 129.53C965.338 129.83 965.898 130.29 966.291 130.91C966.691 131.523 966.891 132.297 966.891 133.23C966.891 133.377 966.891 133.503 966.891 133.61C966.891 133.71 966.891 133.833 966.891 133.98H965.181C965.181 133.853 965.181 133.74 965.181 133.64C965.181 133.54 965.181 133.427 965.181 133.3C965.181 132.327 964.918 131.637 964.391 131.23C963.865 130.817 963.098 130.61 962.091 130.61C961.125 130.61 960.378 130.78 959.851 131.12C959.325 131.46 959.061 132.017 959.061 132.79C959.061 133.37 959.221 133.85 959.541 134.23C959.868 134.603 960.311 134.923 960.871 135.19C961.431 135.45 962.071 135.7 962.791 135.94C963.665 136.227 964.415 136.553 965.041 136.92C965.675 137.28 966.158 137.73 966.491 138.27C966.831 138.81 967.001 139.49 967.001 140.31C967.001 141.13 966.805 141.83 966.411 142.41C966.025 142.99 965.468 143.433 964.741 143.74C964.021 144.047 963.158 144.2 962.151 144.2ZM973.75 144.16C973.423 144.16 973.103 144.123 972.79 144.05C972.476 143.977 972.193 143.847 971.94 143.66C971.693 143.467 971.496 143.197 971.35 142.85C971.203 142.497 971.13 142.043 971.13 141.49C971.13 141.35 971.13 141.207 971.13 141.06C971.13 140.907 971.13 140.747 971.13 140.58V134.88H968.54V133.38H970.2C970.426 133.38 970.603 133.373 970.73 133.36C970.856 133.34 970.946 133.297 971 133.23C971.06 133.157 971.096 133.047 971.11 132.9C971.123 132.747 971.13 132.537 971.13 132.27V129.86H972.84V133.38H976.16V134.88H972.84V140.03C972.84 140.177 972.84 140.32 972.84 140.46C972.84 140.6 972.84 140.73 972.84 140.85C972.84 141.417 972.906 141.86 973.04 142.18C973.18 142.5 973.49 142.66 973.97 142.66C974.163 142.66 974.346 142.643 974.52 142.61C974.693 142.577 974.823 142.543 974.91 142.51V143.99C974.796 144.03 974.636 144.067 974.43 144.1C974.23 144.14 974.003 144.16 973.75 144.16ZM978.339 144V133.38H980.039V136.64L979.479 136.44C979.519 136.047 979.619 135.66 979.779 135.28C979.939 134.893 980.159 134.547 980.439 134.24C980.725 133.927 981.082 133.68 981.509 133.5C981.935 133.313 982.435 133.22 983.009 133.22C983.435 133.22 983.782 133.257 984.049 133.33C984.322 133.397 984.492 133.45 984.559 133.49L984.119 135.16C984.052 135.113 983.915 135.053 983.709 134.98C983.509 134.907 983.222 134.87 982.849 134.87C982.295 134.87 981.835 134.97 981.469 135.17C981.109 135.37 980.822 135.637 980.609 135.97C980.402 136.297 980.255 136.653 980.169 137.04C980.082 137.427 980.039 137.81 980.039 138.19V144H978.339ZM986.74 139.37V137.85H994.95L994.65 138.35C994.65 138.31 994.65 138.273 994.65 138.24C994.65 138.2 994.65 138.163 994.65 138.13C994.65 137.517 994.52 136.957 994.26 136.45C994.007 135.937 993.627 135.527 993.12 135.22C992.613 134.913 991.987 134.76 991.24 134.76C990.487 134.76 989.823 134.92 989.25 135.24C988.677 135.56 988.23 136.013 987.91 136.6C987.59 137.18 987.43 137.873 987.43 138.68C987.43 139.5 987.583 140.207 987.89 140.8C988.203 141.393 988.647 141.85 989.22 142.17C989.793 142.49 990.473 142.65 991.26 142.65C991.82 142.65 992.307 142.593 992.72 142.48C993.133 142.36 993.473 142.203 993.74 142.01C994.013 141.81 994.22 141.593 994.36 141.36C994.5 141.127 994.583 140.893 994.61 140.66H996.31C996.277 141.087 996.143 141.51 995.91 141.93C995.677 142.35 995.347 142.733 994.92 143.08C994.493 143.42 993.97 143.693 993.35 143.9C992.73 144.107 992.017 144.21 991.21 144.21C990.143 144.21 989.203 143.977 988.39 143.51C987.577 143.043 986.937 142.397 986.47 141.57C986.01 140.743 985.78 139.793 985.78 138.72C985.78 137.633 986.013 136.68 986.48 135.86C986.947 135.033 987.59 134.387 988.41 133.92C989.23 133.453 990.167 133.22 991.22 133.22C992.293 133.22 993.223 133.453 994.01 133.92C994.797 134.387 995.403 135.027 995.83 135.84C996.257 136.647 996.47 137.567 996.47 138.6C996.47 138.707 996.467 138.847 996.46 139.02C996.453 139.193 996.443 139.31 996.43 139.37H986.74ZM999.67 139.37V137.85H1007.88L1007.58 138.35C1007.58 138.31 1007.58 138.273 1007.58 138.24C1007.58 138.2 1007.58 138.163 1007.58 138.13C1007.58 137.517 1007.45 136.957 1007.19 136.45C1006.94 135.937 1006.56 135.527 1006.05 135.22C1005.54 134.913 1004.92 134.76 1004.17 134.76C1003.42 134.76 1002.75 134.92 1002.18 135.24C1001.61 135.56 1001.16 136.013 1000.84 136.6C1000.52 137.18 1000.36 137.873 1000.36 138.68C1000.36 139.5 1000.51 140.207 1000.82 140.8C1001.13 141.393 1001.58 141.85 1002.15 142.17C1002.72 142.49 1003.4 142.65 1004.19 142.65C1004.75 142.65 1005.24 142.593 1005.65 142.48C1006.06 142.36 1006.4 142.203 1006.67 142.01C1006.94 141.81 1007.15 141.593 1007.29 141.36C1007.43 141.127 1007.51 140.893 1007.54 140.66H1009.24C1009.21 141.087 1009.07 141.51 1008.84 141.93C1008.61 142.35 1008.28 142.733 1007.85 143.08C1007.42 143.42 1006.9 143.693 1006.28 143.9C1005.66 144.107 1004.95 144.21 1004.14 144.21C1003.07 144.21 1002.13 143.977 1001.32 143.51C1000.51 143.043 999.867 142.397 999.4 141.57C998.94 140.743 998.71 139.793 998.71 138.72C998.71 137.633 998.943 136.68 999.41 135.86C999.877 135.033 1000.52 134.387 1001.34 133.92C1002.16 133.453 1003.1 133.22 1004.15 133.22C1005.22 133.22 1006.15 133.453 1006.94 133.92C1007.73 134.387 1008.33 135.027 1008.76 135.84C1009.19 136.647 1009.4 137.567 1009.4 138.6C1009.4 138.707 1009.4 138.847 1009.39 139.02C1009.38 139.193 1009.37 139.31 1009.36 139.37H999.67ZM1016.03 144.16C1015.71 144.16 1015.39 144.123 1015.07 144.05C1014.76 143.977 1014.48 143.847 1014.22 143.66C1013.98 143.467 1013.78 143.197 1013.63 142.85C1013.49 142.497 1013.41 142.043 1013.41 141.49C1013.41 141.35 1013.41 141.207 1013.41 141.06C1013.41 140.907 1013.41 140.747 1013.41 140.58V134.88H1010.82V133.38H1012.48C1012.71 133.38 1012.89 133.373 1013.01 133.36C1013.14 133.34 1013.23 133.297 1013.28 133.23C1013.34 133.157 1013.38 133.047 1013.39 132.9C1013.41 132.747 1013.41 132.537 1013.41 132.27V129.86H1015.12V133.38H1018.44V134.88H1015.12V140.03C1015.12 140.177 1015.12 140.32 1015.12 140.46C1015.12 140.6 1015.12 140.73 1015.12 140.85C1015.12 141.417 1015.19 141.86 1015.32 142.18C1015.46 142.5 1015.77 142.66 1016.25 142.66C1016.45 142.66 1016.63 142.643 1016.8 142.61C1016.98 142.577 1017.11 142.543 1017.19 142.51V143.99C1017.08 144.03 1016.92 144.067 1016.71 144.1C1016.51 144.14 1016.29 144.16 1016.03 144.16ZM1020.81 146.7L1020.55 146.22C1020.78 146.12 1021.02 145.947 1021.28 145.7C1021.54 145.453 1021.77 145.177 1021.95 144.87C1022.14 144.57 1022.23 144.287 1022.23 144.02C1022.23 143.947 1022.22 143.877 1022.2 143.81C1022.19 143.743 1022.17 143.68 1022.13 143.62H1022.6C1022.51 143.847 1022.36 144.01 1022.14 144.11C1021.93 144.21 1021.73 144.26 1021.53 144.26C1021.2 144.26 1020.92 144.163 1020.68 143.97C1020.45 143.777 1020.33 143.5 1020.33 143.14C1020.33 142.78 1020.46 142.493 1020.71 142.28C1020.97 142.067 1021.31 141.96 1021.71 141.96C1022.15 141.96 1022.49 142.09 1022.73 142.35C1022.99 142.61 1023.11 142.977 1023.11 143.45C1023.11 143.917 1022.99 144.373 1022.75 144.82C1022.51 145.267 1022.22 145.657 1021.86 145.99C1021.51 146.323 1021.16 146.56 1020.81 146.7ZM1039.73 130.75H1035.47L1035.86 129.78V144H1034.16V129.78L1034.64 130.75H1030.3V129.25H1039.73V130.75ZM1045.92 136.01L1045.91 137.4L1041.21 129.25H1043.12L1047.03 136.23H1045.88L1049.76 129.25H1051.67L1047.01 137.4L1047 136.01L1051.82 144H1049.9L1045.85 137.17H1047.06L1043 144H1041.09L1045.92 136.01ZM1064.94 130.77V130.79H1058.32V129.25H1066.89V130.71C1066.12 131.27 1065.47 131.943 1064.95 132.73C1064.43 133.517 1064.01 134.377 1063.68 135.31C1063.36 136.237 1063.12 137.197 1062.95 138.19C1062.79 139.183 1062.67 140.177 1062.61 141.17C1062.55 142.157 1062.52 143.1 1062.52 144H1060.81C1060.81 143.033 1060.85 142.047 1060.91 141.04C1060.98 140.027 1061.1 139.027 1061.26 138.04C1061.44 137.047 1061.68 136.1 1061.98 135.2C1062.3 134.293 1062.69 133.463 1063.17 132.71C1063.66 131.95 1064.25 131.303 1064.94 130.77ZM1073.21 144.2C1072.24 144.2 1071.44 143.927 1070.81 143.38C1070.18 142.827 1069.7 142.06 1069.39 141.08C1069.08 140.093 1068.93 138.947 1068.93 137.64C1068.93 136.06 1069.04 134.723 1069.27 133.63C1069.5 132.537 1069.81 131.657 1070.21 130.99C1070.62 130.317 1071.09 129.83 1071.62 129.53C1072.16 129.223 1072.74 129.07 1073.36 129.07C1074.09 129.07 1074.69 129.2 1075.16 129.46C1075.63 129.713 1076 130.037 1076.26 130.43C1076.52 130.823 1076.7 131.23 1076.8 131.65C1076.91 132.07 1076.96 132.443 1076.96 132.77C1076.96 132.777 1076.96 132.783 1076.96 132.79C1076.96 132.79 1076.96 132.797 1076.96 132.81H1075.36C1075.36 132.797 1075.36 132.79 1075.36 132.79C1075.36 132.783 1075.36 132.777 1075.36 132.77C1075.36 132.53 1075.33 132.283 1075.27 132.03C1075.22 131.77 1075.12 131.53 1074.97 131.31C1074.82 131.09 1074.62 130.913 1074.36 130.78C1074.1 130.647 1073.76 130.58 1073.35 130.58C1072.82 130.58 1072.34 130.803 1071.91 131.25C1071.49 131.69 1071.16 132.447 1070.91 133.52C1070.67 134.593 1070.55 136.08 1070.55 137.98H1069.73C1069.73 137.273 1069.9 136.66 1070.25 136.14C1070.6 135.613 1071.07 135.207 1071.65 134.92C1072.23 134.627 1072.86 134.48 1073.53 134.48C1074.37 134.48 1075.09 134.687 1075.68 135.1C1076.27 135.507 1076.72 136.07 1077.03 136.79C1077.34 137.503 1077.5 138.323 1077.5 139.25C1077.5 140.217 1077.34 141.073 1077.01 141.82C1076.68 142.567 1076.2 143.15 1075.56 143.57C1074.93 143.99 1074.14 144.2 1073.21 144.2ZM1073.22 142.7C1073.79 142.7 1074.26 142.567 1074.63 142.3C1075.01 142.033 1075.3 141.65 1075.49 141.15C1075.68 140.65 1075.78 140.053 1075.78 139.36C1075.78 138.707 1075.69 138.127 1075.5 137.62C1075.32 137.107 1075.05 136.707 1074.69 136.42C1074.34 136.127 1073.9 135.98 1073.38 135.98C1072.85 135.98 1072.38 136.107 1071.96 136.36C1071.55 136.613 1071.22 136.97 1070.98 137.43C1070.75 137.89 1070.63 138.433 1070.63 139.06C1070.63 139.727 1070.73 140.337 1070.94 140.89C1071.15 141.443 1071.45 141.883 1071.84 142.21C1072.23 142.537 1072.69 142.7 1073.22 142.7ZM1086.48 136.23C1087.06 136.25 1087.53 136.417 1087.89 136.73C1088.25 137.043 1088.51 137.457 1088.67 137.97C1088.83 138.477 1088.91 139.037 1088.91 139.65C1088.91 140.51 1088.75 141.283 1088.45 141.97C1088.15 142.657 1087.68 143.2 1087.06 143.6C1086.44 144 1085.65 144.2 1084.69 144.2C1083.89 144.2 1083.22 144.093 1082.67 143.88C1082.11 143.667 1081.66 143.357 1081.32 142.95C1080.98 142.543 1080.73 142.05 1080.57 141.47C1080.41 140.89 1080.33 140.237 1080.33 139.51C1080.33 139.503 1080.33 139.497 1080.33 139.49C1080.33 139.483 1080.33 139.477 1080.33 139.47H1082.04C1082.04 139.477 1082.04 139.483 1082.04 139.49C1082.04 139.497 1082.04 139.503 1082.04 139.51C1082.04 140.343 1082.14 140.993 1082.36 141.46C1082.57 141.92 1082.87 142.243 1083.27 142.43C1083.67 142.61 1084.15 142.7 1084.71 142.7C1085.47 142.7 1086.08 142.447 1086.52 141.94C1086.96 141.433 1087.19 140.657 1087.19 139.61C1087.19 139.263 1087.15 138.933 1087.08 138.62C1087.01 138.3 1086.88 138.02 1086.7 137.78C1086.52 137.533 1086.26 137.34 1085.93 137.2C1085.59 137.053 1085.16 136.98 1084.64 136.98H1084.09V135.59H1084.64C1085.15 135.59 1085.57 135.52 1085.9 135.38C1086.23 135.233 1086.49 135.043 1086.68 134.81C1086.86 134.57 1086.99 134.303 1087.07 134.01C1087.15 133.71 1087.19 133.407 1087.19 133.1C1087.19 132.213 1086.97 131.573 1086.53 131.18C1086.09 130.787 1085.49 130.59 1084.74 130.59C1083.92 130.59 1083.26 130.807 1082.77 131.24C1082.28 131.673 1082.04 132.453 1082.04 133.58H1080.33C1080.33 132.913 1080.41 132.303 1080.59 131.75C1080.77 131.197 1081.04 130.72 1081.4 130.32C1081.76 129.92 1082.21 129.613 1082.76 129.4C1083.31 129.18 1083.96 129.07 1084.71 129.07C1085.66 129.07 1086.45 129.243 1087.07 129.59C1087.69 129.937 1088.15 130.41 1088.45 131.01C1088.75 131.603 1088.91 132.273 1088.91 133.02C1088.91 133.567 1088.83 134.08 1088.67 134.56C1088.51 135.04 1088.25 135.433 1087.89 135.74C1087.53 136.04 1087.06 136.203 1086.48 136.23ZM1096.05 144.2C1095.24 144.2 1094.55 144.007 1093.98 143.62C1093.41 143.227 1092.95 142.687 1092.59 142C1092.24 141.307 1091.98 140.503 1091.81 139.59C1091.65 138.677 1091.57 137.7 1091.57 136.66C1091.57 135.62 1091.65 134.643 1091.81 133.73C1091.98 132.81 1092.24 132.003 1092.59 131.31C1092.95 130.61 1093.41 130.063 1093.98 129.67C1094.55 129.27 1095.24 129.07 1096.05 129.07C1096.86 129.07 1097.54 129.27 1098.11 129.67C1098.68 130.063 1099.15 130.61 1099.5 131.31C1099.85 132.003 1100.11 132.81 1100.28 133.73C1100.45 134.643 1100.53 135.62 1100.53 136.66C1100.53 137.7 1100.45 138.677 1100.28 139.59C1100.11 140.503 1099.85 141.307 1099.5 142C1099.15 142.687 1098.68 143.227 1098.11 143.62C1097.54 144.007 1096.86 144.2 1096.05 144.2ZM1096.05 142.7C1096.68 142.7 1097.19 142.47 1097.59 142.01C1098 141.55 1098.3 140.87 1098.5 139.97C1098.7 139.07 1098.8 137.967 1098.8 136.66C1098.8 135.347 1098.7 134.24 1098.5 133.34C1098.3 132.44 1098 131.76 1097.59 131.3C1097.19 130.833 1096.68 130.6 1096.05 130.6C1095.43 130.6 1094.91 130.833 1094.5 131.3C1094.09 131.76 1093.79 132.44 1093.59 133.34C1093.39 134.24 1093.29 135.347 1093.29 136.66C1093.29 137.973 1093.39 139.08 1093.59 139.98C1093.79 140.873 1094.09 141.55 1094.5 142.01C1094.91 142.47 1095.43 142.7 1096.05 142.7ZM1107.58 129.2V144H1105.88V131.05C1105.83 131.123 1105.66 131.22 1105.38 131.34C1105.11 131.46 1104.77 131.577 1104.36 131.69C1103.96 131.797 1103.53 131.873 1103.08 131.92V130.38C1103.53 130.307 1103.95 130.203 1104.34 130.07C1104.74 129.937 1105.08 129.793 1105.36 129.64C1105.64 129.48 1105.83 129.333 1105.92 129.2H1107.58Z" fill="#391400"/>
</svg>
