<svg width="502" height="304" viewBox="0 0 502 304" fill="none" xmlns="http://www.w3.org/2000/svg">
<path d="M26.712 6.864V60H13.968V18.564C13.632 18.78 12.948 19.068 11.916 19.428C10.884 19.788 9.66 20.124 8.244 20.436C6.852 20.748 5.424 20.952 3.96 21.048V11.184C5.448 11.04 6.9 10.74 8.316 10.284C9.756 9.804 11.004 9.264 12.06 8.664C13.116 8.04 13.824 7.44 14.184 6.864H26.712Z" fill="#391400"/>
<path d="M103.504 29.18L105.184 27.404V34.856L104.032 33.92H111.268V36.8H104.032L105.184 35.792V44H101.464V26.3H112.336V29.18H103.504ZM118.749 44.24C117.845 44.24 117.101 44.096 116.517 43.808C115.933 43.512 115.473 43.116 115.137 42.62C114.801 42.124 114.565 41.572 114.429 40.964C114.293 40.356 114.225 39.74 114.225 39.116C114.225 38.828 114.225 38.524 114.225 38.204C114.225 37.884 114.225 37.556 114.225 37.22V31.256H117.945V36.632C117.945 36.904 117.945 37.168 117.945 37.424C117.945 37.68 117.945 37.916 117.945 38.132C117.945 38.668 118.005 39.16 118.125 39.608C118.245 40.056 118.465 40.416 118.785 40.688C119.113 40.96 119.577 41.096 120.177 41.096C120.761 41.096 121.257 40.932 121.665 40.604C122.073 40.268 122.385 39.84 122.601 39.32C122.817 38.8 122.925 38.264 122.925 37.712L123.969 38.564C123.969 39.364 123.845 40.108 123.597 40.796C123.357 41.484 123.013 42.088 122.565 42.608C122.117 43.12 121.569 43.52 120.921 43.808C120.281 44.096 119.557 44.24 118.749 44.24ZM122.925 44V31.256H126.645V44H122.925ZM133.288 25.244V44H129.616V25.244H133.288ZM140.109 25.244V44H136.437V25.244H140.109ZM154.451 44.288C153.691 44.288 152.959 44.2 152.255 44.024C151.551 43.848 150.919 43.588 150.359 43.244C149.807 42.9 149.367 42.472 149.039 41.96C148.719 41.44 148.559 40.836 148.559 40.148C148.559 40.116 148.559 40.08 148.559 40.04C148.559 39.992 148.559 39.956 148.559 39.932H152.255C152.255 39.956 152.255 39.984 152.255 40.016C152.255 40.04 152.255 40.068 152.255 40.1C152.255 40.564 152.459 40.904 152.867 41.12C153.283 41.336 153.843 41.444 154.547 41.444C154.915 41.444 155.267 41.408 155.603 41.336C155.947 41.256 156.227 41.132 156.443 40.964C156.667 40.788 156.779 40.568 156.779 40.304C156.779 39.88 156.543 39.58 156.071 39.404C155.607 39.228 154.859 39.052 153.827 38.876C153.243 38.78 152.651 38.644 152.051 38.468C151.451 38.292 150.899 38.06 150.395 37.772C149.891 37.476 149.487 37.104 149.183 36.656C148.879 36.2 148.727 35.648 148.727 35C148.727 34.136 148.987 33.408 149.507 32.816C150.035 32.224 150.735 31.776 151.607 31.472C152.479 31.168 153.439 31.016 154.487 31.016C155.487 31.016 156.419 31.184 157.283 31.52C158.147 31.848 158.847 32.324 159.383 32.948C159.919 33.564 160.187 34.308 160.187 35.18C160.187 35.196 160.187 35.22 160.187 35.252C160.187 35.284 160.187 35.316 160.187 35.348H156.527C156.527 35.316 156.527 35.288 156.527 35.264C156.527 35.24 156.527 35.22 156.527 35.204C156.527 34.884 156.423 34.624 156.215 34.424C156.015 34.224 155.759 34.076 155.447 33.98C155.135 33.876 154.811 33.824 154.475 33.824C154.171 33.824 153.855 33.86 153.527 33.932C153.207 33.996 152.935 34.108 152.711 34.268C152.487 34.42 152.375 34.636 152.375 34.916C152.375 35.188 152.495 35.412 152.735 35.588C152.975 35.756 153.311 35.896 153.743 36.008C154.175 36.112 154.675 36.212 155.243 36.308C155.779 36.396 156.343 36.52 156.935 36.68C157.535 36.832 158.095 37.052 158.615 37.34C159.143 37.62 159.567 37.992 159.887 38.456C160.215 38.912 160.379 39.492 160.379 40.196C160.379 40.924 160.211 41.548 159.875 42.068C159.539 42.588 159.083 43.012 158.507 43.34C157.939 43.66 157.303 43.896 156.599 44.048C155.903 44.208 155.187 44.288 154.451 44.288ZM164.122 38.744V36.284H172.57L172.21 36.908C172.21 36.844 172.21 36.784 172.21 36.728C172.21 36.664 172.21 36.604 172.21 36.548C172.21 36.092 172.102 35.656 171.886 35.24C171.67 34.816 171.334 34.472 170.878 34.208C170.43 33.936 169.854 33.8 169.15 33.8C168.446 33.8 167.838 33.952 167.326 34.256C166.822 34.552 166.434 34.98 166.162 35.54C165.898 36.1 165.766 36.776 165.766 37.568C165.766 38.384 165.894 39.084 166.15 39.668C166.414 40.244 166.802 40.688 167.314 41C167.834 41.312 168.478 41.468 169.246 41.468C169.742 41.468 170.17 41.424 170.53 41.336C170.89 41.24 171.182 41.12 171.406 40.976C171.638 40.832 171.814 40.672 171.934 40.496C172.054 40.32 172.126 40.148 172.15 39.98H175.822C175.774 40.516 175.59 41.044 175.27 41.564C174.95 42.076 174.506 42.54 173.938 42.956C173.37 43.364 172.678 43.688 171.862 43.928C171.054 44.168 170.13 44.288 169.09 44.288C167.682 44.288 166.454 44.008 165.406 43.448C164.358 42.88 163.546 42.1 162.97 41.108C162.394 40.108 162.106 38.956 162.106 37.652C162.106 36.332 162.398 35.176 162.982 34.184C163.574 33.184 164.394 32.408 165.442 31.856C166.498 31.296 167.718 31.016 169.102 31.016C170.518 31.016 171.742 31.3 172.774 31.868C173.806 32.428 174.602 33.216 175.162 34.232C175.722 35.24 176.002 36.416 176.002 37.76C176.002 37.96 175.998 38.152 175.99 38.336C175.982 38.52 175.97 38.656 175.954 38.744H164.122ZM178.327 44V31.256H182.059V35.648L181.291 35.168C181.379 34.568 181.539 34.016 181.771 33.512C182.003 33.008 182.303 32.572 182.671 32.204C183.039 31.828 183.475 31.536 183.979 31.328C184.491 31.12 185.075 31.016 185.731 31.016C186.243 31.016 186.643 31.056 186.931 31.136C187.227 31.208 187.411 31.264 187.483 31.304L186.871 34.64C186.799 34.6 186.639 34.536 186.391 34.448C186.143 34.36 185.823 34.316 185.431 34.316C184.791 34.316 184.255 34.424 183.823 34.64C183.391 34.856 183.043 35.144 182.779 35.504C182.523 35.856 182.339 36.248 182.227 36.68C182.115 37.112 182.059 37.548 182.059 37.988V44H178.327ZM201.066 31.256L197.202 44H192.186L188.238 31.256H192.078L194.982 42.872H194.406L197.214 31.256H201.066ZM202.699 44V31.256H206.383V44H202.699ZM204.535 29.18C203.959 29.18 203.455 29.028 203.023 28.724C202.599 28.42 202.387 27.992 202.387 27.44C202.387 26.88 202.599 26.448 203.023 26.144C203.455 25.84 203.959 25.688 204.535 25.688C205.119 25.688 205.623 25.84 206.047 26.144C206.479 26.448 206.695 26.88 206.695 27.44C206.695 28 206.479 28.432 206.047 28.736C205.623 29.032 205.119 29.18 204.535 29.18ZM215.544 44.288C214.144 44.288 212.916 44.008 211.86 43.448C210.804 42.88 209.984 42.092 209.4 41.084C208.824 40.076 208.536 38.912 208.536 37.592C208.536 36.256 208.824 35.1 209.4 34.124C209.984 33.14 210.804 32.376 211.86 31.832C212.916 31.288 214.144 31.016 215.544 31.016C216.592 31.016 217.52 31.172 218.328 31.484C219.136 31.788 219.812 32.192 220.356 32.696C220.9 33.2 221.312 33.752 221.592 34.352C221.872 34.952 222.012 35.548 222.012 36.14C222.012 36.148 222.012 36.164 222.012 36.188C222.012 36.204 222.012 36.22 222.012 36.236H218.328C218.328 36.188 218.324 36.144 218.316 36.104C218.316 36.056 218.308 36.008 218.292 35.96C218.228 35.624 218.088 35.308 217.872 35.012C217.656 34.716 217.352 34.476 216.96 34.292C216.576 34.1 216.096 34.004 215.52 34.004C214.904 34.004 214.352 34.14 213.864 34.412C213.384 34.684 213.004 35.088 212.724 35.624C212.444 36.152 212.304 36.808 212.304 37.592C212.304 38.36 212.444 39.024 212.724 39.584C213.004 40.136 213.384 40.56 213.864 40.856C214.352 41.152 214.904 41.3 215.52 41.3C216.152 41.3 216.668 41.204 217.068 41.012C217.468 40.812 217.768 40.548 217.968 40.22C218.168 39.884 218.288 39.516 218.328 39.116H222.012C222.012 39.708 221.872 40.312 221.592 40.928C221.32 41.536 220.912 42.092 220.368 42.596C219.832 43.1 219.16 43.508 218.352 43.82C217.544 44.132 216.608 44.288 215.544 44.288ZM225.763 38.744V36.284H234.211L233.851 36.908C233.851 36.844 233.851 36.784 233.851 36.728C233.851 36.664 233.851 36.604 233.851 36.548C233.851 36.092 233.743 35.656 233.527 35.24C233.311 34.816 232.975 34.472 232.519 34.208C232.071 33.936 231.495 33.8 230.791 33.8C230.087 33.8 229.479 33.952 228.967 34.256C228.463 34.552 228.075 34.98 227.803 35.54C227.539 36.1 227.407 36.776 227.407 37.568C227.407 38.384 227.535 39.084 227.791 39.668C228.055 40.244 228.443 40.688 228.955 41C229.475 41.312 230.119 41.468 230.887 41.468C231.383 41.468 231.811 41.424 232.171 41.336C232.531 41.24 232.823 41.12 233.047 40.976C233.279 40.832 233.455 40.672 233.575 40.496C233.695 40.32 233.767 40.148 233.791 39.98H237.463C237.415 40.516 237.231 41.044 236.911 41.564C236.591 42.076 236.147 42.54 235.579 42.956C235.011 43.364 234.319 43.688 233.503 43.928C232.695 44.168 231.771 44.288 230.731 44.288C229.323 44.288 228.095 44.008 227.047 43.448C225.999 42.88 225.187 42.1 224.611 41.108C224.035 40.108 223.747 38.956 223.747 37.652C223.747 36.332 224.039 35.176 224.623 34.184C225.215 33.184 226.035 32.408 227.083 31.856C228.139 31.296 229.359 31.016 230.743 31.016C232.159 31.016 233.383 31.3 234.415 31.868C235.447 32.428 236.243 33.216 236.803 34.232C237.363 35.24 237.643 36.416 237.643 37.76C237.643 37.96 237.639 38.152 237.631 38.336C237.623 38.52 237.611 38.656 237.595 38.744H225.763ZM245.968 44V31.256H249.7V35.648L248.932 35.168C249.02 34.568 249.18 34.016 249.412 33.512C249.644 33.008 249.944 32.572 250.312 32.204C250.68 31.828 251.116 31.536 251.62 31.328C252.132 31.12 252.716 31.016 253.372 31.016C253.884 31.016 254.284 31.056 254.572 31.136C254.868 31.208 255.052 31.264 255.124 31.304L254.512 34.64C254.44 34.6 254.28 34.536 254.032 34.448C253.784 34.36 253.464 34.316 253.072 34.316C252.432 34.316 251.896 34.424 251.464 34.64C251.032 34.856 250.684 35.144 250.42 35.504C250.164 35.856 249.98 36.248 249.868 36.68C249.756 37.112 249.7 37.548 249.7 37.988V44H245.968ZM261.092 44.264C260.164 44.264 259.336 44.116 258.608 43.82C257.888 43.524 257.324 43.096 256.916 42.536C256.508 41.976 256.304 41.296 256.304 40.496C256.304 39.592 256.552 38.856 257.048 38.288C257.544 37.72 258.2 37.288 259.016 36.992C259.84 36.688 260.732 36.488 261.692 36.392C263.092 36.256 264.056 36.132 264.584 36.02C265.12 35.908 265.388 35.712 265.388 35.432C265.388 35.424 265.388 35.416 265.388 35.408C265.388 34.936 265.16 34.564 264.704 34.292C264.256 34.02 263.628 33.884 262.82 33.884C261.964 33.884 261.308 34.04 260.852 34.352C260.404 34.656 260.18 35.124 260.18 35.756H256.52C256.52 34.732 256.796 33.868 257.348 33.164C257.908 32.46 258.664 31.928 259.616 31.568C260.568 31.2 261.644 31.016 262.844 31.016C263.964 31.016 265 31.188 265.952 31.532C266.904 31.868 267.668 32.376 268.244 33.056C268.828 33.736 269.12 34.6 269.12 35.648C269.12 35.816 269.12 35.984 269.12 36.152C269.12 36.312 269.12 36.476 269.12 36.644V41.156C269.12 41.484 269.128 41.8 269.144 42.104C269.168 42.4 269.216 42.672 269.288 42.92C269.368 43.2 269.468 43.432 269.588 43.616C269.708 43.8 269.808 43.928 269.888 44H266.228C266.172 43.944 266.084 43.828 265.964 43.652C265.852 43.476 265.756 43.272 265.676 43.04C265.58 42.76 265.508 42.48 265.46 42.2C265.42 41.912 265.4 41.576 265.4 41.192L266.168 41.72C265.944 42.248 265.58 42.704 265.076 43.088C264.58 43.464 263.988 43.756 263.3 43.964C262.62 44.164 261.884 44.264 261.092 44.264ZM262.088 41.48C262.672 41.48 263.216 41.376 263.72 41.168C264.232 40.952 264.648 40.616 264.968 40.16C265.288 39.704 265.448 39.108 265.448 38.372V37.088L266.372 37.988C265.844 38.18 265.232 38.34 264.536 38.468C263.848 38.588 263.16 38.684 262.472 38.756C261.656 38.836 261.044 38.976 260.636 39.176C260.236 39.368 260.036 39.696 260.036 40.16C260.036 40.6 260.208 40.932 260.552 41.156C260.896 41.372 261.408 41.48 262.088 41.48ZM280.819 44V38.588C280.819 38.284 280.819 38.008 280.819 37.76C280.819 37.512 280.819 37.288 280.819 37.088C280.819 36.56 280.751 36.08 280.615 35.648C280.479 35.208 280.235 34.856 279.883 34.592C279.531 34.328 279.023 34.196 278.359 34.196C277.783 34.196 277.283 34.328 276.859 34.592C276.443 34.856 276.123 35.224 275.899 35.696C275.675 36.168 275.563 36.712 275.563 37.328L274.531 36.584C274.531 35.48 274.771 34.512 275.251 33.68C275.731 32.848 276.379 32.196 277.195 31.724C278.019 31.252 278.931 31.016 279.931 31.016C280.979 31.016 281.839 31.228 282.511 31.652C283.191 32.068 283.695 32.652 284.023 33.404C284.359 34.148 284.527 35.02 284.527 36.02C284.527 36.428 284.527 36.884 284.527 37.388C284.527 37.892 284.527 38.408 284.527 38.936V44H280.819ZM271.843 44V31.256H275.563V44H271.843ZM296.107 42.488C296.891 42.568 297.575 42.72 298.159 42.944C298.751 43.16 299.211 43.484 299.539 43.916C299.867 44.34 300.031 44.908 300.031 45.62C300.031 46.444 299.759 47.144 299.215 47.72C298.679 48.304 297.891 48.748 296.851 49.052C295.811 49.356 294.551 49.508 293.071 49.508C290.887 49.508 289.195 49.192 287.995 48.56C286.803 47.936 286.207 47.1 286.207 46.052C286.207 45.756 286.239 45.488 286.303 45.248C286.375 45.016 286.463 44.816 286.567 44.648L289.951 45.14C289.911 45.196 289.867 45.28 289.819 45.392C289.779 45.512 289.759 45.66 289.759 45.836C289.759 46.26 290.075 46.576 290.707 46.784C291.347 46.992 292.171 47.096 293.179 47.096C293.891 47.096 294.499 47.044 295.003 46.94C295.515 46.844 295.903 46.7 296.167 46.508C296.439 46.316 296.575 46.096 296.575 45.848C296.575 45.488 296.399 45.252 296.047 45.14C295.703 45.028 295.303 44.948 294.847 44.9L290.023 44.408C289.135 44.32 288.399 44.064 287.815 43.64C287.231 43.216 286.939 42.644 286.939 41.924C286.939 41.476 287.063 41.068 287.311 40.7C287.559 40.324 287.843 40.016 288.163 39.776C288.483 39.528 288.751 39.372 288.967 39.308L290.863 40.268C290.711 40.292 290.531 40.388 290.323 40.556C290.123 40.724 290.023 40.92 290.023 41.144C290.023 41.368 290.135 41.56 290.359 41.72C290.591 41.88 291.011 41.988 291.619 42.044L296.107 42.488ZM297.367 31.256H300.643L299.311 36.152C299.063 37.08 298.695 37.908 298.207 38.636C297.719 39.356 297.067 39.924 296.251 40.34C295.443 40.756 294.423 40.964 293.191 40.964C291.895 40.964 290.771 40.764 289.819 40.364C288.875 39.964 288.147 39.4 287.635 38.672C287.123 37.936 286.867 37.068 286.867 36.068C286.867 35.068 287.127 34.188 287.647 33.428C288.175 32.668 288.891 32.076 289.795 31.652C290.707 31.228 291.739 31.016 292.891 31.016C293.763 31.016 294.559 31.16 295.279 31.448C296.007 31.728 296.591 32.1 297.031 32.564C297.479 33.028 297.711 33.54 297.727 34.1L297.043 34.28L297.367 31.256ZM293.167 38.24C293.695 38.24 294.159 38.156 294.559 37.988C294.959 37.812 295.271 37.56 295.495 37.232C295.719 36.896 295.831 36.492 295.831 36.02C295.831 35.556 295.719 35.16 295.495 34.832C295.271 34.504 294.959 34.252 294.559 34.076C294.159 33.9 293.695 33.812 293.167 33.812C292.663 33.812 292.207 33.904 291.799 34.088C291.399 34.264 291.083 34.52 290.851 34.856C290.619 35.184 290.503 35.584 290.503 36.056C290.503 36.52 290.615 36.916 290.839 37.244C291.063 37.564 291.375 37.812 291.775 37.988C292.175 38.156 292.639 38.24 293.167 38.24ZM303.411 38.744V36.284H311.859L311.499 36.908C311.499 36.844 311.499 36.784 311.499 36.728C311.499 36.664 311.499 36.604 311.499 36.548C311.499 36.092 311.391 35.656 311.175 35.24C310.959 34.816 310.623 34.472 310.167 34.208C309.719 33.936 309.143 33.8 308.439 33.8C307.735 33.8 307.127 33.952 306.615 34.256C306.111 34.552 305.723 34.98 305.451 35.54C305.187 36.1 305.055 36.776 305.055 37.568C305.055 38.384 305.183 39.084 305.439 39.668C305.703 40.244 306.091 40.688 306.603 41C307.123 41.312 307.767 41.468 308.535 41.468C309.031 41.468 309.459 41.424 309.819 41.336C310.179 41.24 310.471 41.12 310.695 40.976C310.927 40.832 311.103 40.672 311.223 40.496C311.343 40.32 311.415 40.148 311.439 39.98H315.111C315.063 40.516 314.879 41.044 314.559 41.564C314.239 42.076 313.795 42.54 313.227 42.956C312.659 43.364 311.967 43.688 311.151 43.928C310.343 44.168 309.419 44.288 308.379 44.288C306.971 44.288 305.743 44.008 304.695 43.448C303.647 42.88 302.835 42.1 302.259 41.108C301.683 40.108 301.395 38.956 301.395 37.652C301.395 36.332 301.687 35.176 302.271 34.184C302.863 33.184 303.683 32.408 304.731 31.856C305.787 31.296 307.007 31.016 308.391 31.016C309.807 31.016 311.031 31.3 312.063 31.868C313.095 32.428 313.891 33.216 314.451 34.232C315.011 35.24 315.291 36.416 315.291 37.76C315.291 37.96 315.287 38.152 315.279 38.336C315.271 38.52 315.259 38.656 315.243 38.744H303.411ZM323.472 44V31.256H327.156V44H323.472ZM325.308 29.18C324.732 29.18 324.228 29.028 323.796 28.724C323.372 28.42 323.16 27.992 323.16 27.44C323.16 26.88 323.372 26.448 323.796 26.144C324.228 25.84 324.732 25.688 325.308 25.688C325.892 25.688 326.396 25.84 326.82 26.144C327.252 26.448 327.468 26.88 327.468 27.44C327.468 28 327.252 28.432 326.82 28.736C326.396 29.032 325.892 29.18 325.308 29.18ZM338.873 44V38.588C338.873 38.284 338.873 38.008 338.873 37.76C338.873 37.512 338.873 37.288 338.873 37.088C338.873 36.56 338.805 36.08 338.669 35.648C338.533 35.208 338.289 34.856 337.937 34.592C337.585 34.328 337.077 34.196 336.413 34.196C335.837 34.196 335.337 34.328 334.913 34.592C334.497 34.856 334.177 35.224 333.953 35.696C333.729 36.168 333.617 36.712 333.617 37.328L332.585 36.584C332.585 35.48 332.825 34.512 333.305 33.68C333.785 32.848 334.433 32.196 335.249 31.724C336.073 31.252 336.985 31.016 337.985 31.016C339.033 31.016 339.893 31.228 340.565 31.652C341.245 32.068 341.749 32.652 342.077 33.404C342.413 34.148 342.581 35.02 342.581 36.02C342.581 36.428 342.581 36.884 342.581 37.388C342.581 37.892 342.581 38.408 342.581 38.936V44H338.873ZM329.897 44V31.256H333.617V44H329.897ZM351.786 44.288C350.386 44.288 349.158 44.008 348.102 43.448C347.046 42.88 346.226 42.092 345.642 41.084C345.066 40.076 344.778 38.912 344.778 37.592C344.778 36.256 345.066 35.1 345.642 34.124C346.226 33.14 347.046 32.376 348.102 31.832C349.158 31.288 350.386 31.016 351.786 31.016C352.834 31.016 353.762 31.172 354.57 31.484C355.378 31.788 356.054 32.192 356.598 32.696C357.142 33.2 357.554 33.752 357.834 34.352C358.114 34.952 358.254 35.548 358.254 36.14C358.254 36.148 358.254 36.164 358.254 36.188C358.254 36.204 358.254 36.22 358.254 36.236H354.57C354.57 36.188 354.566 36.144 354.558 36.104C354.558 36.056 354.55 36.008 354.534 35.96C354.47 35.624 354.33 35.308 354.114 35.012C353.898 34.716 353.594 34.476 353.202 34.292C352.818 34.1 352.338 34.004 351.762 34.004C351.146 34.004 350.594 34.14 350.106 34.412C349.626 34.684 349.246 35.088 348.966 35.624C348.686 36.152 348.546 36.808 348.546 37.592C348.546 38.36 348.686 39.024 348.966 39.584C349.246 40.136 349.626 40.56 350.106 40.856C350.594 41.152 351.146 41.3 351.762 41.3C352.394 41.3 352.91 41.204 353.31 41.012C353.71 40.812 354.01 40.548 354.21 40.22C354.41 39.884 354.53 39.516 354.57 39.116H358.254C358.254 39.708 358.114 40.312 357.834 40.928C357.562 41.536 357.154 42.092 356.61 42.596C356.074 43.1 355.402 43.508 354.594 43.82C353.786 44.132 352.85 44.288 351.786 44.288ZM364.429 25.244V44H360.757V25.244H364.429ZM371.921 44.24C371.017 44.24 370.273 44.096 369.689 43.808C369.105 43.512 368.645 43.116 368.309 42.62C367.973 42.124 367.737 41.572 367.601 40.964C367.465 40.356 367.397 39.74 367.397 39.116C367.397 38.828 367.397 38.524 367.397 38.204C367.397 37.884 367.397 37.556 367.397 37.22V31.256H371.117V36.632C371.117 36.904 371.117 37.168 371.117 37.424C371.117 37.68 371.117 37.916 371.117 38.132C371.117 38.668 371.177 39.16 371.297 39.608C371.417 40.056 371.637 40.416 371.957 40.688C372.285 40.96 372.749 41.096 373.349 41.096C373.933 41.096 374.429 40.932 374.837 40.604C375.245 40.268 375.557 39.84 375.773 39.32C375.989 38.8 376.097 38.264 376.097 37.712L377.141 38.564C377.141 39.364 377.017 40.108 376.769 40.796C376.529 41.484 376.185 42.088 375.737 42.608C375.289 43.12 374.741 43.52 374.093 43.808C373.453 44.096 372.729 44.24 371.921 44.24ZM376.097 44V31.256H379.817V44H376.097ZM387.936 44.288C386.872 44.288 385.892 44.036 384.996 43.532C384.1 43.02 383.38 42.264 382.836 41.264C382.292 40.264 382.02 39.032 382.02 37.568C382.02 36.168 382.296 34.98 382.848 34.004C383.408 33.028 384.136 32.288 385.032 31.784C385.936 31.272 386.904 31.016 387.936 31.016C388.944 31.016 389.864 31.272 390.696 31.784C391.536 32.296 392.208 32.996 392.712 33.884C393.216 34.764 393.468 35.78 393.468 36.932C393.468 36.972 393.468 37.012 393.468 37.052C393.468 37.084 393.468 37.12 393.468 37.16L391.86 37.184C391.86 37.16 391.86 37.136 391.86 37.112C391.86 37.08 391.86 37.052 391.86 37.028C391.86 36.428 391.716 35.912 391.428 35.48C391.14 35.048 390.768 34.716 390.312 34.484C389.856 34.244 389.38 34.124 388.884 34.124C388.06 34.124 387.348 34.4 386.748 34.952C386.148 35.496 385.848 36.368 385.848 37.568C385.848 38.768 386.148 39.652 386.748 40.22C387.356 40.78 388.068 41.06 388.884 41.06C389.396 41.06 389.88 40.94 390.336 40.7C390.792 40.452 391.16 40.104 391.44 39.656C391.72 39.208 391.86 38.68 391.86 38.072L393.468 38.156C393.468 39.3 393.22 40.336 392.724 41.264C392.236 42.184 391.572 42.92 390.732 43.472C389.9 44.016 388.968 44.288 387.936 44.288ZM391.86 44V25.244H395.592V44H391.86ZM398.285 44V31.256H401.969V44H398.285ZM400.121 29.18C399.545 29.18 399.041 29.028 398.609 28.724C398.185 28.42 397.973 27.992 397.973 27.44C397.973 26.88 398.185 26.448 398.609 26.144C399.041 25.84 399.545 25.688 400.121 25.688C400.705 25.688 401.209 25.84 401.633 26.144C402.065 26.448 402.281 26.88 402.281 27.44C402.281 28 402.065 28.432 401.633 28.736C401.209 29.032 400.705 29.18 400.121 29.18ZM413.686 44V38.588C413.686 38.284 413.686 38.008 413.686 37.76C413.686 37.512 413.686 37.288 413.686 37.088C413.686 36.56 413.618 36.08 413.482 35.648C413.346 35.208 413.102 34.856 412.75 34.592C412.398 34.328 411.89 34.196 411.226 34.196C410.65 34.196 410.15 34.328 409.726 34.592C409.31 34.856 408.99 35.224 408.766 35.696C408.542 36.168 408.43 36.712 408.43 37.328L407.398 36.584C407.398 35.48 407.638 34.512 408.118 33.68C408.598 32.848 409.246 32.196 410.062 31.724C410.886 31.252 411.798 31.016 412.798 31.016C413.846 31.016 414.706 31.228 415.378 31.652C416.058 32.068 416.562 32.652 416.89 33.404C417.226 34.148 417.394 35.02 417.394 36.02C417.394 36.428 417.394 36.884 417.394 37.388C417.394 37.892 417.394 38.408 417.394 38.936V44H413.686ZM404.71 44V31.256H408.43V44H404.71ZM428.975 42.488C429.759 42.568 430.443 42.72 431.027 42.944C431.619 43.16 432.079 43.484 432.407 43.916C432.735 44.34 432.899 44.908 432.899 45.62C432.899 46.444 432.627 47.144 432.083 47.72C431.547 48.304 430.759 48.748 429.719 49.052C428.679 49.356 427.419 49.508 425.939 49.508C423.755 49.508 422.063 49.192 420.863 48.56C419.671 47.936 419.075 47.1 419.075 46.052C419.075 45.756 419.107 45.488 419.171 45.248C419.243 45.016 419.331 44.816 419.435 44.648L422.819 45.14C422.779 45.196 422.735 45.28 422.687 45.392C422.647 45.512 422.627 45.66 422.627 45.836C422.627 46.26 422.943 46.576 423.575 46.784C424.215 46.992 425.039 47.096 426.047 47.096C426.759 47.096 427.367 47.044 427.871 46.94C428.383 46.844 428.771 46.7 429.035 46.508C429.307 46.316 429.443 46.096 429.443 45.848C429.443 45.488 429.267 45.252 428.915 45.14C428.571 45.028 428.171 44.948 427.715 44.9L422.891 44.408C422.003 44.32 421.267 44.064 420.683 43.64C420.099 43.216 419.807 42.644 419.807 41.924C419.807 41.476 419.931 41.068 420.179 40.7C420.427 40.324 420.711 40.016 421.031 39.776C421.351 39.528 421.619 39.372 421.835 39.308L423.731 40.268C423.579 40.292 423.399 40.388 423.191 40.556C422.991 40.724 422.891 40.92 422.891 41.144C422.891 41.368 423.003 41.56 423.227 41.72C423.459 41.88 423.879 41.988 424.487 42.044L428.975 42.488ZM430.235 31.256H433.511L432.179 36.152C431.931 37.08 431.563 37.908 431.075 38.636C430.587 39.356 429.935 39.924 429.119 40.34C428.311 40.756 427.291 40.964 426.059 40.964C424.763 40.964 423.639 40.764 422.687 40.364C421.743 39.964 421.015 39.4 420.503 38.672C419.991 37.936 419.735 37.068 419.735 36.068C419.735 35.068 419.995 34.188 420.515 33.428C421.043 32.668 421.759 32.076 422.663 31.652C423.575 31.228 424.607 31.016 425.759 31.016C426.631 31.016 427.427 31.16 428.147 31.448C428.875 31.728 429.459 32.1 429.899 32.564C430.347 33.028 430.579 33.54 430.595 34.1L429.911 34.28L430.235 31.256ZM426.035 38.24C426.563 38.24 427.027 38.156 427.427 37.988C427.827 37.812 428.139 37.56 428.363 37.232C428.587 36.896 428.699 36.492 428.699 36.02C428.699 35.556 428.587 35.16 428.363 34.832C428.139 34.504 427.827 34.252 427.427 34.076C427.027 33.9 426.563 33.812 426.035 33.812C425.531 33.812 425.075 33.904 424.667 34.088C424.267 34.264 423.951 34.52 423.719 34.856C423.487 35.184 423.371 35.584 423.371 36.056C423.371 36.52 423.483 36.916 423.707 37.244C423.931 37.564 424.243 37.812 424.643 37.988C425.043 38.156 425.507 38.24 426.035 38.24Z" fill="#391400"/>
<path d="M2.808 172V161.56C3.024 161.224 3.672 160.6 4.752 159.688C5.856 158.752 7.188 157.66 8.748 156.412C10.332 155.164 11.976 153.88 13.68 152.56C15.384 151.216 16.956 149.968 18.396 148.816C20.076 147.496 21.708 146.116 23.292 144.676C24.876 143.236 26.184 141.712 27.216 140.104C28.248 138.496 28.764 136.792 28.764 134.992C28.764 132.904 28.26 131.188 27.252 129.844C26.244 128.5 24.624 127.828 22.392 127.828C20.568 127.828 19.128 128.236 18.072 129.052C17.04 129.868 16.308 130.996 15.876 132.436C15.444 133.876 15.228 135.556 15.228 137.476H2.376C2.376 133.444 3.168 129.976 4.752 127.072C6.336 124.168 8.628 121.936 11.628 120.376C14.652 118.816 18.3 118.036 22.572 118.036C26.796 118.036 30.324 118.804 33.156 120.34C35.988 121.852 38.112 123.904 39.528 126.496C40.944 129.064 41.652 131.932 41.652 135.1C41.652 137.284 41.232 139.3 40.392 141.148C39.576 142.972 38.508 144.652 37.188 146.188C35.868 147.724 34.464 149.116 32.976 150.364C31.488 151.588 30.072 152.704 28.728 153.712C26.472 155.392 24.564 156.832 23.004 158.032C21.444 159.232 20.22 160.204 19.332 160.948C18.468 161.668 17.928 162.184 17.712 162.496H41.112V172H2.808Z" fill="#391400"/>
<path d="M113.212 141.18H107.368L108.856 139.404V156H105.148V139.404L106.684 141.18H100.804V138.3H113.212V141.18ZM115.208 150.744V148.284H123.656L123.296 148.908C123.296 148.844 123.296 148.784 123.296 148.728C123.296 148.664 123.296 148.604 123.296 148.548C123.296 148.092 123.188 147.656 122.972 147.24C122.756 146.816 122.42 146.472 121.964 146.208C121.516 145.936 120.94 145.8 120.236 145.8C119.532 145.8 118.924 145.952 118.412 146.256C117.908 146.552 117.52 146.98 117.248 147.54C116.984 148.1 116.852 148.776 116.852 149.568C116.852 150.384 116.98 151.084 117.236 151.668C117.5 152.244 117.888 152.688 118.4 153C118.92 153.312 119.564 153.468 120.332 153.468C120.828 153.468 121.256 153.424 121.616 153.336C121.976 153.24 122.268 153.12 122.492 152.976C122.724 152.832 122.9 152.672 123.02 152.496C123.14 152.32 123.212 152.148 123.236 151.98H126.908C126.86 152.516 126.676 153.044 126.356 153.564C126.036 154.076 125.592 154.54 125.024 154.956C124.456 155.364 123.764 155.688 122.948 155.928C122.14 156.168 121.216 156.288 120.176 156.288C118.768 156.288 117.54 156.008 116.492 155.448C115.444 154.88 114.632 154.1 114.056 153.108C113.48 152.108 113.192 150.956 113.192 149.652C113.192 148.332 113.484 147.176 114.068 146.184C114.66 145.184 115.48 144.408 116.528 143.856C117.584 143.296 118.804 143.016 120.188 143.016C121.604 143.016 122.828 143.3 123.86 143.868C124.892 144.428 125.688 145.216 126.248 146.232C126.808 147.24 127.088 148.416 127.088 149.76C127.088 149.96 127.084 150.152 127.076 150.336C127.068 150.52 127.056 150.656 127.04 150.744H115.208ZM135.833 156.288C134.433 156.288 133.205 156.008 132.149 155.448C131.093 154.88 130.273 154.092 129.689 153.084C129.113 152.076 128.825 150.912 128.825 149.592C128.825 148.256 129.113 147.1 129.689 146.124C130.273 145.14 131.093 144.376 132.149 143.832C133.205 143.288 134.433 143.016 135.833 143.016C136.881 143.016 137.809 143.172 138.617 143.484C139.425 143.788 140.101 144.192 140.645 144.696C141.189 145.2 141.601 145.752 141.881 146.352C142.161 146.952 142.301 147.548 142.301 148.14C142.301 148.148 142.301 148.164 142.301 148.188C142.301 148.204 142.301 148.22 142.301 148.236H138.617C138.617 148.188 138.613 148.144 138.605 148.104C138.605 148.056 138.597 148.008 138.581 147.96C138.517 147.624 138.377 147.308 138.161 147.012C137.945 146.716 137.641 146.476 137.249 146.292C136.865 146.1 136.385 146.004 135.809 146.004C135.193 146.004 134.641 146.14 134.153 146.412C133.673 146.684 133.293 147.088 133.013 147.624C132.733 148.152 132.593 148.808 132.593 149.592C132.593 150.36 132.733 151.024 133.013 151.584C133.293 152.136 133.673 152.56 134.153 152.856C134.641 153.152 135.193 153.3 135.809 153.3C136.441 153.3 136.957 153.204 137.357 153.012C137.757 152.812 138.057 152.548 138.257 152.22C138.457 151.884 138.577 151.516 138.617 151.116H142.301C142.301 151.708 142.161 152.312 141.881 152.928C141.609 153.536 141.201 154.092 140.657 154.596C140.121 155.1 139.449 155.508 138.641 155.82C137.833 156.132 136.897 156.288 135.833 156.288ZM153.6 156V151.464C153.6 151.304 153.6 151.084 153.6 150.804C153.6 150.524 153.6 150.24 153.6 149.952C153.6 149.664 153.6 149.432 153.6 149.256C153.6 148.28 153.424 147.528 153.072 147C152.72 146.464 152.076 146.196 151.14 146.196C150.532 146.196 150.02 146.32 149.604 146.568C149.188 146.808 148.872 147.148 148.656 147.588C148.448 148.028 148.344 148.544 148.344 149.136L147.264 148.392C147.264 147.328 147.492 146.396 147.948 145.596C148.404 144.788 149.032 144.156 149.832 143.7C150.64 143.244 151.572 143.016 152.628 143.016C154.188 143.016 155.36 143.476 156.144 144.396C156.928 145.308 157.32 146.58 157.32 148.212C157.32 148.628 157.32 149.128 157.32 149.712C157.32 150.296 157.32 150.972 157.32 151.74V156H153.6ZM144.624 156V137.244H148.344V156H144.624ZM169.069 156V150.588C169.069 150.284 169.069 150.008 169.069 149.76C169.069 149.512 169.069 149.288 169.069 149.088C169.069 148.56 169.001 148.08 168.865 147.648C168.729 147.208 168.485 146.856 168.133 146.592C167.781 146.328 167.273 146.196 166.609 146.196C166.033 146.196 165.533 146.328 165.109 146.592C164.693 146.856 164.373 147.224 164.149 147.696C163.925 148.168 163.813 148.712 163.813 149.328L162.781 148.584C162.781 147.48 163.021 146.512 163.501 145.68C163.981 144.848 164.629 144.196 165.445 143.724C166.269 143.252 167.181 143.016 168.181 143.016C169.229 143.016 170.089 143.228 170.761 143.652C171.441 144.068 171.945 144.652 172.273 145.404C172.609 146.148 172.777 147.02 172.777 148.02C172.777 148.428 172.777 148.884 172.777 149.388C172.777 149.892 172.777 150.408 172.777 150.936V156H169.069ZM160.093 156V143.256H163.813V156H160.093ZM175.417 156V143.256H179.101V156H175.417ZM177.253 141.18C176.677 141.18 176.173 141.028 175.741 140.724C175.317 140.42 175.105 139.992 175.105 139.44C175.105 138.88 175.317 138.448 175.741 138.144C176.173 137.84 176.677 137.688 177.253 137.688C177.837 137.688 178.341 137.84 178.765 138.144C179.197 138.448 179.413 138.88 179.413 139.44C179.413 140 179.197 140.432 178.765 140.736C178.341 141.032 177.837 141.18 177.253 141.18ZM188.263 156.288C186.863 156.288 185.635 156.008 184.579 155.448C183.523 154.88 182.703 154.092 182.119 153.084C181.543 152.076 181.255 150.912 181.255 149.592C181.255 148.256 181.543 147.1 182.119 146.124C182.703 145.14 183.523 144.376 184.579 143.832C185.635 143.288 186.863 143.016 188.263 143.016C189.311 143.016 190.239 143.172 191.047 143.484C191.855 143.788 192.531 144.192 193.075 144.696C193.619 145.2 194.031 145.752 194.311 146.352C194.591 146.952 194.731 147.548 194.731 148.14C194.731 148.148 194.731 148.164 194.731 148.188C194.731 148.204 194.731 148.22 194.731 148.236H191.047C191.047 148.188 191.043 148.144 191.035 148.104C191.035 148.056 191.027 148.008 191.011 147.96C190.947 147.624 190.807 147.308 190.591 147.012C190.375 146.716 190.071 146.476 189.679 146.292C189.295 146.1 188.815 146.004 188.239 146.004C187.623 146.004 187.071 146.14 186.583 146.412C186.103 146.684 185.723 147.088 185.443 147.624C185.163 148.152 185.023 148.808 185.023 149.592C185.023 150.36 185.163 151.024 185.443 151.584C185.723 152.136 186.103 152.56 186.583 152.856C187.071 153.152 187.623 153.3 188.239 153.3C188.871 153.3 189.387 153.204 189.787 153.012C190.187 152.812 190.487 152.548 190.687 152.22C190.887 151.884 191.007 151.516 191.047 151.116H194.731C194.731 151.708 194.591 152.312 194.311 152.928C194.039 153.536 193.631 154.092 193.087 154.596C192.551 155.1 191.879 155.508 191.071 155.82C190.263 156.132 189.327 156.288 188.263 156.288ZM201.374 156.264C200.446 156.264 199.618 156.116 198.89 155.82C198.17 155.524 197.606 155.096 197.198 154.536C196.79 153.976 196.586 153.296 196.586 152.496C196.586 151.592 196.834 150.856 197.33 150.288C197.826 149.72 198.482 149.288 199.298 148.992C200.122 148.688 201.014 148.488 201.974 148.392C203.374 148.256 204.338 148.132 204.866 148.02C205.402 147.908 205.67 147.712 205.67 147.432C205.67 147.424 205.67 147.416 205.67 147.408C205.67 146.936 205.442 146.564 204.986 146.292C204.538 146.02 203.91 145.884 203.102 145.884C202.246 145.884 201.59 146.04 201.134 146.352C200.686 146.656 200.462 147.124 200.462 147.756H196.802C196.802 146.732 197.078 145.868 197.63 145.164C198.19 144.46 198.946 143.928 199.898 143.568C200.85 143.2 201.926 143.016 203.126 143.016C204.246 143.016 205.282 143.188 206.234 143.532C207.186 143.868 207.95 144.376 208.526 145.056C209.11 145.736 209.402 146.6 209.402 147.648C209.402 147.816 209.402 147.984 209.402 148.152C209.402 148.312 209.402 148.476 209.402 148.644V153.156C209.402 153.484 209.41 153.8 209.426 154.104C209.45 154.4 209.498 154.672 209.57 154.92C209.65 155.2 209.75 155.432 209.87 155.616C209.99 155.8 210.09 155.928 210.17 156H206.51C206.454 155.944 206.366 155.828 206.246 155.652C206.134 155.476 206.038 155.272 205.958 155.04C205.862 154.76 205.79 154.48 205.742 154.2C205.702 153.912 205.682 153.576 205.682 153.192L206.45 153.72C206.226 154.248 205.862 154.704 205.358 155.088C204.862 155.464 204.27 155.756 203.582 155.964C202.902 156.164 202.166 156.264 201.374 156.264ZM202.37 153.48C202.954 153.48 203.498 153.376 204.002 153.168C204.514 152.952 204.93 152.616 205.25 152.16C205.57 151.704 205.73 151.108 205.73 150.372V149.088L206.654 149.988C206.126 150.18 205.514 150.34 204.818 150.468C204.13 150.588 203.442 150.684 202.754 150.756C201.938 150.836 201.326 150.976 200.918 151.176C200.518 151.368 200.318 151.696 200.318 152.16C200.318 152.6 200.49 152.932 200.834 153.156C201.178 153.372 201.69 153.48 202.37 153.48ZM215.976 137.244V156H212.304V137.244H215.976ZM230.319 156.288C229.559 156.288 228.827 156.2 228.123 156.024C227.419 155.848 226.787 155.588 226.227 155.244C225.675 154.9 225.235 154.472 224.907 153.96C224.587 153.44 224.427 152.836 224.427 152.148C224.427 152.116 224.427 152.08 224.427 152.04C224.427 151.992 224.427 151.956 224.427 151.932H228.123C228.123 151.956 228.123 151.984 228.123 152.016C228.123 152.04 228.123 152.068 228.123 152.1C228.123 152.564 228.327 152.904 228.735 153.12C229.151 153.336 229.711 153.444 230.415 153.444C230.783 153.444 231.135 153.408 231.471 153.336C231.815 153.256 232.095 153.132 232.311 152.964C232.535 152.788 232.647 152.568 232.647 152.304C232.647 151.88 232.411 151.58 231.939 151.404C231.475 151.228 230.727 151.052 229.695 150.876C229.111 150.78 228.519 150.644 227.919 150.468C227.319 150.292 226.767 150.06 226.263 149.772C225.759 149.476 225.355 149.104 225.051 148.656C224.747 148.2 224.595 147.648 224.595 147C224.595 146.136 224.855 145.408 225.375 144.816C225.903 144.224 226.603 143.776 227.475 143.472C228.347 143.168 229.307 143.016 230.355 143.016C231.355 143.016 232.287 143.184 233.151 143.52C234.015 143.848 234.715 144.324 235.251 144.948C235.787 145.564 236.055 146.308 236.055 147.18C236.055 147.196 236.055 147.22 236.055 147.252C236.055 147.284 236.055 147.316 236.055 147.348H232.395C232.395 147.316 232.395 147.288 232.395 147.264C232.395 147.24 232.395 147.22 232.395 147.204C232.395 146.884 232.291 146.624 232.083 146.424C231.883 146.224 231.627 146.076 231.315 145.98C231.003 145.876 230.679 145.824 230.342 145.824C230.039 145.824 229.723 145.86 229.395 145.932C229.075 145.996 228.803 146.108 228.579 146.268C228.355 146.42 228.243 146.636 228.243 146.916C228.243 147.188 228.363 147.412 228.603 147.588C228.843 147.756 229.179 147.896 229.611 148.008C230.043 148.112 230.543 148.212 231.111 148.308C231.647 148.396 232.211 148.52 232.803 148.68C233.403 148.832 233.963 149.052 234.483 149.34C235.011 149.62 235.435 149.992 235.755 150.456C236.083 150.912 236.247 151.492 236.247 152.196C236.247 152.924 236.079 153.548 235.743 154.068C235.407 154.588 234.951 155.012 234.375 155.34C233.807 155.66 233.171 155.896 232.467 156.048C231.771 156.208 231.055 156.288 230.319 156.288ZM238.561 156V137.244H242.089V147.984L241.357 147.6L246.217 143.256H250.777L244.465 148.896L245.257 147.48L250.669 156H246.757L242.821 149.436L243.769 149.508L241.705 151.38L242.089 149.784V156H238.561ZM252.152 156V143.256H255.836V156H252.152ZM253.988 141.18C253.412 141.18 252.908 141.028 252.476 140.724C252.052 140.42 251.84 139.992 251.84 139.44C251.84 138.88 252.052 138.448 252.476 138.144C252.908 137.84 253.412 137.688 253.988 137.688C254.572 137.688 255.076 137.84 255.5 138.144C255.932 138.448 256.148 138.88 256.148 139.44C256.148 140 255.932 140.432 255.5 140.736C255.076 141.032 254.572 141.18 253.988 141.18ZM262.429 137.244V156H258.757V137.244H262.429ZM269.249 137.244V156H265.577V137.244H269.249ZM277.522 156.288C276.762 156.288 276.03 156.2 275.326 156.024C274.622 155.848 273.99 155.588 273.43 155.244C272.878 154.9 272.438 154.472 272.11 153.96C271.79 153.44 271.63 152.836 271.63 152.148C271.63 152.116 271.63 152.08 271.63 152.04C271.63 151.992 271.63 151.956 271.63 151.932H275.326C275.326 151.956 275.326 151.984 275.326 152.016C275.326 152.04 275.326 152.068 275.326 152.1C275.326 152.564 275.53 152.904 275.938 153.12C276.354 153.336 276.914 153.444 277.618 153.444C277.986 153.444 278.338 153.408 278.674 153.336C279.018 153.256 279.298 153.132 279.514 152.964C279.738 152.788 279.85 152.568 279.85 152.304C279.85 151.88 279.614 151.58 279.142 151.404C278.678 151.228 277.93 151.052 276.898 150.876C276.314 150.78 275.722 150.644 275.122 150.468C274.522 150.292 273.97 150.06 273.466 149.772C272.962 149.476 272.558 149.104 272.254 148.656C271.95 148.2 271.798 147.648 271.798 147C271.798 146.136 272.058 145.408 272.578 144.816C273.106 144.224 273.806 143.776 274.678 143.472C275.55 143.168 276.51 143.016 277.558 143.016C278.558 143.016 279.49 143.184 280.354 143.52C281.218 143.848 281.918 144.324 282.454 144.948C282.99 145.564 283.258 146.308 283.258 147.18C283.258 147.196 283.258 147.22 283.258 147.252C283.258 147.284 283.258 147.316 283.258 147.348H279.598C279.598 147.316 279.598 147.288 279.598 147.264C279.598 147.24 279.598 147.22 279.598 147.204C279.598 146.884 279.494 146.624 279.286 146.424C279.086 146.224 278.83 146.076 278.518 145.98C278.206 145.876 277.882 145.824 277.546 145.824C277.242 145.824 276.926 145.86 276.598 145.932C276.278 145.996 276.006 146.108 275.782 146.268C275.558 146.42 275.446 146.636 275.446 146.916C275.446 147.188 275.566 147.412 275.806 147.588C276.046 147.756 276.382 147.896 276.814 148.008C277.246 148.112 277.746 148.212 278.314 148.308C278.85 148.396 279.414 148.52 280.006 148.68C280.606 148.832 281.166 149.052 281.686 149.34C282.214 149.62 282.638 149.992 282.958 150.456C283.286 150.912 283.45 151.492 283.45 152.196C283.45 152.924 283.282 153.548 282.946 154.068C282.61 154.588 282.154 155.012 281.578 155.34C281.01 155.66 280.374 155.896 279.67 156.048C278.974 156.208 278.258 156.288 277.522 156.288ZM286.509 159.876L286.005 158.988C286.405 158.804 286.789 158.54 287.157 158.196C287.525 157.852 287.825 157.492 288.057 157.116C288.289 156.748 288.405 156.424 288.405 156.144C288.405 156.016 288.385 155.896 288.345 155.784C288.313 155.664 288.269 155.568 288.213 155.496H289.077C288.981 155.72 288.813 155.92 288.573 156.096C288.333 156.272 288.001 156.36 287.577 156.36C287.089 156.36 286.649 156.196 286.257 155.868C285.873 155.532 285.681 155.056 285.681 154.44C285.681 153.848 285.881 153.364 286.281 152.988C286.681 152.612 287.189 152.424 287.805 152.424C288.493 152.424 289.045 152.664 289.461 153.144C289.877 153.616 290.085 154.212 290.085 154.932C290.085 155.676 289.909 156.372 289.557 157.02C289.213 157.668 288.769 158.236 288.225 158.724C287.681 159.22 287.109 159.604 286.509 159.876ZM304.452 156.288C303.388 156.288 302.408 156.036 301.512 155.532C300.616 155.02 299.896 154.264 299.352 153.264C298.808 152.264 298.536 151.032 298.536 149.568C298.536 148.168 298.812 146.98 299.364 146.004C299.924 145.028 300.652 144.288 301.548 143.784C302.452 143.272 303.42 143.016 304.452 143.016C305.46 143.016 306.38 143.272 307.212 143.784C308.052 144.296 308.724 144.996 309.228 145.884C309.732 146.764 309.984 147.78 309.984 148.932C309.984 148.972 309.984 149.012 309.984 149.052C309.984 149.084 309.984 149.12 309.984 149.16L308.376 149.184C308.376 149.16 308.376 149.136 308.376 149.112C308.376 149.08 308.376 149.052 308.376 149.028C308.376 148.428 308.232 147.912 307.944 147.48C307.656 147.048 307.284 146.716 306.828 146.484C306.372 146.244 305.896 146.124 305.4 146.124C304.576 146.124 303.864 146.4 303.264 146.952C302.664 147.496 302.364 148.368 302.364 149.568C302.364 150.768 302.664 151.652 303.264 152.22C303.872 152.78 304.584 153.06 305.4 153.06C305.912 153.06 306.396 152.94 306.852 152.7C307.308 152.452 307.676 152.104 307.956 151.656C308.236 151.208 308.376 150.68 308.376 150.072L309.984 150.156C309.984 151.3 309.736 152.336 309.24 153.264C308.752 154.184 308.088 154.92 307.248 155.472C306.416 156.016 305.484 156.288 304.452 156.288ZM308.376 156V137.244H312.108V156H308.376ZM316.372 150.744V148.284H324.82L324.46 148.908C324.46 148.844 324.46 148.784 324.46 148.728C324.46 148.664 324.46 148.604 324.46 148.548C324.46 148.092 324.352 147.656 324.136 147.24C323.92 146.816 323.584 146.472 323.128 146.208C322.68 145.936 322.104 145.8 321.4 145.8C320.696 145.8 320.088 145.952 319.576 146.256C319.072 146.552 318.684 146.98 318.412 147.54C318.148 148.1 318.016 148.776 318.016 149.568C318.016 150.384 318.144 151.084 318.4 151.668C318.664 152.244 319.052 152.688 319.564 153C320.084 153.312 320.728 153.468 321.496 153.468C321.992 153.468 322.42 153.424 322.78 153.336C323.14 153.24 323.432 153.12 323.656 152.976C323.888 152.832 324.064 152.672 324.184 152.496C324.304 152.32 324.376 152.148 324.4 151.98H328.072C328.024 152.516 327.84 153.044 327.52 153.564C327.2 154.076 326.756 154.54 326.188 154.956C325.62 155.364 324.928 155.688 324.112 155.928C323.304 156.168 322.38 156.288 321.34 156.288C319.932 156.288 318.704 156.008 317.656 155.448C316.608 154.88 315.796 154.1 315.22 153.108C314.644 152.108 314.356 150.956 314.356 149.652C314.356 148.332 314.648 147.176 315.232 146.184C315.824 145.184 316.644 144.408 317.692 143.856C318.748 143.296 319.968 143.016 321.352 143.016C322.768 143.016 323.992 143.3 325.024 143.868C326.056 144.428 326.852 145.216 327.412 146.232C327.972 147.24 328.252 148.416 328.252 149.76C328.252 149.96 328.248 150.152 328.24 150.336C328.232 150.52 328.22 150.656 328.204 150.744H316.372ZM335.881 156.288C335.121 156.288 334.389 156.2 333.685 156.024C332.981 155.848 332.349 155.588 331.789 155.244C331.237 154.9 330.797 154.472 330.469 153.96C330.149 153.44 329.989 152.836 329.989 152.148C329.989 152.116 329.989 152.08 329.989 152.04C329.989 151.992 329.989 151.956 329.989 151.932H333.685C333.685 151.956 333.685 151.984 333.685 152.016C333.685 152.04 333.685 152.068 333.685 152.1C333.685 152.564 333.889 152.904 334.297 153.12C334.713 153.336 335.273 153.444 335.977 153.444C336.345 153.444 336.697 153.408 337.033 153.336C337.377 153.256 337.657 153.132 337.873 152.964C338.097 152.788 338.209 152.568 338.209 152.304C338.209 151.88 337.973 151.58 337.501 151.404C337.037 151.228 336.289 151.052 335.257 150.876C334.673 150.78 334.081 150.644 333.481 150.468C332.881 150.292 332.329 150.06 331.825 149.772C331.321 149.476 330.917 149.104 330.613 148.656C330.309 148.2 330.157 147.648 330.157 147C330.157 146.136 330.417 145.408 330.937 144.816C331.465 144.224 332.165 143.776 333.037 143.472C333.909 143.168 334.869 143.016 335.917 143.016C336.917 143.016 337.849 143.184 338.713 143.52C339.577 143.848 340.277 144.324 340.813 144.948C341.349 145.564 341.617 146.308 341.617 147.18C341.617 147.196 341.617 147.22 341.617 147.252C341.617 147.284 341.617 147.316 341.617 147.348H337.957C337.957 147.316 337.957 147.288 337.957 147.264C337.957 147.24 337.957 147.22 337.957 147.204C337.957 146.884 337.853 146.624 337.645 146.424C337.445 146.224 337.189 146.076 336.877 145.98C336.565 145.876 336.241 145.824 335.905 145.824C335.601 145.824 335.285 145.86 334.957 145.932C334.637 145.996 334.365 146.108 334.141 146.268C333.917 146.42 333.805 146.636 333.805 146.916C333.805 147.188 333.925 147.412 334.165 147.588C334.405 147.756 334.741 147.896 335.173 148.008C335.605 148.112 336.105 148.212 336.673 148.308C337.209 148.396 337.773 148.52 338.365 148.68C338.965 148.832 339.525 149.052 340.045 149.34C340.573 149.62 340.997 149.992 341.317 150.456C341.645 150.912 341.809 151.492 341.809 152.196C341.809 152.924 341.641 153.548 341.305 154.068C340.969 154.588 340.513 155.012 339.937 155.34C339.369 155.66 338.733 155.896 338.029 156.048C337.333 156.208 336.617 156.288 335.881 156.288ZM343.98 156V143.256H347.664V156H343.98ZM345.816 141.18C345.24 141.18 344.736 141.028 344.304 140.724C343.88 140.42 343.668 139.992 343.668 139.44C343.668 138.88 343.88 138.448 344.304 138.144C344.736 137.84 345.24 137.688 345.816 137.688C346.4 137.688 346.904 137.84 347.328 138.144C347.76 138.448 347.976 138.88 347.976 139.44C347.976 140 347.76 140.432 347.328 140.736C346.904 141.032 346.4 141.18 345.816 141.18ZM359.201 154.488C359.985 154.568 360.669 154.72 361.253 154.944C361.845 155.16 362.305 155.484 362.633 155.916C362.961 156.34 363.125 156.908 363.125 157.62C363.125 158.444 362.853 159.144 362.309 159.72C361.773 160.304 360.985 160.748 359.945 161.052C358.905 161.356 357.645 161.508 356.165 161.508C353.981 161.508 352.289 161.192 351.089 160.56C349.897 159.936 349.301 159.1 349.301 158.052C349.301 157.756 349.333 157.488 349.397 157.248C349.469 157.016 349.557 156.816 349.661 156.648L353.045 157.14C353.005 157.196 352.961 157.28 352.913 157.392C352.873 157.512 352.853 157.66 352.853 157.836C352.853 158.26 353.169 158.576 353.801 158.784C354.441 158.992 355.265 159.096 356.273 159.096C356.985 159.096 357.593 159.044 358.097 158.94C358.609 158.844 358.997 158.7 359.261 158.508C359.533 158.316 359.669 158.096 359.669 157.848C359.669 157.488 359.493 157.252 359.141 157.14C358.797 157.028 358.397 156.948 357.941 156.9L353.117 156.408C352.229 156.32 351.493 156.064 350.909 155.64C350.325 155.216 350.033 154.644 350.033 153.924C350.033 153.476 350.157 153.068 350.405 152.7C350.653 152.324 350.937 152.016 351.257 151.776C351.577 151.528 351.845 151.372 352.061 151.308L353.957 152.268C353.805 152.292 353.625 152.388 353.417 152.556C353.217 152.724 353.117 152.92 353.117 153.144C353.117 153.368 353.229 153.56 353.453 153.72C353.685 153.88 354.105 153.988 354.713 154.044L359.201 154.488ZM360.461 143.256H363.737L362.405 148.152C362.157 149.08 361.789 149.908 361.301 150.636C360.813 151.356 360.161 151.924 359.345 152.34C358.537 152.756 357.517 152.964 356.285 152.964C354.989 152.964 353.865 152.764 352.913 152.364C351.969 151.964 351.241 151.4 350.729 150.672C350.217 149.936 349.961 149.068 349.961 148.068C349.961 147.068 350.221 146.188 350.741 145.428C351.269 144.668 351.985 144.076 352.889 143.652C353.801 143.228 354.833 143.016 355.985 143.016C356.857 143.016 357.653 143.16 358.373 143.448C359.101 143.728 359.685 144.1 360.125 144.564C360.573 145.028 360.805 145.54 360.821 146.1L360.137 146.28L360.461 143.256ZM356.261 150.24C356.789 150.24 357.253 150.156 357.653 149.988C358.053 149.812 358.365 149.56 358.589 149.232C358.813 148.896 358.925 148.492 358.925 148.02C358.925 147.556 358.813 147.16 358.589 146.832C358.365 146.504 358.053 146.252 357.653 146.076C357.253 145.9 356.789 145.812 356.261 145.812C355.757 145.812 355.301 145.904 354.893 146.088C354.493 146.264 354.177 146.52 353.945 146.856C353.713 147.184 353.597 147.584 353.597 148.056C353.597 148.52 353.709 148.916 353.933 149.244C354.157 149.564 354.469 149.812 354.869 149.988C355.269 150.156 355.733 150.24 356.261 150.24ZM374.522 156V150.588C374.522 150.284 374.522 150.008 374.522 149.76C374.522 149.512 374.522 149.288 374.522 149.088C374.522 148.56 374.454 148.08 374.318 147.648C374.182 147.208 373.938 146.856 373.586 146.592C373.234 146.328 372.726 146.196 372.062 146.196C371.486 146.196 370.986 146.328 370.562 146.592C370.146 146.856 369.826 147.224 369.602 147.696C369.378 148.168 369.266 148.712 369.266 149.328L368.234 148.584C368.234 147.48 368.474 146.512 368.954 145.68C369.434 144.848 370.082 144.196 370.898 143.724C371.722 143.252 372.634 143.016 373.634 143.016C374.682 143.016 375.542 143.228 376.214 143.652C376.894 144.068 377.398 144.652 377.726 145.404C378.062 146.148 378.23 147.02 378.23 148.02C378.23 148.428 378.23 148.884 378.23 149.388C378.23 149.892 378.23 150.408 378.23 150.936V156H374.522ZM365.546 156V143.256H369.266V156H365.546ZM381.759 159.876L381.255 158.988C381.655 158.804 382.039 158.54 382.407 158.196C382.775 157.852 383.075 157.492 383.307 157.116C383.539 156.748 383.655 156.424 383.655 156.144C383.655 156.016 383.635 155.896 383.595 155.784C383.563 155.664 383.519 155.568 383.463 155.496H384.327C384.231 155.72 384.063 155.92 383.823 156.096C383.583 156.272 383.251 156.36 382.827 156.36C382.339 156.36 381.899 156.196 381.507 155.868C381.123 155.532 380.931 155.056 380.931 154.44C380.931 153.848 381.131 153.364 381.531 152.988C381.931 152.612 382.439 152.424 383.055 152.424C383.743 152.424 384.295 152.664 384.711 153.144C385.127 153.616 385.335 154.212 385.335 154.932C385.335 155.676 385.159 156.372 384.807 157.02C384.463 157.668 384.019 158.236 383.475 158.724C382.931 159.22 382.359 159.604 381.759 159.876ZM401.972 156.276C400.964 156.276 400.04 156.008 399.2 155.472C398.36 154.936 397.688 154.212 397.184 153.3C396.68 152.38 396.428 151.348 396.428 150.204C396.428 150.172 396.428 150.144 396.428 150.12C396.428 150.088 396.428 150.052 396.428 150.012L398.036 149.976C398.036 150 398.036 150.024 398.036 150.048C398.036 150.072 398.036 150.096 398.036 150.12C398.036 150.712 398.18 151.232 398.468 151.68C398.756 152.12 399.128 152.46 399.584 152.7C400.04 152.94 400.516 153.06 401.012 153.06C401.828 153.06 402.536 152.78 403.136 152.22C403.744 151.652 404.048 150.768 404.048 149.568C404.048 148.368 403.748 147.496 403.148 146.952C402.548 146.4 401.836 146.124 401.012 146.124C400.516 146.124 400.04 146.244 399.584 146.484C399.128 146.716 398.756 147.048 398.468 147.48C398.18 147.912 398.036 148.428 398.036 149.028L396.428 148.932C396.428 147.78 396.68 146.764 397.184 145.884C397.688 144.996 398.36 144.3 399.2 143.796C400.04 143.284 400.964 143.028 401.972 143.028C403.004 143.028 403.968 143.28 404.864 143.784C405.76 144.288 406.484 145.028 407.036 146.004C407.596 146.98 407.876 148.168 407.876 149.568C407.876 151.032 407.604 152.264 407.06 153.264C406.516 154.256 405.796 155.008 404.9 155.52C404.004 156.024 403.028 156.276 401.972 156.276ZM394.304 156V137.244H398.036V156H394.304ZM414.718 156.24C413.814 156.24 413.07 156.096 412.486 155.808C411.902 155.512 411.442 155.116 411.106 154.62C410.77 154.124 410.534 153.572 410.398 152.964C410.262 152.356 410.194 151.74 410.194 151.116C410.194 150.828 410.194 150.524 410.194 150.204C410.194 149.884 410.194 149.556 410.194 149.22V143.256H413.914V148.632C413.914 148.904 413.914 149.168 413.914 149.424C413.914 149.68 413.914 149.916 413.914 150.132C413.914 150.668 413.974 151.16 414.094 151.608C414.214 152.056 414.434 152.416 414.754 152.688C415.082 152.96 415.546 153.096 416.146 153.096C416.73 153.096 417.226 152.932 417.634 152.604C418.042 152.268 418.354 151.84 418.57 151.32C418.786 150.8 418.894 150.264 418.894 149.712L419.938 150.564C419.938 151.364 419.814 152.108 419.566 152.796C419.326 153.484 418.982 154.088 418.534 154.608C418.086 155.12 417.538 155.52 416.89 155.808C416.25 156.096 415.526 156.24 414.718 156.24ZM418.894 156V143.256H422.614V156H418.894ZM430.709 156.288C429.949 156.288 429.217 156.2 428.513 156.024C427.809 155.848 427.177 155.588 426.617 155.244C426.065 154.9 425.625 154.472 425.297 153.96C424.977 153.44 424.817 152.836 424.817 152.148C424.817 152.116 424.817 152.08 424.817 152.04C424.817 151.992 424.817 151.956 424.817 151.932H428.513C428.513 151.956 428.513 151.984 428.513 152.016C428.513 152.04 428.513 152.068 428.513 152.1C428.513 152.564 428.717 152.904 429.125 153.12C429.541 153.336 430.101 153.444 430.805 153.444C431.173 153.444 431.525 153.408 431.861 153.336C432.205 153.256 432.485 153.132 432.701 152.964C432.925 152.788 433.037 152.568 433.037 152.304C433.037 151.88 432.801 151.58 432.329 151.404C431.865 151.228 431.117 151.052 430.085 150.876C429.501 150.78 428.909 150.644 428.309 150.468C427.709 150.292 427.157 150.06 426.653 149.772C426.149 149.476 425.745 149.104 425.441 148.656C425.137 148.2 424.985 147.648 424.985 147C424.985 146.136 425.245 145.408 425.765 144.816C426.293 144.224 426.993 143.776 427.865 143.472C428.737 143.168 429.697 143.016 430.745 143.016C431.745 143.016 432.677 143.184 433.541 143.52C434.405 143.848 435.105 144.324 435.641 144.948C436.177 145.564 436.445 146.308 436.445 147.18C436.445 147.196 436.445 147.22 436.445 147.252C436.445 147.284 436.445 147.316 436.445 147.348H432.785C432.785 147.316 432.785 147.288 432.785 147.264C432.785 147.24 432.785 147.22 432.785 147.204C432.785 146.884 432.681 146.624 432.473 146.424C432.273 146.224 432.017 146.076 431.705 145.98C431.393 145.876 431.069 145.824 430.733 145.824C430.429 145.824 430.113 145.86 429.785 145.932C429.465 145.996 429.193 146.108 428.969 146.268C428.745 146.42 428.633 146.636 428.633 146.916C428.633 147.188 428.753 147.412 428.993 147.588C429.233 147.756 429.569 147.896 430.001 148.008C430.433 148.112 430.933 148.212 431.501 148.308C432.037 148.396 432.601 148.52 433.193 148.68C433.793 148.832 434.353 149.052 434.873 149.34C435.401 149.62 435.825 149.992 436.145 150.456C436.473 150.912 436.637 151.492 436.637 152.196C436.637 152.924 436.469 153.548 436.133 154.068C435.797 154.588 435.341 155.012 434.765 155.34C434.197 155.66 433.561 155.896 432.857 156.048C432.161 156.208 431.445 156.288 430.709 156.288ZM438.808 156V143.256H442.492V156H438.808ZM440.644 141.18C440.068 141.18 439.564 141.028 439.132 140.724C438.708 140.42 438.496 139.992 438.496 139.44C438.496 138.88 438.708 138.448 439.132 138.144C439.564 137.84 440.068 137.688 440.644 137.688C441.228 137.688 441.732 137.84 442.156 138.144C442.588 138.448 442.804 138.88 442.804 139.44C442.804 140 442.588 140.432 442.156 140.736C441.732 141.032 441.228 141.18 440.644 141.18ZM454.209 156V150.588C454.209 150.284 454.209 150.008 454.209 149.76C454.209 149.512 454.209 149.288 454.209 149.088C454.209 148.56 454.141 148.08 454.005 147.648C453.869 147.208 453.625 146.856 453.273 146.592C452.921 146.328 452.413 146.196 451.749 146.196C451.173 146.196 450.673 146.328 450.249 146.592C449.833 146.856 449.513 147.224 449.289 147.696C449.065 148.168 448.953 148.712 448.953 149.328L447.921 148.584C447.921 147.48 448.161 146.512 448.641 145.68C449.121 144.848 449.769 144.196 450.585 143.724C451.409 143.252 452.321 143.016 453.321 143.016C454.369 143.016 455.229 143.228 455.901 143.652C456.581 144.068 457.085 144.652 457.413 145.404C457.749 146.148 457.917 147.02 457.917 148.02C457.917 148.428 457.917 148.884 457.917 149.388C457.917 149.892 457.917 150.408 457.917 150.936V156H454.209ZM445.233 156V143.256H448.953V156H445.233ZM462.13 150.744V148.284H470.578L470.218 148.908C470.218 148.844 470.218 148.784 470.218 148.728C470.218 148.664 470.218 148.604 470.218 148.548C470.218 148.092 470.11 147.656 469.894 147.24C469.678 146.816 469.342 146.472 468.886 146.208C468.438 145.936 467.862 145.8 467.158 145.8C466.454 145.8 465.846 145.952 465.334 146.256C464.83 146.552 464.442 146.98 464.17 147.54C463.906 148.1 463.774 148.776 463.774 149.568C463.774 150.384 463.902 151.084 464.158 151.668C464.422 152.244 464.81 152.688 465.322 153C465.842 153.312 466.486 153.468 467.254 153.468C467.75 153.468 468.178 153.424 468.538 153.336C468.898 153.24 469.19 153.12 469.414 152.976C469.646 152.832 469.822 152.672 469.942 152.496C470.062 152.32 470.134 152.148 470.158 151.98H473.83C473.782 152.516 473.598 153.044 473.278 153.564C472.958 154.076 472.514 154.54 471.946 154.956C471.378 155.364 470.686 155.688 469.87 155.928C469.062 156.168 468.138 156.288 467.098 156.288C465.69 156.288 464.462 156.008 463.414 155.448C462.366 154.88 461.554 154.1 460.978 153.108C460.402 152.108 460.114 150.956 460.114 149.652C460.114 148.332 460.406 147.176 460.99 146.184C461.582 145.184 462.402 144.408 463.45 143.856C464.506 143.296 465.726 143.016 467.11 143.016C468.526 143.016 469.75 143.3 470.782 143.868C471.814 144.428 472.61 145.216 473.17 146.232C473.73 147.24 474.01 148.416 474.01 149.76C474.01 149.96 474.006 150.152 473.998 150.336C473.99 150.52 473.978 150.656 473.962 150.744H462.13ZM481.639 156.288C480.879 156.288 480.147 156.2 479.443 156.024C478.739 155.848 478.107 155.588 477.547 155.244C476.995 154.9 476.555 154.472 476.227 153.96C475.907 153.44 475.747 152.836 475.747 152.148C475.747 152.116 475.747 152.08 475.747 152.04C475.747 151.992 475.747 151.956 475.747 151.932H479.443C479.443 151.956 479.443 151.984 479.443 152.016C479.443 152.04 479.443 152.068 479.443 152.1C479.443 152.564 479.647 152.904 480.055 153.12C480.471 153.336 481.031 153.444 481.735 153.444C482.103 153.444 482.455 153.408 482.791 153.336C483.135 153.256 483.415 153.132 483.631 152.964C483.855 152.788 483.967 152.568 483.967 152.304C483.967 151.88 483.731 151.58 483.259 151.404C482.795 151.228 482.047 151.052 481.015 150.876C480.431 150.78 479.839 150.644 479.239 150.468C478.639 150.292 478.087 150.06 477.583 149.772C477.079 149.476 476.675 149.104 476.371 148.656C476.067 148.2 475.915 147.648 475.915 147C475.915 146.136 476.175 145.408 476.695 144.816C477.223 144.224 477.923 143.776 478.795 143.472C479.667 143.168 480.627 143.016 481.675 143.016C482.675 143.016 483.607 143.184 484.471 143.52C485.335 143.848 486.035 144.324 486.571 144.948C487.107 145.564 487.375 146.308 487.375 147.18C487.375 147.196 487.375 147.22 487.375 147.252C487.375 147.284 487.375 147.316 487.375 147.348H483.715C483.715 147.316 483.715 147.288 483.715 147.264C483.715 147.24 483.715 147.22 483.715 147.204C483.715 146.884 483.611 146.624 483.403 146.424C483.203 146.224 482.947 146.076 482.635 145.98C482.323 145.876 481.999 145.824 481.663 145.824C481.359 145.824 481.043 145.86 480.715 145.932C480.395 145.996 480.123 146.108 479.899 146.268C479.675 146.42 479.563 146.636 479.563 146.916C479.563 147.188 479.683 147.412 479.923 147.588C480.163 147.756 480.499 147.896 480.931 148.008C481.363 148.112 481.863 148.212 482.431 148.308C482.967 148.396 483.531 148.52 484.123 148.68C484.723 148.832 485.283 149.052 485.803 149.34C486.331 149.62 486.755 149.992 487.075 150.456C487.403 150.912 487.567 151.492 487.567 152.196C487.567 152.924 487.399 153.548 487.063 154.068C486.727 154.588 486.271 155.012 485.695 155.34C485.127 155.66 484.491 155.896 483.787 156.048C483.091 156.208 482.375 156.288 481.639 156.288ZM495.186 156.288C494.426 156.288 493.694 156.2 492.99 156.024C492.286 155.848 491.654 155.588 491.094 155.244C490.542 154.9 490.102 154.472 489.774 153.96C489.454 153.44 489.294 152.836 489.294 152.148C489.294 152.116 489.294 152.08 489.294 152.04C489.294 151.992 489.294 151.956 489.294 151.932H492.99C492.99 151.956 492.99 151.984 492.99 152.016C492.99 152.04 492.99 152.068 492.99 152.1C492.99 152.564 493.194 152.904 493.602 153.12C494.018 153.336 494.578 153.444 495.282 153.444C495.65 153.444 496.002 153.408 496.338 153.336C496.682 153.256 496.962 153.132 497.178 152.964C497.402 152.788 497.514 152.568 497.514 152.304C497.514 151.88 497.278 151.58 496.806 151.404C496.342 151.228 495.594 151.052 494.562 150.876C493.978 150.78 493.386 150.644 492.786 150.468C492.186 150.292 491.634 150.06 491.13 149.772C490.626 149.476 490.222 149.104 489.918 148.656C489.614 148.2 489.462 147.648 489.462 147C489.462 146.136 489.722 145.408 490.242 144.816C490.77 144.224 491.47 143.776 492.342 143.472C493.214 143.168 494.174 143.016 495.222 143.016C496.222 143.016 497.154 143.184 498.018 143.52C498.882 143.848 499.582 144.324 500.118 144.948C500.654 145.564 500.922 146.308 500.922 147.18C500.922 147.196 500.922 147.22 500.922 147.252C500.922 147.284 500.922 147.316 500.922 147.348H497.262C497.262 147.316 497.262 147.288 497.262 147.264C497.262 147.24 497.262 147.22 497.262 147.204C497.262 146.884 497.158 146.624 496.95 146.424C496.75 146.224 496.494 146.076 496.182 145.98C495.87 145.876 495.546 145.824 495.21 145.824C494.906 145.824 494.59 145.86 494.262 145.932C493.942 145.996 493.67 146.108 493.446 146.268C493.222 146.42 493.11 146.636 493.11 146.916C493.11 147.188 493.23 147.412 493.47 147.588C493.71 147.756 494.046 147.896 494.478 148.008C494.91 148.112 495.41 148.212 495.978 148.308C496.514 148.396 497.078 148.52 497.67 148.68C498.27 148.832 498.83 149.052 499.35 149.34C499.878 149.62 500.302 149.992 500.622 150.456C500.95 150.912 501.114 151.492 501.114 152.196C501.114 152.924 500.946 153.548 500.61 154.068C500.274 154.588 499.818 155.012 499.242 155.34C498.674 155.66 498.038 155.896 497.334 156.048C496.638 156.208 495.922 156.288 495.186 156.288Z" fill="#391400"/>
<path d="M31.356 255.992C33.42 256.064 35.244 256.652 36.828 257.756C38.436 258.836 39.684 260.288 40.572 262.112C41.46 263.936 41.904 266.012 41.904 268.34C41.904 271.244 41.232 273.956 39.888 276.476C38.568 278.996 36.492 281.036 33.66 282.596C30.828 284.132 27.18 284.9 22.716 284.9C18.852 284.9 15.66 284.408 13.14 283.424C10.62 282.416 8.628 281.048 7.164 279.32C5.7 277.592 4.668 275.648 4.068 273.488C3.468 271.304 3.168 269.024 3.168 266.648C3.168 266.624 3.168 266.6 3.168 266.576C3.168 266.552 3.168 266.528 3.168 266.504H15.984C15.984 266.528 15.984 266.552 15.984 266.576C15.984 266.6 15.984 266.624 15.984 266.648C15.984 268.88 16.272 270.608 16.848 271.832C17.424 273.056 18.216 273.92 19.224 274.424C20.256 274.904 21.468 275.144 22.86 275.144C24.66 275.144 26.136 274.604 27.288 273.524C28.464 272.444 29.052 270.596 29.052 267.98C29.052 266.78 28.908 265.736 28.62 264.848C28.332 263.936 27.888 263.18 27.288 262.58C26.712 261.98 25.932 261.536 24.948 261.248C23.988 260.96 22.812 260.816 21.42 260.816H19.62V252.032H21.42C22.812 252.032 23.988 251.852 24.948 251.492C25.908 251.132 26.688 250.652 27.288 250.052C27.912 249.428 28.356 248.708 28.62 247.892C28.908 247.076 29.052 246.224 29.052 245.336C29.052 243.44 28.476 242.048 27.324 241.16C26.196 240.272 24.78 239.828 23.076 239.828C21.084 239.828 19.404 240.392 18.036 241.52C16.668 242.648 15.984 244.676 15.984 247.604H3.168C3.168 245.324 3.528 243.14 4.248 241.052C4.968 238.94 6.096 237.068 7.632 235.436C9.192 233.78 11.22 232.472 13.716 231.512C16.236 230.528 19.272 230.036 22.824 230.036C27.336 230.036 30.984 230.756 33.768 232.196C36.576 233.636 38.628 235.484 39.924 237.74C41.244 239.972 41.904 242.276 41.904 244.652C41.904 246.692 41.46 248.564 40.572 250.268C39.684 251.948 38.436 253.304 36.828 254.336C35.244 255.344 33.42 255.896 31.356 255.992Z" fill="#391400"/>
<path d="M113.212 253.18H107.368L108.856 251.404V268H105.148V251.404L106.684 253.18H100.804V250.3H113.212V253.18ZM124.444 268V263.464C124.444 263.304 124.444 263.084 124.444 262.804C124.444 262.524 124.444 262.24 124.444 261.952C124.444 261.664 124.444 261.432 124.444 261.256C124.444 260.28 124.268 259.528 123.916 259C123.564 258.464 122.92 258.196 121.984 258.196C121.376 258.196 120.864 258.32 120.448 258.568C120.032 258.808 119.716 259.148 119.5 259.588C119.292 260.028 119.188 260.544 119.188 261.136L118.108 260.392C118.108 259.328 118.336 258.396 118.792 257.596C119.248 256.788 119.876 256.156 120.676 255.7C121.484 255.244 122.416 255.016 123.472 255.016C125.032 255.016 126.204 255.476 126.988 256.396C127.772 257.308 128.164 258.58 128.164 260.212C128.164 260.628 128.164 261.128 128.164 261.712C128.164 262.296 128.164 262.972 128.164 263.74V268H124.444ZM115.468 268V249.244H119.188V268H115.468ZM132.364 262.744V260.284H140.812L140.452 260.908C140.452 260.844 140.452 260.784 140.452 260.728C140.452 260.664 140.452 260.604 140.452 260.548C140.452 260.092 140.344 259.656 140.128 259.24C139.912 258.816 139.576 258.472 139.12 258.208C138.672 257.936 138.096 257.8 137.392 257.8C136.688 257.8 136.08 257.952 135.568 258.256C135.064 258.552 134.676 258.98 134.404 259.54C134.14 260.1 134.008 260.776 134.008 261.568C134.008 262.384 134.136 263.084 134.392 263.668C134.656 264.244 135.044 264.688 135.556 265C136.076 265.312 136.72 265.468 137.488 265.468C137.984 265.468 138.412 265.424 138.772 265.336C139.132 265.24 139.424 265.12 139.648 264.976C139.88 264.832 140.056 264.672 140.176 264.496C140.296 264.32 140.368 264.148 140.392 263.98H144.064C144.016 264.516 143.832 265.044 143.512 265.564C143.192 266.076 142.748 266.54 142.18 266.956C141.612 267.364 140.92 267.688 140.104 267.928C139.296 268.168 138.372 268.288 137.332 268.288C135.924 268.288 134.696 268.008 133.648 267.448C132.6 266.88 131.788 266.1 131.212 265.108C130.636 264.108 130.348 262.956 130.348 261.652C130.348 260.332 130.64 259.176 131.224 258.184C131.816 257.184 132.636 256.408 133.684 255.856C134.74 255.296 135.96 255.016 137.344 255.016C138.76 255.016 139.984 255.3 141.016 255.868C142.048 256.428 142.844 257.216 143.404 258.232C143.964 259.24 144.244 260.416 144.244 261.76C144.244 261.96 144.24 262.152 144.232 262.336C144.224 262.52 144.212 262.656 144.196 262.744H132.364ZM154.525 268V263.068C154.525 262.596 154.525 262.188 154.525 261.844C154.525 261.492 154.525 261.2 154.525 260.968C154.525 260.64 154.505 260.316 154.465 259.996C154.433 259.676 154.353 259.38 154.225 259.108C154.105 258.828 153.917 258.608 153.661 258.448C153.405 258.28 153.057 258.196 152.617 258.196C152.209 258.196 151.857 258.284 151.561 258.46C151.265 258.628 151.021 258.864 150.829 259.168C150.645 259.464 150.509 259.808 150.421 260.2C150.333 260.584 150.289 260.988 150.289 261.412L149.269 260.572C149.269 259.492 149.465 258.536 149.857 257.704C150.249 256.864 150.805 256.208 151.525 255.736C152.253 255.256 153.113 255.016 154.105 255.016C155.169 255.016 155.997 255.244 156.589 255.7C157.189 256.148 157.609 256.748 157.849 257.5C158.097 258.244 158.221 259.068 158.221 259.972C158.221 260.316 158.221 260.78 158.221 261.364C158.221 261.948 158.221 262.648 158.221 263.464V268H154.525ZM146.569 268V255.256H150.289V268H146.569ZM162.445 268V263.08C162.445 262.592 162.445 262.172 162.445 261.82C162.445 261.468 162.445 261.176 162.445 260.944C162.445 260.592 162.425 260.256 162.385 259.936C162.345 259.608 162.261 259.312 162.133 259.048C162.005 258.784 161.813 258.576 161.557 258.424C161.301 258.272 160.953 258.196 160.513 258.196C160.105 258.196 159.753 258.284 159.457 258.46C159.169 258.628 158.933 258.86 158.749 259.156C158.565 259.452 158.429 259.788 158.341 260.164C158.261 260.54 158.221 260.932 158.221 261.34L157.201 260.512C157.201 259.448 157.393 258.504 157.777 257.68C158.169 256.856 158.721 256.208 159.433 255.736C160.153 255.256 161.013 255.016 162.013 255.016C163.053 255.016 163.873 255.236 164.473 255.676C165.081 256.116 165.513 256.704 165.769 257.44C166.033 258.168 166.165 258.984 166.165 259.888C166.165 260.248 166.165 260.712 166.165 261.28C166.165 261.848 166.165 262.54 166.165 263.356V268H162.445ZM174.256 268.288C173.496 268.288 172.764 268.2 172.06 268.024C171.356 267.848 170.724 267.588 170.164 267.244C169.612 266.9 169.172 266.472 168.844 265.96C168.524 265.44 168.364 264.836 168.364 264.148C168.364 264.116 168.364 264.08 168.364 264.04C168.364 263.992 168.364 263.956 168.364 263.932H172.06C172.06 263.956 172.06 263.984 172.06 264.016C172.06 264.04 172.06 264.068 172.06 264.1C172.06 264.564 172.264 264.904 172.672 265.12C173.088 265.336 173.648 265.444 174.352 265.444C174.72 265.444 175.072 265.408 175.408 265.336C175.752 265.256 176.032 265.132 176.248 264.964C176.472 264.788 176.584 264.568 176.584 264.304C176.584 263.88 176.348 263.58 175.876 263.404C175.412 263.228 174.664 263.052 173.632 262.876C173.048 262.78 172.456 262.644 171.856 262.468C171.256 262.292 170.704 262.06 170.2 261.772C169.696 261.476 169.292 261.104 168.988 260.656C168.684 260.2 168.532 259.648 168.532 259C168.532 258.136 168.792 257.408 169.312 256.816C169.84 256.224 170.54 255.776 171.412 255.472C172.284 255.168 173.244 255.016 174.292 255.016C175.292 255.016 176.224 255.184 177.088 255.52C177.952 255.848 178.652 256.324 179.188 256.948C179.724 257.564 179.992 258.308 179.992 259.18C179.992 259.196 179.992 259.22 179.992 259.252C179.992 259.284 179.992 259.316 179.992 259.348H176.332C176.332 259.316 176.332 259.288 176.332 259.264C176.332 259.24 176.332 259.22 176.332 259.204C176.332 258.884 176.228 258.624 176.02 258.424C175.82 258.224 175.564 258.076 175.252 257.98C174.94 257.876 174.616 257.824 174.28 257.824C173.976 257.824 173.66 257.86 173.332 257.932C173.012 257.996 172.74 258.108 172.516 258.268C172.292 258.42 172.18 258.636 172.18 258.916C172.18 259.188 172.3 259.412 172.54 259.588C172.78 259.756 173.116 259.896 173.548 260.008C173.98 260.112 174.48 260.212 175.048 260.308C175.584 260.396 176.148 260.52 176.74 260.68C177.34 260.832 177.9 261.052 178.42 261.34C178.948 261.62 179.372 261.992 179.692 262.456C180.02 262.912 180.184 263.492 180.184 264.196C180.184 264.924 180.016 265.548 179.68 266.068C179.344 266.588 178.888 267.012 178.312 267.34C177.744 267.66 177.108 267.896 176.404 268.048C175.708 268.208 174.992 268.288 174.256 268.288ZM183.927 262.744V260.284H192.375L192.015 260.908C192.015 260.844 192.015 260.784 192.015 260.728C192.015 260.664 192.015 260.604 192.015 260.548C192.015 260.092 191.907 259.656 191.691 259.24C191.475 258.816 191.139 258.472 190.683 258.208C190.235 257.936 189.659 257.8 188.955 257.8C188.251 257.8 187.643 257.952 187.131 258.256C186.627 258.552 186.239 258.98 185.967 259.54C185.703 260.1 185.571 260.776 185.571 261.568C185.571 262.384 185.699 263.084 185.955 263.668C186.219 264.244 186.607 264.688 187.119 265C187.639 265.312 188.283 265.468 189.051 265.468C189.547 265.468 189.975 265.424 190.335 265.336C190.695 265.24 190.987 265.12 191.211 264.976C191.443 264.832 191.619 264.672 191.739 264.496C191.859 264.32 191.931 264.148 191.955 263.98H195.627C195.579 264.516 195.395 265.044 195.075 265.564C194.755 266.076 194.311 266.54 193.743 266.956C193.175 267.364 192.483 267.688 191.667 267.928C190.859 268.168 189.935 268.288 188.895 268.288C187.487 268.288 186.259 268.008 185.211 267.448C184.163 266.88 183.351 266.1 182.775 265.108C182.199 264.108 181.911 262.956 181.911 261.652C181.911 260.332 182.203 259.176 182.787 258.184C183.379 257.184 184.199 256.408 185.247 255.856C186.303 255.296 187.523 255.016 188.907 255.016C190.323 255.016 191.547 255.3 192.579 255.868C193.611 256.428 194.407 257.216 194.967 258.232C195.527 259.24 195.807 260.416 195.807 261.76C195.807 261.96 195.803 262.152 195.795 262.336C195.787 262.52 195.775 262.656 195.759 262.744H183.927ZM201.984 249.244V268H198.312V249.244H201.984ZM216.652 255.256L212.788 268H207.772L203.824 255.256H207.664L210.568 266.872H209.992L212.8 255.256H216.652ZM219.341 262.744V260.284H227.789L227.429 260.908C227.429 260.844 227.429 260.784 227.429 260.728C227.429 260.664 227.429 260.604 227.429 260.548C227.429 260.092 227.321 259.656 227.105 259.24C226.889 258.816 226.553 258.472 226.097 258.208C225.649 257.936 225.073 257.8 224.369 257.8C223.665 257.8 223.057 257.952 222.545 258.256C222.041 258.552 221.653 258.98 221.381 259.54C221.117 260.1 220.985 260.776 220.985 261.568C220.985 262.384 221.113 263.084 221.369 263.668C221.633 264.244 222.021 264.688 222.533 265C223.053 265.312 223.697 265.468 224.465 265.468C224.961 265.468 225.389 265.424 225.749 265.336C226.109 265.24 226.401 265.12 226.625 264.976C226.857 264.832 227.033 264.672 227.153 264.496C227.273 264.32 227.345 264.148 227.369 263.98H231.041C230.993 264.516 230.809 265.044 230.489 265.564C230.169 266.076 229.725 266.54 229.157 266.956C228.589 267.364 227.897 267.688 227.081 267.928C226.273 268.168 225.349 268.288 224.309 268.288C222.901 268.288 221.673 268.008 220.625 267.448C219.577 266.88 218.765 266.1 218.189 265.108C217.613 264.108 217.325 262.956 217.325 261.652C217.325 260.332 217.617 259.176 218.201 258.184C218.793 257.184 219.613 256.408 220.661 255.856C221.717 255.296 222.937 255.016 224.321 255.016C225.737 255.016 226.961 255.3 227.993 255.868C229.025 256.428 229.821 257.216 230.381 258.232C230.941 259.24 231.221 260.416 231.221 261.76C231.221 261.96 231.217 262.152 231.209 262.336C231.201 262.52 231.189 262.656 231.173 262.744H219.341ZM238.85 268.288C238.09 268.288 237.358 268.2 236.654 268.024C235.95 267.848 235.318 267.588 234.758 267.244C234.206 266.9 233.766 266.472 233.438 265.96C233.118 265.44 232.958 264.836 232.958 264.148C232.958 264.116 232.958 264.08 232.958 264.04C232.958 263.992 232.958 263.956 232.958 263.932H236.654C236.654 263.956 236.654 263.984 236.654 264.016C236.654 264.04 236.654 264.068 236.654 264.1C236.654 264.564 236.858 264.904 237.266 265.12C237.682 265.336 238.242 265.444 238.946 265.444C239.314 265.444 239.666 265.408 240.002 265.336C240.346 265.256 240.626 265.132 240.842 264.964C241.066 264.788 241.178 264.568 241.178 264.304C241.178 263.88 240.942 263.58 240.47 263.404C240.006 263.228 239.258 263.052 238.226 262.876C237.642 262.78 237.05 262.644 236.45 262.468C235.85 262.292 235.298 262.06 234.794 261.772C234.29 261.476 233.886 261.104 233.582 260.656C233.278 260.2 233.126 259.648 233.126 259C233.126 258.136 233.386 257.408 233.906 256.816C234.434 256.224 235.134 255.776 236.006 255.472C236.878 255.168 237.838 255.016 238.886 255.016C239.886 255.016 240.818 255.184 241.682 255.52C242.546 255.848 243.246 256.324 243.782 256.948C244.318 257.564 244.586 258.308 244.586 259.18C244.586 259.196 244.586 259.22 244.586 259.252C244.586 259.284 244.586 259.316 244.586 259.348H240.926C240.926 259.316 240.926 259.288 240.926 259.264C240.926 259.24 240.926 259.22 240.926 259.204C240.926 258.884 240.822 258.624 240.614 258.424C240.414 258.224 240.158 258.076 239.846 257.98C239.534 257.876 239.21 257.824 238.874 257.824C238.57 257.824 238.254 257.86 237.926 257.932C237.606 257.996 237.334 258.108 237.11 258.268C236.886 258.42 236.774 258.636 236.774 258.916C236.774 259.188 236.894 259.412 237.134 259.588C237.374 259.756 237.71 259.896 238.142 260.008C238.574 260.112 239.074 260.212 239.642 260.308C240.178 260.396 240.742 260.52 241.334 260.68C241.934 260.832 242.494 261.052 243.014 261.34C243.542 261.62 243.966 261.992 244.286 262.456C244.614 262.912 244.778 263.492 244.778 264.196C244.778 264.924 244.61 265.548 244.274 266.068C243.938 266.588 243.482 267.012 242.906 267.34C242.338 267.66 241.702 267.896 240.998 268.048C240.302 268.208 239.586 268.288 238.85 268.288ZM252.949 268V255.256H256.633V268H252.949ZM254.785 253.18C254.209 253.18 253.705 253.028 253.273 252.724C252.849 252.42 252.637 251.992 252.637 251.44C252.637 250.88 252.849 250.448 253.273 250.144C253.705 249.84 254.209 249.688 254.785 249.688C255.369 249.688 255.873 249.84 256.297 250.144C256.729 250.448 256.945 250.88 256.945 251.44C256.945 252 256.729 252.432 256.297 252.736C255.873 253.032 255.369 253.18 254.785 253.18ZM268.35 268V262.588C268.35 262.284 268.35 262.008 268.35 261.76C268.35 261.512 268.35 261.288 268.35 261.088C268.35 260.56 268.282 260.08 268.146 259.648C268.01 259.208 267.766 258.856 267.414 258.592C267.062 258.328 266.554 258.196 265.89 258.196C265.314 258.196 264.814 258.328 264.39 258.592C263.974 258.856 263.654 259.224 263.43 259.696C263.206 260.168 263.094 260.712 263.094 261.328L262.062 260.584C262.062 259.48 262.302 258.512 262.782 257.68C263.262 256.848 263.91 256.196 264.726 255.724C265.55 255.252 266.462 255.016 267.462 255.016C268.51 255.016 269.37 255.228 270.042 255.652C270.722 256.068 271.226 256.652 271.554 257.404C271.89 258.148 272.058 259.02 272.058 260.02C272.058 260.428 272.058 260.884 272.058 261.388C272.058 261.892 272.058 262.408 272.058 262.936V268H268.35ZM259.374 268V255.256H263.094V268H259.374ZM287.107 268.264C286.619 268.264 286.115 268.22 285.595 268.132C285.083 268.052 284.603 267.888 284.155 267.64C283.715 267.384 283.359 267.012 283.087 266.524C282.815 266.036 282.679 265.392 282.679 264.592C282.679 264.416 282.679 264.236 282.679 264.052C282.679 263.868 282.679 263.684 282.679 263.5V258.136H279.739V255.256H280.567C281.047 255.256 281.427 255.236 281.707 255.196C281.995 255.156 282.207 255.056 282.343 254.896C282.487 254.728 282.579 254.468 282.619 254.116C282.659 253.764 282.679 253.28 282.679 252.664V251.056H286.411V255.256H290.119V258.136H286.411V262.72C286.411 262.864 286.411 263.004 286.411 263.14C286.411 263.276 286.411 263.408 286.411 263.536C286.411 264.088 286.475 264.536 286.603 264.88C286.739 265.224 287.071 265.396 287.599 265.396C287.863 265.396 288.111 265.372 288.343 265.324C288.583 265.276 288.763 265.228 288.883 265.18V267.976C288.715 268.048 288.479 268.112 288.175 268.168C287.871 268.232 287.515 268.264 287.107 268.264ZM301.35 268V263.464C301.35 263.304 301.35 263.084 301.35 262.804C301.35 262.524 301.35 262.24 301.35 261.952C301.35 261.664 301.35 261.432 301.35 261.256C301.35 260.28 301.174 259.528 300.822 259C300.47 258.464 299.826 258.196 298.89 258.196C298.282 258.196 297.77 258.32 297.354 258.568C296.938 258.808 296.622 259.148 296.406 259.588C296.198 260.028 296.094 260.544 296.094 261.136L295.014 260.392C295.014 259.328 295.242 258.396 295.698 257.596C296.154 256.788 296.782 256.156 297.582 255.7C298.39 255.244 299.322 255.016 300.378 255.016C301.938 255.016 303.11 255.476 303.894 256.396C304.678 257.308 305.07 258.58 305.07 260.212C305.07 260.628 305.07 261.128 305.07 261.712C305.07 262.296 305.07 262.972 305.07 263.74V268H301.35ZM292.374 268V249.244H296.094V268H292.374ZM309.271 262.744V260.284H317.719L317.359 260.908C317.359 260.844 317.359 260.784 317.359 260.728C317.359 260.664 317.359 260.604 317.359 260.548C317.359 260.092 317.251 259.656 317.035 259.24C316.819 258.816 316.483 258.472 316.027 258.208C315.579 257.936 315.003 257.8 314.299 257.8C313.595 257.8 312.987 257.952 312.475 258.256C311.971 258.552 311.583 258.98 311.311 259.54C311.047 260.1 310.915 260.776 310.915 261.568C310.915 262.384 311.043 263.084 311.299 263.668C311.563 264.244 311.951 264.688 312.463 265C312.983 265.312 313.627 265.468 314.395 265.468C314.891 265.468 315.319 265.424 315.679 265.336C316.039 265.24 316.331 265.12 316.555 264.976C316.787 264.832 316.963 264.672 317.083 264.496C317.203 264.32 317.275 264.148 317.299 263.98H320.971C320.923 264.516 320.739 265.044 320.419 265.564C320.099 266.076 319.655 266.54 319.087 266.956C318.519 267.364 317.827 267.688 317.011 267.928C316.203 268.168 315.279 268.288 314.239 268.288C312.831 268.288 311.603 268.008 310.555 267.448C309.507 266.88 308.695 266.1 308.119 265.108C307.543 264.108 307.255 262.956 307.255 261.652C307.255 260.332 307.547 259.176 308.131 258.184C308.723 257.184 309.543 256.408 310.591 255.856C311.647 255.296 312.867 255.016 314.251 255.016C315.667 255.016 316.891 255.3 317.923 255.868C318.955 256.428 319.751 257.216 320.311 258.232C320.871 259.24 321.151 260.416 321.151 261.76C321.151 261.96 321.147 262.152 321.139 262.336C321.131 262.52 321.119 262.656 321.103 262.744H309.271ZM337.431 268V263.068C337.431 262.596 337.431 262.188 337.431 261.844C337.431 261.492 337.431 261.2 337.431 260.968C337.431 260.64 337.411 260.316 337.371 259.996C337.339 259.676 337.259 259.38 337.131 259.108C337.011 258.828 336.823 258.608 336.567 258.448C336.311 258.28 335.963 258.196 335.523 258.196C335.115 258.196 334.763 258.284 334.467 258.46C334.171 258.628 333.927 258.864 333.735 259.168C333.551 259.464 333.415 259.808 333.327 260.2C333.239 260.584 333.195 260.988 333.195 261.412L332.175 260.572C332.175 259.492 332.371 258.536 332.763 257.704C333.155 256.864 333.711 256.208 334.431 255.736C335.159 255.256 336.019 255.016 337.011 255.016C338.075 255.016 338.903 255.244 339.495 255.7C340.095 256.148 340.515 256.748 340.755 257.5C341.003 258.244 341.127 259.068 341.127 259.972C341.127 260.316 341.127 260.78 341.127 261.364C341.127 261.948 341.127 262.648 341.127 263.464V268H337.431ZM329.475 268V255.256H333.195V268H329.475ZM345.351 268V263.08C345.351 262.592 345.351 262.172 345.351 261.82C345.351 261.468 345.351 261.176 345.351 260.944C345.351 260.592 345.331 260.256 345.291 259.936C345.251 259.608 345.167 259.312 345.039 259.048C344.911 258.784 344.719 258.576 344.463 258.424C344.207 258.272 343.859 258.196 343.419 258.196C343.011 258.196 342.659 258.284 342.363 258.46C342.075 258.628 341.839 258.86 341.655 259.156C341.471 259.452 341.335 259.788 341.247 260.164C341.167 260.54 341.127 260.932 341.127 261.34L340.107 260.512C340.107 259.448 340.299 258.504 340.683 257.68C341.075 256.856 341.627 256.208 342.339 255.736C343.059 255.256 343.919 255.016 344.919 255.016C345.959 255.016 346.779 255.236 347.379 255.676C347.987 256.116 348.419 256.704 348.675 257.44C348.939 258.168 349.071 258.984 349.071 259.888C349.071 260.248 349.071 260.712 349.071 261.28C349.071 261.848 349.071 262.54 349.071 263.356V268H345.351ZM353.286 262.744V260.284H361.734L361.374 260.908C361.374 260.844 361.374 260.784 361.374 260.728C361.374 260.664 361.374 260.604 361.374 260.548C361.374 260.092 361.266 259.656 361.05 259.24C360.834 258.816 360.498 258.472 360.042 258.208C359.594 257.936 359.018 257.8 358.314 257.8C357.61 257.8 357.002 257.952 356.49 258.256C355.986 258.552 355.598 258.98 355.326 259.54C355.062 260.1 354.93 260.776 354.93 261.568C354.93 262.384 355.058 263.084 355.314 263.668C355.578 264.244 355.966 264.688 356.478 265C356.998 265.312 357.642 265.468 358.41 265.468C358.906 265.468 359.334 265.424 359.694 265.336C360.054 265.24 360.346 265.12 360.57 264.976C360.802 264.832 360.978 264.672 361.098 264.496C361.218 264.32 361.29 264.148 361.314 263.98H364.986C364.938 264.516 364.754 265.044 364.434 265.564C364.114 266.076 363.67 266.54 363.102 266.956C362.534 267.364 361.842 267.688 361.026 267.928C360.218 268.168 359.294 268.288 358.254 268.288C356.846 268.288 355.618 268.008 354.57 267.448C353.522 266.88 352.71 266.1 352.134 265.108C351.558 264.108 351.27 262.956 351.27 261.652C351.27 260.332 351.562 259.176 352.146 258.184C352.738 257.184 353.558 256.408 354.606 255.856C355.662 255.296 356.882 255.016 358.266 255.016C359.682 255.016 360.906 255.3 361.938 255.868C362.97 256.428 363.766 257.216 364.326 258.232C364.886 259.24 365.166 260.416 365.166 261.76C365.166 261.96 365.162 262.152 365.154 262.336C365.146 262.52 365.134 262.656 365.118 262.744H353.286ZM367.491 268V255.256H371.223V259.648L370.455 259.168C370.543 258.568 370.703 258.016 370.935 257.512C371.167 257.008 371.467 256.572 371.835 256.204C372.203 255.828 372.639 255.536 373.143 255.328C373.655 255.12 374.239 255.016 374.895 255.016C375.407 255.016 375.807 255.056 376.095 255.136C376.391 255.208 376.575 255.264 376.647 255.304L376.035 258.64C375.963 258.6 375.803 258.536 375.555 258.448C375.307 258.36 374.987 258.316 374.595 258.316C373.955 258.316 373.419 258.424 372.987 258.64C372.555 258.856 372.207 259.144 371.943 259.504C371.687 259.856 371.503 260.248 371.391 260.68C371.279 261.112 371.223 261.548 371.223 261.988V268H367.491ZM384.716 268.288C383.316 268.288 382.088 268.008 381.032 267.448C379.976 266.88 379.156 266.092 378.572 265.084C377.996 264.076 377.708 262.912 377.708 261.592C377.708 260.256 377.996 259.1 378.572 258.124C379.156 257.14 379.976 256.376 381.032 255.832C382.088 255.288 383.316 255.016 384.716 255.016C385.764 255.016 386.692 255.172 387.5 255.484C388.308 255.788 388.984 256.192 389.528 256.696C390.072 257.2 390.484 257.752 390.764 258.352C391.044 258.952 391.184 259.548 391.184 260.14C391.184 260.148 391.184 260.164 391.184 260.188C391.184 260.204 391.184 260.22 391.184 260.236H387.5C387.5 260.188 387.496 260.144 387.488 260.104C387.488 260.056 387.48 260.008 387.464 259.96C387.4 259.624 387.26 259.308 387.044 259.012C386.828 258.716 386.524 258.476 386.132 258.292C385.748 258.1 385.268 258.004 384.692 258.004C384.076 258.004 383.524 258.14 383.036 258.412C382.556 258.684 382.176 259.088 381.896 259.624C381.616 260.152 381.476 260.808 381.476 261.592C381.476 262.36 381.616 263.024 381.896 263.584C382.176 264.136 382.556 264.56 383.036 264.856C383.524 265.152 384.076 265.3 384.692 265.3C385.324 265.3 385.84 265.204 386.24 265.012C386.64 264.812 386.94 264.548 387.14 264.22C387.34 263.884 387.46 263.516 387.5 263.116H391.184C391.184 263.708 391.044 264.312 390.764 264.928C390.492 265.536 390.084 266.092 389.54 266.596C389.004 267.1 388.332 267.508 387.524 267.82C386.716 268.132 385.78 268.288 384.716 268.288ZM402.483 268V263.464C402.483 263.304 402.483 263.084 402.483 262.804C402.483 262.524 402.483 262.24 402.483 261.952C402.483 261.664 402.483 261.432 402.483 261.256C402.483 260.28 402.307 259.528 401.955 259C401.603 258.464 400.959 258.196 400.023 258.196C399.415 258.196 398.903 258.32 398.487 258.568C398.071 258.808 397.755 259.148 397.539 259.588C397.331 260.028 397.227 260.544 397.227 261.136L396.147 260.392C396.147 259.328 396.375 258.396 396.831 257.596C397.287 256.788 397.915 256.156 398.715 255.7C399.523 255.244 400.455 255.016 401.511 255.016C403.071 255.016 404.243 255.476 405.027 256.396C405.811 257.308 406.203 258.58 406.203 260.212C406.203 260.628 406.203 261.128 406.203 261.712C406.203 262.296 406.203 262.972 406.203 263.74V268H402.483ZM393.507 268V249.244H397.227V268H393.507ZM413.295 268.264C412.367 268.264 411.539 268.116 410.811 267.82C410.091 267.524 409.527 267.096 409.119 266.536C408.711 265.976 408.507 265.296 408.507 264.496C408.507 263.592 408.755 262.856 409.251 262.288C409.747 261.72 410.403 261.288 411.219 260.992C412.043 260.688 412.935 260.488 413.895 260.392C415.295 260.256 416.259 260.132 416.787 260.02C417.323 259.908 417.591 259.712 417.591 259.432C417.591 259.424 417.591 259.416 417.591 259.408C417.591 258.936 417.363 258.564 416.907 258.292C416.459 258.02 415.831 257.884 415.023 257.884C414.167 257.884 413.511 258.04 413.055 258.352C412.607 258.656 412.383 259.124 412.383 259.756H408.723C408.723 258.732 408.999 257.868 409.551 257.164C410.111 256.46 410.867 255.928 411.819 255.568C412.771 255.2 413.847 255.016 415.047 255.016C416.167 255.016 417.203 255.188 418.155 255.532C419.107 255.868 419.871 256.376 420.447 257.056C421.031 257.736 421.323 258.6 421.323 259.648C421.323 259.816 421.323 259.984 421.323 260.152C421.323 260.312 421.323 260.476 421.323 260.644V265.156C421.323 265.484 421.331 265.8 421.347 266.104C421.371 266.4 421.419 266.672 421.491 266.92C421.571 267.2 421.671 267.432 421.791 267.616C421.911 267.8 422.011 267.928 422.091 268H418.431C418.375 267.944 418.287 267.828 418.167 267.652C418.055 267.476 417.959 267.272 417.879 267.04C417.783 266.76 417.711 266.48 417.663 266.2C417.623 265.912 417.603 265.576 417.603 265.192L418.371 265.72C418.147 266.248 417.783 266.704 417.279 267.088C416.783 267.464 416.191 267.756 415.503 267.964C414.823 268.164 414.087 268.264 413.295 268.264ZM414.291 265.48C414.875 265.48 415.419 265.376 415.923 265.168C416.435 264.952 416.851 264.616 417.171 264.16C417.491 263.704 417.651 263.108 417.651 262.372V261.088L418.575 261.988C418.047 262.18 417.435 262.34 416.739 262.468C416.051 262.588 415.363 262.684 414.675 262.756C413.859 262.836 413.247 262.976 412.839 263.176C412.439 263.368 412.239 263.696 412.239 264.16C412.239 264.6 412.411 264.932 412.755 265.156C413.099 265.372 413.611 265.48 414.291 265.48ZM433.022 268V262.588C433.022 262.284 433.022 262.008 433.022 261.76C433.022 261.512 433.022 261.288 433.022 261.088C433.022 260.56 432.954 260.08 432.818 259.648C432.682 259.208 432.438 258.856 432.086 258.592C431.734 258.328 431.226 258.196 430.562 258.196C429.986 258.196 429.486 258.328 429.062 258.592C428.646 258.856 428.326 259.224 428.102 259.696C427.878 260.168 427.766 260.712 427.766 261.328L426.734 260.584C426.734 259.48 426.974 258.512 427.454 257.68C427.934 256.848 428.582 256.196 429.398 255.724C430.222 255.252 431.134 255.016 432.134 255.016C433.182 255.016 434.042 255.228 434.714 255.652C435.394 256.068 435.898 256.652 436.226 257.404C436.562 258.148 436.73 259.02 436.73 260.02C436.73 260.428 436.73 260.884 436.73 261.388C436.73 261.892 436.73 262.408 436.73 262.936V268H433.022ZM424.046 268V255.256H427.766V268H424.046ZM445.497 268.264C445.009 268.264 444.505 268.22 443.985 268.132C443.473 268.052 442.993 267.888 442.545 267.64C442.105 267.384 441.749 267.012 441.477 266.524C441.205 266.036 441.069 265.392 441.069 264.592C441.069 264.416 441.069 264.236 441.069 264.052C441.069 263.868 441.069 263.684 441.069 263.5V258.136H438.129V255.256H438.957C439.437 255.256 439.817 255.236 440.097 255.196C440.385 255.156 440.597 255.056 440.733 254.896C440.877 254.728 440.969 254.468 441.009 254.116C441.049 253.764 441.069 253.28 441.069 252.664V251.056H444.801V255.256H448.509V258.136H444.801V262.72C444.801 262.864 444.801 263.004 444.801 263.14C444.801 263.276 444.801 263.408 444.801 263.536C444.801 264.088 444.865 264.536 444.993 264.88C445.129 265.224 445.461 265.396 445.989 265.396C446.253 265.396 446.501 265.372 446.733 265.324C446.973 265.276 447.153 265.228 447.273 265.18V267.976C447.105 268.048 446.869 268.112 446.565 268.168C446.261 268.232 445.905 268.264 445.497 268.264ZM452.805 250.3L452.469 256.276H450.405L450.081 250.3H452.805ZM459.397 268.288C458.637 268.288 457.905 268.2 457.201 268.024C456.497 267.848 455.865 267.588 455.305 267.244C454.753 266.9 454.313 266.472 453.985 265.96C453.665 265.44 453.505 264.836 453.505 264.148C453.505 264.116 453.505 264.08 453.505 264.04C453.505 263.992 453.505 263.956 453.505 263.932H457.201C457.201 263.956 457.201 263.984 457.201 264.016C457.201 264.04 457.201 264.068 457.201 264.1C457.201 264.564 457.405 264.904 457.813 265.12C458.229 265.336 458.789 265.444 459.493 265.444C459.861 265.444 460.213 265.408 460.549 265.336C460.893 265.256 461.173 265.132 461.389 264.964C461.613 264.788 461.725 264.568 461.725 264.304C461.725 263.88 461.489 263.58 461.017 263.404C460.553 263.228 459.805 263.052 458.773 262.876C458.189 262.78 457.597 262.644 456.997 262.468C456.397 262.292 455.845 262.06 455.341 261.772C454.837 261.476 454.433 261.104 454.129 260.656C453.825 260.2 453.673 259.648 453.673 259C453.673 258.136 453.933 257.408 454.453 256.816C454.981 256.224 455.681 255.776 456.553 255.472C457.425 255.168 458.385 255.016 459.433 255.016C460.433 255.016 461.365 255.184 462.229 255.52C463.093 255.848 463.793 256.324 464.329 256.948C464.865 257.564 465.133 258.308 465.133 259.18C465.133 259.196 465.133 259.22 465.133 259.252C465.133 259.284 465.133 259.316 465.133 259.348H461.473C461.473 259.316 461.473 259.288 461.473 259.264C461.473 259.24 461.473 259.22 461.473 259.204C461.473 258.884 461.369 258.624 461.161 258.424C460.961 258.224 460.705 258.076 460.393 257.98C460.081 257.876 459.757 257.824 459.421 257.824C459.117 257.824 458.801 257.86 458.473 257.932C458.153 257.996 457.881 258.108 457.657 258.268C457.433 258.42 457.321 258.636 457.321 258.916C457.321 259.188 457.441 259.412 457.681 259.588C457.921 259.756 458.257 259.896 458.689 260.008C459.121 260.112 459.621 260.212 460.189 260.308C460.725 260.396 461.289 260.52 461.881 260.68C462.481 260.832 463.041 261.052 463.561 261.34C464.089 261.62 464.513 261.992 464.833 262.456C465.161 262.912 465.325 263.492 465.325 264.196C465.325 264.924 465.157 265.548 464.821 266.068C464.485 266.588 464.029 267.012 463.453 267.34C462.885 267.66 462.249 267.896 461.545 268.048C460.849 268.208 460.133 268.288 459.397 268.288Z" fill="#391400"/>
</svg>
