<svg width="1171" height="176" viewBox="0 0 1171 176" fill="none" xmlns="http://www.w3.org/2000/svg">
<path d="M0.5 6C0.5 2.96244 2.96243 0.5 6 0.5H390.5V175.5H6C2.96244 175.5 0.5 173.038 0.5 170V6Z" stroke="#F3D1BF"/>
<rect x="390.5" y="0.5" width="390" height="175" fill="#FDF0E9" stroke="#F3D1BF"/>
<path d="M780.5 0.5H1165C1168.04 0.5 1170.5 2.96243 1170.5 6V170C1170.5 173.038 1168.04 175.5 1165 175.5H780.5V0.5Z" stroke="#F3D1BF"/>
<path d="M61.26 80V74.66H48.56V69.84L59.08 50.48H68.22V69.44H71.6V74.66H68.22V80H61.26ZM53.8 72.36L51.94 69.44H61.26V54.96L62.66 55.36L53.8 72.36ZM74.4428 80V74.2C74.5628 74.0133 74.9228 73.6667 75.5228 73.16C76.1361 72.64 76.8761 72.0333 77.7428 71.34C78.6228 70.6467 79.5361 69.9333 80.4828 69.2C81.4295 68.4533 82.3028 67.76 83.1028 67.12C84.0361 66.3867 84.9428 65.62 85.8228 64.82C86.7028 64.02 87.4295 63.1733 88.0028 62.28C88.5761 61.3867 88.8628 60.44 88.8628 59.44C88.8628 58.28 88.5828 57.3267 88.0228 56.58C87.4628 55.8333 86.5628 55.46 85.3228 55.46C84.3095 55.46 83.5095 55.6867 82.9228 56.14C82.3495 56.5933 81.9428 57.22 81.7028 58.02C81.4628 58.82 81.3428 59.7533 81.3428 60.82H74.2028C74.2028 58.58 74.6428 56.6533 75.5228 55.04C76.4028 53.4267 77.6761 52.1867 79.3428 51.32C81.0228 50.4533 83.0495 50.02 85.4228 50.02C87.7695 50.02 89.7295 50.4467 91.3028 51.3C92.8761 52.14 94.0561 53.28 94.8428 54.72C95.6295 56.1467 96.0228 57.74 96.0228 59.5C96.0228 60.7133 95.7895 61.8333 95.3228 62.86C94.8695 63.8733 94.2761 64.8067 93.5428 65.66C92.8095 66.5133 92.0295 67.2867 91.2028 67.98C90.3761 68.66 89.5895 69.28 88.8428 69.84C87.5895 70.7733 86.5295 71.5733 85.6628 72.24C84.7961 72.9067 84.1161 73.4467 83.6228 73.86C83.1428 74.26 82.8428 74.5467 82.7228 74.72H95.7228V80H74.4428ZM123.954 52.86L101.634 79.38L99.1944 77.28L121.494 50.78L123.954 52.86ZM104.994 60.84C103.981 60.84 103.034 60.6333 102.154 60.22C101.274 59.7933 100.568 59.1867 100.034 58.4C99.501 57.6133 99.2344 56.6867 99.2344 55.62C99.2344 54.54 99.501 53.6067 100.034 52.82C100.568 52.0333 101.274 51.4267 102.154 51C103.034 50.5733 103.981 50.36 104.994 50.36C106.021 50.36 106.981 50.5733 107.874 51C108.781 51.4267 109.501 52.0333 110.034 52.82C110.581 53.6067 110.854 54.54 110.854 55.62C110.854 56.6867 110.581 57.6133 110.034 58.4C109.501 59.1867 108.781 59.7933 107.874 60.22C106.981 60.6333 106.021 60.84 104.994 60.84ZM104.994 57.96C105.434 57.96 105.854 57.88 106.254 57.72C106.654 57.56 106.981 57.3067 107.234 56.96C107.501 56.6133 107.634 56.1667 107.634 55.62C107.634 55.0467 107.501 54.5867 107.234 54.24C106.981 53.8933 106.654 53.6467 106.254 53.5C105.854 53.34 105.434 53.26 104.994 53.26C104.568 53.26 104.161 53.34 103.774 53.5C103.388 53.6467 103.068 53.8933 102.814 54.24C102.574 54.5867 102.454 55.0467 102.454 55.62C102.454 56.1667 102.574 56.6133 102.814 56.96C103.068 57.3067 103.388 57.56 103.774 57.72C104.161 57.88 104.568 57.96 104.994 57.96ZM117.694 79.92C116.694 79.92 115.754 79.7133 114.874 79.3C113.994 78.8733 113.281 78.2733 112.734 77.5C112.201 76.7133 111.934 75.78 111.934 74.7C111.934 73.62 112.201 72.6867 112.734 71.9C113.281 71.1133 113.994 70.5133 114.874 70.1C115.754 69.6733 116.694 69.46 117.694 69.46C118.734 69.46 119.701 69.6733 120.594 70.1C121.488 70.5133 122.208 71.1133 122.754 71.9C123.301 72.6867 123.574 73.62 123.574 74.7C123.574 75.78 123.301 76.7133 122.754 77.5C122.208 78.2733 121.488 78.8733 120.594 79.3C119.701 79.7133 118.734 79.92 117.694 79.92ZM117.694 77.06C118.134 77.06 118.554 76.98 118.954 76.82C119.354 76.66 119.681 76.4067 119.934 76.06C120.201 75.7133 120.334 75.26 120.334 74.7C120.334 74.14 120.201 73.6867 119.934 73.34C119.681 72.9933 119.354 72.74 118.954 72.58C118.554 72.42 118.134 72.34 117.694 72.34C117.281 72.34 116.874 72.42 116.474 72.58C116.088 72.74 115.768 72.9933 115.514 73.34C115.274 73.6867 115.154 74.14 115.154 74.7C115.154 75.26 115.274 75.7133 115.514 76.06C115.768 76.4067 116.088 76.66 116.474 76.82C116.874 76.98 117.281 77.06 117.694 77.06Z" fill="#391400"/>
<path d="M58.73 113.25L54.6 122.87V128H52.89V122.87L48.78 113.25H50.58L54.11 121.8H53.39L56.91 113.25H58.73ZM60.08 123.37V121.85H68.29L67.99 122.35C67.99 122.31 67.99 122.273 67.99 122.24C67.99 122.2 67.99 122.163 67.99 122.13C67.99 121.517 67.86 120.957 67.6 120.45C67.3467 119.937 66.9667 119.527 66.46 119.22C65.9533 118.913 65.3267 118.76 64.58 118.76C63.8267 118.76 63.1633 118.92 62.59 119.24C62.0167 119.56 61.57 120.013 61.25 120.6C60.93 121.18 60.77 121.873 60.77 122.68C60.77 123.5 60.9233 124.207 61.23 124.8C61.5433 125.393 61.9867 125.85 62.56 126.17C63.1333 126.49 63.8133 126.65 64.6 126.65C65.16 126.65 65.6467 126.593 66.06 126.48C66.4733 126.36 66.8133 126.203 67.08 126.01C67.3533 125.81 67.56 125.593 67.7 125.36C67.84 125.127 67.9233 124.893 67.95 124.66H69.65C69.6167 125.087 69.4833 125.51 69.25 125.93C69.0167 126.35 68.6867 126.733 68.26 127.08C67.8333 127.42 67.31 127.693 66.69 127.9C66.07 128.107 65.3567 128.21 64.55 128.21C63.4833 128.21 62.5433 127.977 61.73 127.51C60.9167 127.043 60.2767 126.397 59.81 125.57C59.35 124.743 59.12 123.793 59.12 122.72C59.12 121.633 59.3533 120.68 59.82 119.86C60.2867 119.033 60.93 118.387 61.75 117.92C62.57 117.453 63.5067 117.22 64.56 117.22C65.6333 117.22 66.5633 117.453 67.35 117.92C68.1367 118.387 68.7433 119.027 69.17 119.84C69.5967 120.647 69.81 121.567 69.81 122.6C69.81 122.707 69.8067 122.847 69.8 123.02C69.7933 123.193 69.7833 123.31 69.77 123.37H60.08ZM76.1697 128.2C75.363 128.2 74.6564 128.073 74.0497 127.82C73.4497 127.567 72.983 127.203 72.6497 126.73C72.3164 126.25 72.1497 125.677 72.1497 125.01C72.1497 124.317 72.3297 123.74 72.6897 123.28C73.0497 122.813 73.5564 122.45 74.2097 122.19C74.863 121.93 75.623 121.757 76.4897 121.67C77.7964 121.537 78.7264 121.407 79.2797 121.28C79.833 121.147 80.1097 120.933 80.1097 120.64C80.1097 120.633 80.1097 120.63 80.1097 120.63C80.1097 120.623 80.1097 120.617 80.1097 120.61C80.1097 119.997 79.8597 119.54 79.3597 119.24C78.8597 118.933 78.1364 118.78 77.1897 118.78C76.203 118.78 75.4364 118.953 74.8897 119.3C74.343 119.64 74.0697 120.193 74.0697 120.96H72.3897C72.3897 120.167 72.593 119.493 72.9997 118.94C73.4064 118.38 73.9697 117.953 74.6897 117.66C75.4164 117.367 76.253 117.22 77.1997 117.22C78.0664 117.22 78.8464 117.353 79.5397 117.62C80.2397 117.88 80.793 118.27 81.1997 118.79C81.613 119.303 81.8197 119.94 81.8197 120.7C81.8197 120.84 81.8197 120.98 81.8197 121.12C81.8197 121.253 81.8197 121.39 81.8197 121.53V126C81.8197 126.233 81.8297 126.46 81.8497 126.68C81.8697 126.9 81.903 127.093 81.9497 127.26C82.0097 127.46 82.0764 127.623 82.1497 127.75C82.223 127.87 82.283 127.953 82.3297 128H80.6197C80.5864 127.967 80.5364 127.89 80.4697 127.77C80.403 127.643 80.3397 127.497 80.2797 127.33C80.233 127.197 80.1964 127.03 80.1697 126.83C80.143 126.623 80.1297 126.41 80.1297 126.19L80.4097 126.38C80.203 126.74 79.8997 127.057 79.4997 127.33C79.1064 127.603 78.6297 127.817 78.0697 127.97C77.5097 128.123 76.8764 128.2 76.1697 128.2ZM76.4397 126.67C77.1264 126.67 77.7464 126.567 78.2997 126.36C78.853 126.147 79.293 125.833 79.6197 125.42C79.9464 125.007 80.1097 124.493 80.1097 123.88V121.77L80.4897 122.41C80.063 122.577 79.5297 122.713 78.8897 122.82C78.2564 122.92 77.593 123.003 76.8997 123.07C75.893 123.163 75.133 123.34 74.6197 123.6C74.113 123.86 73.8597 124.297 73.8597 124.91C73.8597 125.49 74.0697 125.93 74.4897 126.23C74.9097 126.523 75.5597 126.67 76.4397 126.67ZM84.6472 128V117.38H86.3472V120.64L85.7872 120.44C85.8272 120.047 85.9272 119.66 86.0872 119.28C86.2472 118.893 86.4672 118.547 86.7472 118.24C87.0339 117.927 87.3905 117.68 87.8172 117.5C88.2439 117.313 88.7439 117.22 89.3172 117.22C89.7439 117.22 90.0905 117.257 90.3572 117.33C90.6305 117.397 90.8005 117.45 90.8672 117.49L90.4272 119.16C90.3605 119.113 90.2239 119.053 90.0172 118.98C89.8172 118.907 89.5305 118.87 89.1572 118.87C88.6039 118.87 88.1439 118.97 87.7772 119.17C87.4172 119.37 87.1305 119.637 86.9172 119.97C86.7105 120.297 86.5639 120.653 86.4772 121.04C86.3905 121.427 86.3472 121.81 86.3472 122.19V128H84.6472ZM96.5588 128.2C95.9188 128.2 95.3254 128.133 94.7788 128C94.2388 127.86 93.7654 127.66 93.3588 127.4C92.9588 127.133 92.6454 126.807 92.4188 126.42C92.1988 126.033 92.0888 125.59 92.0888 125.09C92.0888 125.037 92.0888 124.983 92.0888 124.93C92.0888 124.87 92.0888 124.82 92.0888 124.78H93.7988C93.7988 124.82 93.7988 124.853 93.7988 124.88C93.7988 124.907 93.7988 124.947 93.7988 125C93.7988 125.54 94.0488 125.953 94.5488 126.24C95.0488 126.52 95.7321 126.66 96.5988 126.66C97.1321 126.66 97.6088 126.607 98.0288 126.5C98.4488 126.393 98.7788 126.23 99.0188 126.01C99.2654 125.79 99.3888 125.513 99.3888 125.18C99.3888 124.627 99.1288 124.233 98.6088 124C98.0954 123.76 97.3254 123.553 96.2988 123.38C95.7588 123.287 95.2454 123.167 94.7588 123.02C94.2721 122.867 93.8388 122.67 93.4588 122.43C93.0854 122.19 92.7888 121.893 92.5688 121.54C92.3554 121.18 92.2488 120.75 92.2488 120.25C92.2488 119.603 92.4388 119.057 92.8188 118.61C93.2054 118.157 93.7254 117.813 94.3788 117.58C95.0321 117.34 95.7588 117.22 96.5588 117.22C97.3321 117.22 98.0454 117.343 98.6988 117.59C99.3521 117.837 99.8754 118.197 100.269 118.67C100.669 119.137 100.869 119.713 100.869 120.4C100.869 120.427 100.869 120.46 100.869 120.5C100.869 120.533 100.869 120.567 100.869 120.6H99.1688C99.1688 120.567 99.1688 120.54 99.1688 120.52C99.1688 120.5 99.1688 120.477 99.1688 120.45C99.1688 120.063 99.0454 119.747 98.7988 119.5C98.5521 119.247 98.2321 119.06 97.8388 118.94C97.4454 118.813 97.0254 118.75 96.5788 118.75C96.1588 118.75 95.7454 118.797 95.3388 118.89C94.9321 118.977 94.5954 119.123 94.3288 119.33C94.0621 119.537 93.9288 119.82 93.9288 120.18C93.9288 120.54 94.0521 120.83 94.2988 121.05C94.5521 121.263 94.9054 121.44 95.3588 121.58C95.8188 121.713 96.3588 121.837 96.9788 121.95C97.5321 122.05 98.0554 122.177 98.5488 122.33C99.0421 122.477 99.4754 122.667 99.8488 122.9C100.229 123.133 100.525 123.43 100.739 123.79C100.959 124.143 101.069 124.577 101.069 125.09C101.069 125.61 100.949 126.063 100.709 126.45C100.475 126.837 100.149 127.16 99.7288 127.42C99.3154 127.68 98.8354 127.873 98.2888 128C97.7488 128.133 97.1721 128.2 96.5588 128.2ZM113.74 128.19C112.673 128.19 111.73 127.953 110.91 127.48C110.096 127 109.456 126.347 108.99 125.52C108.53 124.687 108.3 123.74 108.3 122.68C108.3 121.62 108.53 120.68 108.99 119.86C109.456 119.04 110.096 118.397 110.91 117.93C111.73 117.463 112.673 117.23 113.74 117.23C114.806 117.23 115.746 117.463 116.56 117.93C117.38 118.397 118.02 119.04 118.48 119.86C118.946 120.68 119.18 121.62 119.18 122.68C119.18 123.74 118.946 124.687 118.48 125.52C118.02 126.347 117.38 127 116.56 127.48C115.746 127.953 114.806 128.19 113.74 128.19ZM113.74 126.63C114.473 126.63 115.12 126.467 115.68 126.14C116.24 125.813 116.676 125.353 116.99 124.76C117.31 124.167 117.47 123.473 117.47 122.68C117.47 121.887 117.31 121.2 116.99 120.62C116.676 120.033 116.24 119.583 115.68 119.27C115.12 118.95 114.473 118.79 113.74 118.79C113.013 118.79 112.366 118.95 111.8 119.27C111.24 119.583 110.8 120.033 110.48 120.62C110.166 121.2 110.01 121.887 110.01 122.68C110.01 123.473 110.166 124.167 110.48 124.76C110.8 125.353 111.24 125.813 111.8 126.14C112.366 126.467 113.013 126.63 113.74 126.63ZM123.008 128V118.88H120.688V117.38H123.008V116.01C123.008 115.537 123.061 115.103 123.168 114.71C123.281 114.31 123.441 113.957 123.648 113.65C123.861 113.343 124.118 113.083 124.418 112.87C124.718 112.657 125.058 112.497 125.438 112.39C125.825 112.277 126.245 112.22 126.698 112.22C127.025 112.22 127.285 112.24 127.478 112.28C127.671 112.32 127.801 112.357 127.868 112.39V113.89C127.788 113.863 127.655 113.833 127.468 113.8C127.281 113.767 127.081 113.75 126.868 113.75C126.415 113.75 126.045 113.82 125.758 113.96C125.478 114.1 125.261 114.293 125.108 114.54C124.955 114.78 124.848 115.053 124.788 115.36C124.735 115.667 124.708 115.987 124.708 116.32V117.38H127.808V118.88H124.708V128H123.008ZM135.334 123.37V121.85H143.544L143.244 122.35C143.244 122.31 143.244 122.273 143.244 122.24C143.244 122.2 143.244 122.163 143.244 122.13C143.244 121.517 143.114 120.957 142.854 120.45C142.601 119.937 142.221 119.527 141.714 119.22C141.207 118.913 140.581 118.76 139.834 118.76C139.081 118.76 138.417 118.92 137.844 119.24C137.271 119.56 136.824 120.013 136.504 120.6C136.184 121.18 136.024 121.873 136.024 122.68C136.024 123.5 136.177 124.207 136.484 124.8C136.797 125.393 137.241 125.85 137.814 126.17C138.387 126.49 139.067 126.65 139.854 126.65C140.414 126.65 140.901 126.593 141.314 126.48C141.727 126.36 142.067 126.203 142.334 126.01C142.607 125.81 142.814 125.593 142.954 125.36C143.094 125.127 143.177 124.893 143.204 124.66H144.904C144.871 125.087 144.737 125.51 144.504 125.93C144.271 126.35 143.941 126.733 143.514 127.08C143.087 127.42 142.564 127.693 141.944 127.9C141.324 128.107 140.611 128.21 139.804 128.21C138.737 128.21 137.797 127.977 136.984 127.51C136.171 127.043 135.531 126.397 135.064 125.57C134.604 124.743 134.374 123.793 134.374 122.72C134.374 121.633 134.607 120.68 135.074 119.86C135.541 119.033 136.184 118.387 137.004 117.92C137.824 117.453 138.761 117.22 139.814 117.22C140.887 117.22 141.817 117.453 142.604 117.92C143.391 118.387 143.997 119.027 144.424 119.84C144.851 120.647 145.064 121.567 145.064 122.6C145.064 122.707 145.061 122.847 145.054 123.02C145.047 123.193 145.037 123.31 145.024 123.37H135.334ZM150.34 122.35L150.32 123.16L146.19 117.38H148.05L151.5 122.15L150.48 122.12L153.81 117.38H155.64L151.64 122.9L151.75 122.41L155.72 128H153.85L150.42 123.3L151.54 123.04L147.88 128H146.05L150.34 122.35ZM157.87 132.37V117.38H159.57V132.37H157.87ZM163.06 128.2C162.24 128.2 161.473 128 160.76 127.6C160.047 127.193 159.467 126.637 159.02 125.93C158.58 125.223 158.36 124.417 158.36 123.51C158.36 123.49 158.36 123.473 158.36 123.46C158.36 123.447 158.36 123.43 158.36 123.41L159.58 123.38C159.58 123.393 159.58 123.41 159.58 123.43C159.58 123.443 159.58 123.457 159.58 123.47C159.58 124.043 159.73 124.567 160.03 125.04C160.337 125.513 160.737 125.89 161.23 126.17C161.723 126.45 162.253 126.59 162.82 126.59C163.76 126.59 164.54 126.27 165.16 125.63C165.787 124.983 166.1 124 166.1 122.68C166.1 121.353 165.79 120.373 165.17 119.74C164.55 119.1 163.767 118.78 162.82 118.78C162.253 118.78 161.723 118.92 161.23 119.2C160.737 119.473 160.337 119.843 160.03 120.31C159.73 120.777 159.58 121.3 159.58 121.88L158.36 121.84C158.36 120.927 158.58 120.123 159.02 119.43C159.467 118.737 160.047 118.197 160.76 117.81C161.473 117.417 162.24 117.22 163.06 117.22C163.92 117.22 164.713 117.433 165.44 117.86C166.167 118.28 166.75 118.897 167.19 119.71C167.63 120.523 167.85 121.513 167.85 122.68C167.85 123.867 167.633 124.873 167.2 125.7C166.767 126.52 166.187 127.143 165.46 127.57C164.733 127.99 163.933 128.2 163.06 128.2ZM171.057 123.37V121.85H179.267L178.967 122.35C178.967 122.31 178.967 122.273 178.967 122.24C178.967 122.2 178.967 122.163 178.967 122.13C178.967 121.517 178.837 120.957 178.577 120.45C178.323 119.937 177.943 119.527 177.437 119.22C176.93 118.913 176.303 118.76 175.557 118.76C174.803 118.76 174.14 118.92 173.567 119.24C172.993 119.56 172.547 120.013 172.227 120.6C171.907 121.18 171.747 121.873 171.747 122.68C171.747 123.5 171.9 124.207 172.207 124.8C172.52 125.393 172.963 125.85 173.537 126.17C174.11 126.49 174.79 126.65 175.577 126.65C176.137 126.65 176.623 126.593 177.037 126.48C177.45 126.36 177.79 126.203 178.057 126.01C178.33 125.81 178.537 125.593 178.677 125.36C178.817 125.127 178.9 124.893 178.927 124.66H180.627C180.593 125.087 180.46 125.51 180.227 125.93C179.993 126.35 179.663 126.733 179.237 127.08C178.81 127.42 178.287 127.693 177.667 127.9C177.047 128.107 176.333 128.21 175.527 128.21C174.46 128.21 173.52 127.977 172.707 127.51C171.893 127.043 171.253 126.397 170.787 125.57C170.327 124.743 170.097 123.793 170.097 122.72C170.097 121.633 170.33 120.68 170.797 119.86C171.263 119.033 171.907 118.387 172.727 117.92C173.547 117.453 174.483 117.22 175.537 117.22C176.61 117.22 177.54 117.453 178.327 117.92C179.113 118.387 179.72 119.027 180.147 119.84C180.573 120.647 180.787 121.567 180.787 122.6C180.787 122.707 180.783 122.847 180.777 123.02C180.77 123.193 180.76 123.31 180.747 123.37H171.057ZM183.436 128V117.38H185.136V120.64L184.576 120.44C184.616 120.047 184.716 119.66 184.876 119.28C185.036 118.893 185.256 118.547 185.536 118.24C185.823 117.927 186.18 117.68 186.606 117.5C187.033 117.313 187.533 117.22 188.106 117.22C188.533 117.22 188.88 117.257 189.146 117.33C189.42 117.397 189.59 117.45 189.656 117.49L189.216 119.16C189.15 119.113 189.013 119.053 188.806 118.98C188.606 118.907 188.32 118.87 187.946 118.87C187.393 118.87 186.933 118.97 186.566 119.17C186.206 119.37 185.92 119.637 185.706 119.97C185.5 120.297 185.353 120.653 185.266 121.04C185.18 121.427 185.136 121.81 185.136 122.19V128H183.436ZM191.583 128V117.38H193.263V128H191.583ZM192.433 114.94C192.12 114.94 191.846 114.853 191.613 114.68C191.386 114.5 191.273 114.257 191.273 113.95C191.273 113.65 191.386 113.413 191.613 113.24C191.846 113.06 192.12 112.97 192.433 112.97C192.746 112.97 193.016 113.06 193.243 113.24C193.47 113.413 193.583 113.65 193.583 113.95C193.583 114.257 193.47 114.5 193.243 114.68C193.016 114.853 192.746 114.94 192.433 114.94ZM196.975 123.37V121.85H205.185L204.885 122.35C204.885 122.31 204.885 122.273 204.885 122.24C204.885 122.2 204.885 122.163 204.885 122.13C204.885 121.517 204.755 120.957 204.495 120.45C204.241 119.937 203.861 119.527 203.355 119.22C202.848 118.913 202.221 118.76 201.475 118.76C200.721 118.76 200.058 118.92 199.485 119.24C198.911 119.56 198.465 120.013 198.145 120.6C197.825 121.18 197.665 121.873 197.665 122.68C197.665 123.5 197.818 124.207 198.125 124.8C198.438 125.393 198.881 125.85 199.455 126.17C200.028 126.49 200.708 126.65 201.495 126.65C202.055 126.65 202.541 126.593 202.955 126.48C203.368 126.36 203.708 126.203 203.975 126.01C204.248 125.81 204.455 125.593 204.595 125.36C204.735 125.127 204.818 124.893 204.845 124.66H206.545C206.511 125.087 206.378 125.51 206.145 125.93C205.911 126.35 205.581 126.733 205.155 127.08C204.728 127.42 204.205 127.693 203.585 127.9C202.965 128.107 202.251 128.21 201.445 128.21C200.378 128.21 199.438 127.977 198.625 127.51C197.811 127.043 197.171 126.397 196.705 125.57C196.245 124.743 196.015 123.793 196.015 122.72C196.015 121.633 196.248 120.68 196.715 119.86C197.181 119.033 197.825 118.387 198.645 117.92C199.465 117.453 200.401 117.22 201.455 117.22C202.528 117.22 203.458 117.453 204.245 117.92C205.031 118.387 205.638 119.027 206.065 119.84C206.491 120.647 206.705 121.567 206.705 122.6C206.705 122.707 206.701 122.847 206.695 123.02C206.688 123.193 206.678 123.31 206.665 123.37H196.975ZM216.954 128V122.91C216.954 122.603 216.954 122.353 216.954 122.16C216.954 121.96 216.954 121.77 216.954 121.59C216.954 121.037 216.861 120.553 216.674 120.14C216.488 119.727 216.194 119.407 215.794 119.18C215.394 118.953 214.871 118.84 214.224 118.84C213.658 118.84 213.131 118.987 212.644 119.28C212.164 119.567 211.778 119.957 211.484 120.45C211.198 120.937 211.054 121.483 211.054 122.09L210.084 121.72C210.084 120.887 210.288 120.13 210.694 119.45C211.108 118.77 211.654 118.23 212.334 117.83C213.021 117.423 213.768 117.22 214.574 117.22C215.394 117.22 216.111 117.377 216.724 117.69C217.338 118.003 217.811 118.453 218.144 119.04C218.484 119.62 218.654 120.32 218.654 121.14C218.654 121.433 218.654 121.753 218.654 122.1C218.654 122.447 218.654 122.77 218.654 123.07V128H216.954ZM209.354 128V117.38H211.054V128H209.354ZM226.66 128.2C225.647 128.2 224.727 127.98 223.9 127.54C223.073 127.093 222.417 126.457 221.93 125.63C221.45 124.803 221.21 123.82 221.21 122.68C221.21 121.54 221.45 120.563 221.93 119.75C222.417 118.93 223.073 118.303 223.9 117.87C224.727 117.437 225.647 117.22 226.66 117.22C227.433 117.22 228.123 117.34 228.73 117.58C229.337 117.813 229.85 118.127 230.27 118.52C230.69 118.913 231.01 119.347 231.23 119.82C231.457 120.287 231.57 120.753 231.57 121.22C231.57 121.227 231.57 121.237 231.57 121.25C231.57 121.263 231.57 121.277 231.57 121.29H229.88C229.88 121.257 229.877 121.22 229.87 121.18C229.863 121.133 229.857 121.087 229.85 121.04C229.797 120.593 229.627 120.203 229.34 119.87C229.053 119.53 228.68 119.263 228.22 119.07C227.76 118.877 227.237 118.78 226.65 118.78C225.99 118.78 225.377 118.923 224.81 119.21C224.25 119.49 223.797 119.92 223.45 120.5C223.11 121.073 222.94 121.8 222.94 122.68C222.94 123.553 223.11 124.283 223.45 124.87C223.79 125.457 224.24 125.9 224.8 126.2C225.367 126.493 225.983 126.64 226.65 126.64C227.37 126.64 227.963 126.527 228.43 126.3C228.897 126.073 229.247 125.773 229.48 125.4C229.72 125.02 229.853 124.613 229.88 124.18H231.57C231.57 124.66 231.463 125.14 231.25 125.62C231.037 126.093 230.723 126.527 230.31 126.92C229.897 127.307 229.383 127.617 228.77 127.85C228.163 128.083 227.46 128.2 226.66 128.2ZM234.768 123.37V121.85H242.978L242.678 122.35C242.678 122.31 242.678 122.273 242.678 122.24C242.678 122.2 242.678 122.163 242.678 122.13C242.678 121.517 242.548 120.957 242.288 120.45C242.034 119.937 241.654 119.527 241.148 119.22C240.641 118.913 240.014 118.76 239.268 118.76C238.514 118.76 237.851 118.92 237.278 119.24C236.704 119.56 236.258 120.013 235.938 120.6C235.618 121.18 235.458 121.873 235.458 122.68C235.458 123.5 235.611 124.207 235.918 124.8C236.231 125.393 236.674 125.85 237.248 126.17C237.821 126.49 238.501 126.65 239.288 126.65C239.848 126.65 240.334 126.593 240.748 126.48C241.161 126.36 241.501 126.203 241.768 126.01C242.041 125.81 242.248 125.593 242.388 125.36C242.528 125.127 242.611 124.893 242.638 124.66H244.338C244.304 125.087 244.171 125.51 243.938 125.93C243.704 126.35 243.374 126.733 242.948 127.08C242.521 127.42 241.998 127.693 241.378 127.9C240.758 128.107 240.044 128.21 239.238 128.21C238.171 128.21 237.231 127.977 236.418 127.51C235.604 127.043 234.964 126.397 234.498 125.57C234.038 124.743 233.808 123.793 233.808 122.72C233.808 121.633 234.041 120.68 234.508 119.86C234.974 119.033 235.618 118.387 236.438 117.92C237.258 117.453 238.194 117.22 239.248 117.22C240.321 117.22 241.251 117.453 242.038 117.92C242.824 118.387 243.431 119.027 243.858 119.84C244.284 120.647 244.498 121.567 244.498 122.6C244.498 122.707 244.494 122.847 244.488 123.02C244.481 123.193 244.471 123.31 244.458 123.37H234.768Z" fill="#391400"/>
<path d="M452.02 55.72V55.76H439.28V50.5H459.48V55.36C458.2 56.2933 457.093 57.4267 456.16 58.76C455.227 60.0933 454.44 61.58 453.8 63.22C453.16 64.86 452.647 66.6 452.26 68.44C451.873 70.28 451.593 72.18 451.42 74.14C451.26 76.0867 451.18 78.04 451.18 80H444.02C444.02 77.8933 444.107 75.8533 444.28 73.88C444.453 71.8933 444.727 70.0067 445.1 68.22C445.487 66.42 445.987 64.74 446.6 63.18C447.227 61.62 447.987 60.2133 448.88 58.96C449.773 57.6933 450.82 56.6133 452.02 55.72ZM477.647 64.44C478.793 64.48 479.807 64.8067 480.687 65.42C481.58 66.02 482.273 66.8267 482.767 67.84C483.26 68.8533 483.507 70.0067 483.507 71.3C483.507 72.9133 483.133 74.42 482.387 75.82C481.653 77.22 480.5 78.3533 478.927 79.22C477.353 80.0733 475.327 80.5 472.847 80.5C470.7 80.5 468.927 80.2267 467.527 79.68C466.127 79.12 465.02 78.36 464.207 77.4C463.393 76.44 462.82 75.36 462.487 74.16C462.153 72.9467 461.987 71.68 461.987 70.36C461.987 70.3467 461.987 70.3333 461.987 70.32C461.987 70.3067 461.987 70.2933 461.987 70.28H469.107C469.107 70.2933 469.107 70.3067 469.107 70.32C469.107 70.3333 469.107 70.3467 469.107 70.36C469.107 71.6 469.267 72.56 469.587 73.24C469.907 73.92 470.347 74.4 470.907 74.68C471.48 74.9467 472.153 75.08 472.927 75.08C473.927 75.08 474.747 74.78 475.387 74.18C476.04 73.58 476.367 72.5533 476.367 71.1C476.367 70.4333 476.287 69.8533 476.127 69.36C475.967 68.8533 475.72 68.4333 475.387 68.1C475.067 67.7667 474.633 67.52 474.087 67.36C473.553 67.2 472.9 67.12 472.127 67.12H471.127V62.24H472.127C472.9 62.24 473.553 62.14 474.087 61.94C474.62 61.74 475.053 61.4733 475.387 61.14C475.733 60.7933 475.98 60.3933 476.127 59.94C476.287 59.4867 476.367 59.0133 476.367 58.52C476.367 57.4667 476.047 56.6933 475.407 56.2C474.78 55.7067 473.993 55.46 473.047 55.46C471.94 55.46 471.007 55.7733 470.247 56.4C469.487 57.0267 469.107 58.1533 469.107 59.78H461.987C461.987 58.5133 462.187 57.3 462.587 56.14C462.987 54.9667 463.613 53.9267 464.467 53.02C465.333 52.1 466.46 51.3733 467.847 50.84C469.247 50.2933 470.933 50.02 472.907 50.02C475.413 50.02 477.44 50.42 478.987 51.22C480.547 52.02 481.687 53.0467 482.407 54.3C483.14 55.54 483.507 56.82 483.507 58.14C483.507 59.2733 483.26 60.3133 482.767 61.26C482.273 62.1933 481.58 62.9467 480.687 63.52C479.807 64.08 478.793 64.3867 477.647 64.44ZM506.971 71.68H501.231V76.22H496.791V71.68H491.031V67.3H496.791V62.74H501.231V67.3H506.971V71.68Z" fill="#391400"/>
<path d="M438.78 128L442.84 113.21H445.5L449.53 128H447.77L444.16 114.32H444.18L440.54 128H438.78ZM440.88 124.09V122.59H447.46V124.09H440.88ZM458.615 127.35C459.188 127.397 459.691 127.503 460.125 127.67C460.565 127.83 460.908 128.067 461.155 128.38C461.401 128.7 461.525 129.117 461.525 129.63C461.525 130.197 461.331 130.697 460.945 131.13C460.558 131.57 459.971 131.913 459.185 132.16C458.398 132.407 457.408 132.53 456.215 132.53C454.528 132.53 453.255 132.283 452.395 131.79C451.535 131.303 451.105 130.637 451.105 129.79C451.105 129.523 451.135 129.287 451.195 129.08C451.261 128.88 451.335 128.717 451.415 128.59L453.035 128.83C452.981 128.903 452.928 129.013 452.875 129.16C452.828 129.313 452.805 129.49 452.805 129.69C452.805 130.223 453.108 130.597 453.715 130.81C454.321 131.03 455.181 131.14 456.295 131.14C457.128 131.14 457.811 131.083 458.345 130.97C458.878 130.857 459.275 130.693 459.535 130.48C459.795 130.267 459.925 130.017 459.925 129.73C459.925 129.297 459.741 129.027 459.375 128.92C459.015 128.82 458.568 128.75 458.035 128.71L453.995 128.41C453.321 128.357 452.771 128.15 452.345 127.79C451.925 127.423 451.715 126.98 451.715 126.46C451.715 126.14 451.791 125.837 451.945 125.55C452.105 125.263 452.288 125.023 452.495 124.83C452.708 124.63 452.898 124.51 453.065 124.47L454.405 125.08C454.238 125.107 454.031 125.223 453.785 125.43C453.545 125.63 453.425 125.867 453.425 126.14C453.425 126.387 453.521 126.59 453.715 126.75C453.908 126.903 454.291 127.003 454.865 127.05L458.615 127.35ZM460.085 117.38H461.685L461.025 121.56C460.905 122.34 460.655 123.047 460.275 123.68C459.895 124.307 459.375 124.807 458.715 125.18C458.061 125.547 457.251 125.73 456.285 125.73C455.278 125.73 454.418 125.547 453.705 125.18C452.991 124.813 452.445 124.313 452.065 123.68C451.685 123.04 451.495 122.32 451.495 121.52C451.495 120.707 451.691 119.977 452.085 119.33C452.485 118.677 453.038 118.163 453.745 117.79C454.451 117.41 455.261 117.22 456.175 117.22C456.995 117.22 457.711 117.363 458.325 117.65C458.938 117.93 459.421 118.283 459.775 118.71C460.135 119.137 460.335 119.567 460.375 120L459.735 120.04L460.085 117.38ZM456.275 124.21C456.921 124.21 457.475 124.103 457.935 123.89C458.401 123.677 458.758 123.367 459.005 122.96C459.258 122.553 459.385 122.06 459.385 121.48C459.385 120.92 459.258 120.437 459.005 120.03C458.758 119.617 458.401 119.3 457.935 119.08C457.475 118.853 456.925 118.74 456.285 118.74C455.671 118.74 455.128 118.857 454.655 119.09C454.188 119.317 453.821 119.637 453.555 120.05C453.295 120.463 453.165 120.95 453.165 121.51C453.165 122.077 453.288 122.563 453.535 122.97C453.788 123.37 454.145 123.677 454.605 123.89C455.071 124.103 455.628 124.21 456.275 124.21ZM464.064 123.37V121.85H472.274L471.974 122.35C471.974 122.31 471.974 122.273 471.974 122.24C471.974 122.2 471.974 122.163 471.974 122.13C471.974 121.517 471.844 120.957 471.584 120.45C471.331 119.937 470.951 119.527 470.444 119.22C469.938 118.913 469.311 118.76 468.564 118.76C467.811 118.76 467.148 118.92 466.574 119.24C466.001 119.56 465.554 120.013 465.234 120.6C464.914 121.18 464.754 121.873 464.754 122.68C464.754 123.5 464.908 124.207 465.214 124.8C465.528 125.393 465.971 125.85 466.544 126.17C467.118 126.49 467.798 126.65 468.584 126.65C469.144 126.65 469.631 126.593 470.044 126.48C470.458 126.36 470.798 126.203 471.064 126.01C471.338 125.81 471.544 125.593 471.684 125.36C471.824 125.127 471.908 124.893 471.934 124.66H473.634C473.601 125.087 473.468 125.51 473.234 125.93C473.001 126.35 472.671 126.733 472.244 127.08C471.818 127.42 471.294 127.693 470.674 127.9C470.054 128.107 469.341 128.21 468.534 128.21C467.468 128.21 466.528 127.977 465.714 127.51C464.901 127.043 464.261 126.397 463.794 125.57C463.334 124.743 463.104 123.793 463.104 122.72C463.104 121.633 463.338 120.68 463.804 119.86C464.271 119.033 464.914 118.387 465.734 117.92C466.554 117.453 467.491 117.22 468.544 117.22C469.618 117.22 470.548 117.453 471.334 117.92C472.121 118.387 472.728 119.027 473.154 119.84C473.581 120.647 473.794 121.567 473.794 122.6C473.794 122.707 473.791 122.847 473.784 123.02C473.778 123.193 473.768 123.31 473.754 123.37H464.064ZM484.044 128V122.91C484.044 122.603 484.044 122.353 484.044 122.16C484.044 121.96 484.044 121.77 484.044 121.59C484.044 121.037 483.951 120.553 483.764 120.14C483.577 119.727 483.284 119.407 482.884 119.18C482.484 118.953 481.961 118.84 481.314 118.84C480.747 118.84 480.221 118.987 479.734 119.28C479.254 119.567 478.867 119.957 478.574 120.45C478.287 120.937 478.144 121.483 478.144 122.09L477.174 121.72C477.174 120.887 477.377 120.13 477.784 119.45C478.197 118.77 478.744 118.23 479.424 117.83C480.111 117.423 480.857 117.22 481.664 117.22C482.484 117.22 483.201 117.377 483.814 117.69C484.427 118.003 484.901 118.453 485.234 119.04C485.574 119.62 485.744 120.32 485.744 121.14C485.744 121.433 485.744 121.753 485.744 122.1C485.744 122.447 485.744 122.77 485.744 123.07V128H484.044ZM476.444 128V117.38H478.144V128H476.444ZM493.75 128.2C492.736 128.2 491.816 127.98 490.99 127.54C490.163 127.093 489.506 126.457 489.02 125.63C488.54 124.803 488.3 123.82 488.3 122.68C488.3 121.54 488.54 120.563 489.02 119.75C489.506 118.93 490.163 118.303 490.99 117.87C491.816 117.437 492.736 117.22 493.75 117.22C494.523 117.22 495.213 117.34 495.82 117.58C496.426 117.813 496.94 118.127 497.36 118.52C497.78 118.913 498.1 119.347 498.32 119.82C498.546 120.287 498.66 120.753 498.66 121.22C498.66 121.227 498.66 121.237 498.66 121.25C498.66 121.263 498.66 121.277 498.66 121.29H496.97C496.97 121.257 496.966 121.22 496.96 121.18C496.953 121.133 496.946 121.087 496.94 121.04C496.886 120.593 496.716 120.203 496.43 119.87C496.143 119.53 495.77 119.263 495.31 119.07C494.85 118.877 494.326 118.78 493.74 118.78C493.08 118.78 492.466 118.923 491.9 119.21C491.34 119.49 490.886 119.92 490.54 120.5C490.2 121.073 490.03 121.8 490.03 122.68C490.03 123.553 490.2 124.283 490.54 124.87C490.88 125.457 491.33 125.9 491.89 126.2C492.456 126.493 493.073 126.64 493.74 126.64C494.46 126.64 495.053 126.527 495.52 126.3C495.986 126.073 496.336 125.773 496.57 125.4C496.81 125.02 496.943 124.613 496.97 124.18H498.66C498.66 124.66 498.553 125.14 498.34 125.62C498.126 126.093 497.813 126.527 497.4 126.92C496.986 127.307 496.473 127.617 495.86 127.85C495.253 128.083 494.55 128.2 493.75 128.2ZM500.983 132.48C500.716 132.48 500.473 132.463 500.253 132.43C500.033 132.403 499.896 132.377 499.843 132.35V130.87C499.929 130.91 500.073 130.943 500.273 130.97C500.473 130.997 500.673 131.01 500.873 131.01C501.299 131.01 501.659 130.92 501.953 130.74C502.246 130.567 502.493 130.327 502.693 130.02C502.893 129.72 503.056 129.38 503.183 129L503.503 128.06L499.843 117.38H501.623L504.563 126.53H504.323L507.203 117.38H508.953L505.063 128.91C504.843 129.557 504.576 130.15 504.263 130.69C503.956 131.23 503.543 131.663 503.023 131.99C502.509 132.317 501.829 132.48 500.983 132.48ZM522.603 128V123.31C522.603 122.897 522.603 122.54 522.603 122.24C522.603 121.933 522.603 121.677 522.603 121.47C522.603 121.21 522.583 120.93 522.543 120.63C522.51 120.323 522.426 120.037 522.293 119.77C522.16 119.497 521.95 119.273 521.663 119.1C521.383 118.927 520.993 118.84 520.493 118.84C519.986 118.84 519.56 118.94 519.213 119.14C518.866 119.333 518.586 119.59 518.373 119.91C518.16 120.23 518.006 120.583 517.913 120.97C517.82 121.35 517.773 121.727 517.773 122.1L516.813 121.71C516.813 120.91 516.98 120.17 517.313 119.49C517.646 118.81 518.113 118.263 518.713 117.85C519.32 117.43 520.03 117.22 520.843 117.22C521.65 117.22 522.306 117.383 522.813 117.71C523.32 118.037 523.693 118.487 523.933 119.06C524.173 119.633 524.293 120.293 524.293 121.04C524.293 121.307 524.293 121.65 524.293 122.07C524.293 122.483 524.293 122.957 524.293 123.49V128H522.603ZM516.073 128V117.38H517.773V128H516.073ZM529.113 128V123.31C529.113 122.857 529.113 122.483 529.113 122.19C529.113 121.89 529.113 121.637 529.113 121.43C529.113 121.17 529.096 120.89 529.063 120.59C529.03 120.29 528.946 120.01 528.813 119.75C528.68 119.483 528.466 119.267 528.173 119.1C527.886 118.927 527.483 118.84 526.963 118.84C526.45 118.84 526.02 118.937 525.673 119.13C525.333 119.323 525.06 119.577 524.853 119.89C524.653 120.203 524.51 120.543 524.423 120.91C524.336 121.27 524.293 121.617 524.293 121.95L523.333 121.58C523.333 120.82 523.493 120.11 523.813 119.45C524.14 118.783 524.6 118.247 525.193 117.84C525.793 117.427 526.503 117.22 527.323 117.22C528.09 117.22 528.73 117.37 529.243 117.67C529.763 117.97 530.153 118.393 530.413 118.94C530.68 119.48 530.813 120.123 530.813 120.87C530.813 121.15 530.813 121.497 530.813 121.91C530.813 122.323 530.813 122.79 530.813 123.31V128H529.113ZM534.318 123.37V121.85H542.528L542.228 122.35C542.228 122.31 542.228 122.273 542.228 122.24C542.228 122.2 542.228 122.163 542.228 122.13C542.228 121.517 542.098 120.957 541.838 120.45C541.585 119.937 541.205 119.527 540.698 119.22C540.192 118.913 539.565 118.76 538.818 118.76C538.065 118.76 537.402 118.92 536.828 119.24C536.255 119.56 535.808 120.013 535.488 120.6C535.168 121.18 535.008 121.873 535.008 122.68C535.008 123.5 535.162 124.207 535.468 124.8C535.782 125.393 536.225 125.85 536.798 126.17C537.372 126.49 538.052 126.65 538.838 126.65C539.398 126.65 539.885 126.593 540.298 126.48C540.712 126.36 541.052 126.203 541.318 126.01C541.592 125.81 541.798 125.593 541.938 125.36C542.078 125.127 542.162 124.893 542.188 124.66H543.888C543.855 125.087 543.722 125.51 543.488 125.93C543.255 126.35 542.925 126.733 542.498 127.08C542.072 127.42 541.548 127.693 540.928 127.9C540.308 128.107 539.595 128.21 538.788 128.21C537.722 128.21 536.782 127.977 535.968 127.51C535.155 127.043 534.515 126.397 534.048 125.57C533.588 124.743 533.358 123.793 533.358 122.72C533.358 121.633 533.592 120.68 534.058 119.86C534.525 119.033 535.168 118.387 535.988 117.92C536.808 117.453 537.745 117.22 538.798 117.22C539.872 117.22 540.802 117.453 541.588 117.92C542.375 118.387 542.982 119.027 543.408 119.84C543.835 120.647 544.048 121.567 544.048 122.6C544.048 122.707 544.045 122.847 544.038 123.02C544.032 123.193 544.022 123.31 544.008 123.37H534.318ZM553.228 128V123.31C553.228 122.897 553.228 122.54 553.228 122.24C553.228 121.933 553.228 121.677 553.228 121.47C553.228 121.21 553.208 120.93 553.168 120.63C553.135 120.323 553.051 120.037 552.918 119.77C552.785 119.497 552.575 119.273 552.288 119.1C552.008 118.927 551.618 118.84 551.118 118.84C550.611 118.84 550.185 118.94 549.838 119.14C549.491 119.333 549.211 119.59 548.998 119.91C548.785 120.23 548.631 120.583 548.538 120.97C548.445 121.35 548.398 121.727 548.398 122.1L547.438 121.71C547.438 120.91 547.605 120.17 547.938 119.49C548.271 118.81 548.738 118.263 549.338 117.85C549.945 117.43 550.655 117.22 551.468 117.22C552.275 117.22 552.931 117.383 553.438 117.71C553.945 118.037 554.318 118.487 554.558 119.06C554.798 119.633 554.918 120.293 554.918 121.04C554.918 121.307 554.918 121.65 554.918 122.07C554.918 122.483 554.918 122.957 554.918 123.49V128H553.228ZM546.698 128V117.38H548.398V128H546.698ZM559.738 128V123.31C559.738 122.857 559.738 122.483 559.738 122.19C559.738 121.89 559.738 121.637 559.738 121.43C559.738 121.17 559.721 120.89 559.688 120.59C559.655 120.29 559.571 120.01 559.438 119.75C559.305 119.483 559.091 119.267 558.798 119.1C558.511 118.927 558.108 118.84 557.588 118.84C557.075 118.84 556.645 118.937 556.298 119.13C555.958 119.323 555.685 119.577 555.478 119.89C555.278 120.203 555.135 120.543 555.048 120.91C554.961 121.27 554.918 121.617 554.918 121.95L553.958 121.58C553.958 120.82 554.118 120.11 554.438 119.45C554.765 118.783 555.225 118.247 555.818 117.84C556.418 117.427 557.128 117.22 557.948 117.22C558.715 117.22 559.355 117.37 559.868 117.67C560.388 117.97 560.778 118.393 561.038 118.94C561.305 119.48 561.438 120.123 561.438 120.87C561.438 121.15 561.438 121.497 561.438 121.91C561.438 122.323 561.438 122.79 561.438 123.31V128H559.738ZM569.583 128.2C568.763 128.2 567.997 128 567.283 127.6C566.57 127.193 565.99 126.637 565.543 125.93C565.103 125.223 564.883 124.417 564.883 123.51C564.883 123.49 564.883 123.473 564.883 123.46C564.883 123.447 564.883 123.43 564.883 123.41L566.103 123.38C566.103 123.393 566.103 123.41 566.103 123.43C566.103 123.443 566.103 123.457 566.103 123.47C566.103 124.043 566.253 124.567 566.553 125.04C566.86 125.513 567.26 125.89 567.753 126.17C568.247 126.45 568.777 126.59 569.343 126.59C570.283 126.59 571.063 126.27 571.683 125.63C572.31 124.983 572.623 124 572.623 122.68C572.623 121.353 572.313 120.373 571.693 119.74C571.073 119.1 570.29 118.78 569.343 118.78C568.777 118.78 568.247 118.92 567.753 119.2C567.26 119.473 566.86 119.843 566.553 120.31C566.253 120.777 566.103 121.3 566.103 121.88L564.883 121.84C564.883 120.927 565.103 120.123 565.543 119.43C565.99 118.737 566.57 118.197 567.283 117.81C567.997 117.417 568.763 117.22 569.583 117.22C570.443 117.22 571.237 117.433 571.963 117.86C572.69 118.28 573.273 118.897 573.713 119.71C574.153 120.523 574.373 121.513 574.373 122.68C574.373 123.867 574.157 124.873 573.723 125.7C573.29 126.52 572.71 127.143 571.983 127.57C571.257 127.99 570.457 128.2 569.583 128.2ZM564.393 128V112.37H566.103V128H564.393ZM577.58 123.37V121.85H585.79L585.49 122.35C585.49 122.31 585.49 122.273 585.49 122.24C585.49 122.2 585.49 122.163 585.49 122.13C585.49 121.517 585.36 120.957 585.1 120.45C584.847 119.937 584.467 119.527 583.96 119.22C583.453 118.913 582.827 118.76 582.08 118.76C581.327 118.76 580.663 118.92 580.09 119.24C579.517 119.56 579.07 120.013 578.75 120.6C578.43 121.18 578.27 121.873 578.27 122.68C578.27 123.5 578.423 124.207 578.73 124.8C579.043 125.393 579.487 125.85 580.06 126.17C580.633 126.49 581.313 126.65 582.1 126.65C582.66 126.65 583.147 126.593 583.56 126.48C583.973 126.36 584.313 126.203 584.58 126.01C584.853 125.81 585.06 125.593 585.2 125.36C585.34 125.127 585.423 124.893 585.45 124.66H587.15C587.117 125.087 586.983 125.51 586.75 125.93C586.517 126.35 586.187 126.733 585.76 127.08C585.333 127.42 584.81 127.693 584.19 127.9C583.57 128.107 582.857 128.21 582.05 128.21C580.983 128.21 580.043 127.977 579.23 127.51C578.417 127.043 577.777 126.397 577.31 125.57C576.85 124.743 576.62 123.793 576.62 122.72C576.62 121.633 576.853 120.68 577.32 119.86C577.787 119.033 578.43 118.387 579.25 117.92C580.07 117.453 581.007 117.22 582.06 117.22C583.133 117.22 584.063 117.453 584.85 117.92C585.637 118.387 586.243 119.027 586.67 119.84C587.097 120.647 587.31 121.567 587.31 122.6C587.31 122.707 587.307 122.847 587.3 123.02C587.293 123.193 587.283 123.31 587.27 123.37H577.58ZM589.96 128V117.38H591.66V120.64L591.1 120.44C591.14 120.047 591.24 119.66 591.4 119.28C591.56 118.893 591.78 118.547 592.06 118.24C592.346 117.927 592.703 117.68 593.13 117.5C593.556 117.313 594.056 117.22 594.63 117.22C595.056 117.22 595.403 117.257 595.67 117.33C595.943 117.397 596.113 117.45 596.18 117.49L595.74 119.16C595.673 119.113 595.536 119.053 595.33 118.98C595.13 118.907 594.843 118.87 594.47 118.87C593.916 118.87 593.456 118.97 593.09 119.17C592.73 119.37 592.443 119.637 592.23 119.97C592.023 120.297 591.876 120.653 591.79 121.04C591.703 121.427 591.66 121.81 591.66 122.19V128H589.96ZM601.871 128.2C601.231 128.2 600.638 128.133 600.091 128C599.551 127.86 599.078 127.66 598.671 127.4C598.271 127.133 597.958 126.807 597.731 126.42C597.511 126.033 597.401 125.59 597.401 125.09C597.401 125.037 597.401 124.983 597.401 124.93C597.401 124.87 597.401 124.82 597.401 124.78H599.111C599.111 124.82 599.111 124.853 599.111 124.88C599.111 124.907 599.111 124.947 599.111 125C599.111 125.54 599.361 125.953 599.861 126.24C600.361 126.52 601.045 126.66 601.911 126.66C602.445 126.66 602.921 126.607 603.341 126.5C603.761 126.393 604.091 126.23 604.331 126.01C604.578 125.79 604.701 125.513 604.701 125.18C604.701 124.627 604.441 124.233 603.921 124C603.408 123.76 602.638 123.553 601.611 123.38C601.071 123.287 600.558 123.167 600.071 123.02C599.585 122.867 599.151 122.67 598.771 122.43C598.398 122.19 598.101 121.893 597.881 121.54C597.668 121.18 597.561 120.75 597.561 120.25C597.561 119.603 597.751 119.057 598.131 118.61C598.518 118.157 599.038 117.813 599.691 117.58C600.345 117.34 601.071 117.22 601.871 117.22C602.645 117.22 603.358 117.343 604.011 117.59C604.665 117.837 605.188 118.197 605.581 118.67C605.981 119.137 606.181 119.713 606.181 120.4C606.181 120.427 606.181 120.46 606.181 120.5C606.181 120.533 606.181 120.567 606.181 120.6H604.481C604.481 120.567 604.481 120.54 604.481 120.52C604.481 120.5 604.481 120.477 604.481 120.45C604.481 120.063 604.358 119.747 604.111 119.5C603.865 119.247 603.545 119.06 603.151 118.94C602.758 118.813 602.338 118.75 601.891 118.75C601.471 118.75 601.058 118.797 600.651 118.89C600.245 118.977 599.908 119.123 599.641 119.33C599.375 119.537 599.241 119.82 599.241 120.18C599.241 120.54 599.365 120.83 599.611 121.05C599.865 121.263 600.218 121.44 600.671 121.58C601.131 121.713 601.671 121.837 602.291 121.95C602.845 122.05 603.368 122.177 603.861 122.33C604.355 122.477 604.788 122.667 605.161 122.9C605.541 123.133 605.838 123.43 606.051 123.79C606.271 124.143 606.381 124.577 606.381 125.09C606.381 125.61 606.261 126.063 606.021 126.45C605.788 126.837 605.461 127.16 605.041 127.42C604.628 127.68 604.148 127.873 603.601 128C603.061 128.133 602.485 128.2 601.871 128.2Z" fill="#391400"/>
<path d="M850.02 55.74H838.3L837.22 62.78C837.26 62.66 837.4 62.4933 837.64 62.28C837.88 62.0667 838.213 61.8533 838.64 61.64C839.067 61.4133 839.593 61.2267 840.22 61.08C840.86 60.9333 841.593 60.86 842.42 60.86C845.167 60.86 847.26 61.7267 848.7 63.46C850.14 65.18 850.86 67.4267 850.86 70.2C850.86 72.44 850.46 74.3267 849.66 75.86C848.86 77.3933 847.673 78.5533 846.1 79.34C844.527 80.1133 842.56 80.5 840.2 80.5C838.267 80.5 836.633 80.2133 835.3 79.64C833.98 79.0667 832.913 78.3133 832.1 77.38C831.287 76.4467 830.7 75.42 830.34 74.3C829.98 73.18 829.8 72.0733 829.8 70.98C829.8 70.9533 829.8 70.9333 829.8 70.92C829.8 70.9067 829.8 70.8933 829.8 70.88H836.86C836.86 70.8933 836.86 70.9067 836.86 70.92C836.86 70.9333 836.86 70.9533 836.86 70.98C836.94 72.2067 837.233 73.2 837.74 73.96C838.247 74.7067 839.107 75.08 840.32 75.08C841.093 75.08 841.727 74.9067 842.22 74.56C842.727 74.2133 843.1 73.6933 843.34 73C843.58 72.2933 843.7 71.4133 843.7 70.36C843.7 68.9467 843.453 67.8333 842.96 67.02C842.48 66.2067 841.66 65.8 840.5 65.8C839.847 65.8 839.273 65.9267 838.78 66.18C838.287 66.42 837.887 66.72 837.58 67.08C837.273 67.44 837.053 67.8067 836.92 68.18L830.16 66.42L832.6 50.5H850.02V55.74ZM859.138 80.62C858.138 80.62 857.285 80.2667 856.578 79.56C855.885 78.8533 855.538 78 855.538 77C855.538 76.0133 855.885 75.1667 856.578 74.46C857.285 73.7533 858.145 73.4 859.158 73.4C860.145 73.4 860.985 73.7533 861.678 74.46C862.385 75.1667 862.738 76.0133 862.738 77C862.738 78 862.385 78.8533 861.678 79.56C860.985 80.2667 860.138 80.62 859.138 80.62ZM877.168 80.5C875.194 80.5 873.521 80.0867 872.148 79.26C870.774 78.4333 869.661 77.3133 868.808 75.9C867.954 74.4867 867.334 72.8733 866.948 71.06C866.561 69.2333 866.368 67.32 866.368 65.32C866.368 63.32 866.561 61.4067 866.948 59.58C867.334 57.74 867.954 56.1067 868.808 54.68C869.661 53.24 870.774 52.1067 872.148 51.28C873.521 50.44 875.194 50.02 877.168 50.02C879.128 50.02 880.794 50.44 882.168 51.28C883.541 52.1067 884.654 53.24 885.508 54.68C886.361 56.1067 886.981 57.74 887.368 59.58C887.768 61.4067 887.968 63.32 887.968 65.32C887.968 67.32 887.768 69.2333 887.368 71.06C886.981 72.8733 886.361 74.4867 885.508 75.9C884.654 77.3133 883.541 78.4333 882.168 79.26C880.794 80.0867 879.128 80.5 877.168 80.5ZM877.168 75.08C877.941 75.08 878.594 74.7733 879.128 74.16C879.661 73.5467 880.068 72.5267 880.348 71.1C880.628 69.6733 880.768 67.7467 880.768 65.32C880.768 62.88 880.628 60.9467 880.348 59.52C880.068 58.0933 879.661 57.08 879.128 56.48C878.594 55.8667 877.941 55.56 877.168 55.56C876.408 55.56 875.754 55.8667 875.208 56.48C874.661 57.08 874.248 58.0933 873.968 59.52C873.688 60.9467 873.548 62.88 873.548 65.32C873.548 67.76 873.688 69.6933 873.968 71.12C874.248 72.5333 874.661 73.5467 875.208 74.16C875.754 74.7733 876.408 75.08 877.168 75.08ZM901.425 80.5C899.452 80.5 897.779 80.0867 896.405 79.26C895.032 78.4333 893.919 77.3133 893.065 75.9C892.212 74.4867 891.592 72.8733 891.205 71.06C890.819 69.2333 890.625 67.32 890.625 65.32C890.625 63.32 890.819 61.4067 891.205 59.58C891.592 57.74 892.212 56.1067 893.065 54.68C893.919 53.24 895.032 52.1067 896.405 51.28C897.779 50.44 899.452 50.02 901.425 50.02C903.385 50.02 905.052 50.44 906.425 51.28C907.799 52.1067 908.912 53.24 909.765 54.68C910.619 56.1067 911.239 57.74 911.625 59.58C912.025 61.4067 912.225 63.32 912.225 65.32C912.225 67.32 912.025 69.2333 911.625 71.06C911.239 72.8733 910.619 74.4867 909.765 75.9C908.912 77.3133 907.799 78.4333 906.425 79.26C905.052 80.0867 903.385 80.5 901.425 80.5ZM901.425 75.08C902.199 75.08 902.852 74.7733 903.385 74.16C903.919 73.5467 904.325 72.5267 904.605 71.1C904.885 69.6733 905.025 67.7467 905.025 65.32C905.025 62.88 904.885 60.9467 904.605 59.52C904.325 58.0933 903.919 57.08 903.385 56.48C902.852 55.8667 902.199 55.56 901.425 55.56C900.665 55.56 900.012 55.8667 899.465 56.48C898.919 57.08 898.505 58.0933 898.225 59.52C897.945 60.9467 897.805 62.88 897.805 65.32C897.805 67.76 897.945 69.6933 898.225 71.12C898.505 72.5333 898.919 73.5467 899.465 74.16C900.012 74.7733 900.665 75.08 901.425 75.08ZM925.683 80.5C923.71 80.5 922.036 80.0867 920.663 79.26C919.29 78.4333 918.176 77.3133 917.323 75.9C916.47 74.4867 915.85 72.8733 915.463 71.06C915.076 69.2333 914.883 67.32 914.883 65.32C914.883 63.32 915.076 61.4067 915.463 59.58C915.85 57.74 916.47 56.1067 917.323 54.68C918.176 53.24 919.29 52.1067 920.663 51.28C922.036 50.44 923.71 50.02 925.683 50.02C927.643 50.02 929.31 50.44 930.683 51.28C932.056 52.1067 933.17 53.24 934.023 54.68C934.876 56.1067 935.496 57.74 935.883 59.58C936.283 61.4067 936.483 63.32 936.483 65.32C936.483 67.32 936.283 69.2333 935.883 71.06C935.496 72.8733 934.876 74.4867 934.023 75.9C933.17 77.3133 932.056 78.4333 930.683 79.26C929.31 80.0867 927.643 80.5 925.683 80.5ZM925.683 75.08C926.456 75.08 927.11 74.7733 927.643 74.16C928.176 73.5467 928.583 72.5267 928.863 71.1C929.143 69.6733 929.283 67.7467 929.283 65.32C929.283 62.88 929.143 60.9467 928.863 59.52C928.583 58.0933 928.176 57.08 927.643 56.48C927.11 55.8667 926.456 55.56 925.683 55.56C924.923 55.56 924.27 55.8667 923.723 56.48C923.176 57.08 922.763 58.0933 922.483 59.52C922.203 60.9467 922.063 62.88 922.063 65.32C922.063 67.76 922.203 69.6933 922.483 71.12C922.763 72.5333 923.176 73.5467 923.723 74.16C924.27 74.7733 924.923 75.08 925.683 75.08Z" fill="#391400"/>
<path d="M831.12 128H829.41V113.25H833.55C834.69 113.25 835.637 113.463 836.39 113.89C837.143 114.31 837.707 114.877 838.08 115.59C838.453 116.303 838.64 117.097 838.64 117.97C838.64 118.843 838.447 119.65 838.06 120.39C837.68 121.13 837.11 121.727 836.35 122.18C835.597 122.627 834.663 122.85 833.55 122.85H831.12V128ZM831.12 122.22L830.35 121.35H833.34C834.14 121.35 834.803 121.21 835.33 120.93C835.863 120.643 836.26 120.247 836.52 119.74C836.787 119.233 836.92 118.643 836.92 117.97C836.92 117.29 836.793 116.71 836.54 116.23C836.287 115.75 835.897 115.383 835.37 115.13C834.843 114.877 834.167 114.75 833.34 114.75H830.35L831.12 113.78V122.22ZM841.034 128V117.38H842.734V120.64L842.174 120.44C842.214 120.047 842.314 119.66 842.474 119.28C842.634 118.893 842.854 118.547 843.134 118.24C843.421 117.927 843.777 117.68 844.204 117.5C844.631 117.313 845.131 117.22 845.704 117.22C846.131 117.22 846.477 117.257 846.744 117.33C847.017 117.397 847.187 117.45 847.254 117.49L846.814 119.16C846.747 119.113 846.611 119.053 846.404 118.98C846.204 118.907 845.917 118.87 845.544 118.87C844.991 118.87 844.531 118.97 844.164 119.17C843.804 119.37 843.517 119.637 843.304 119.97C843.097 120.297 842.951 120.653 842.864 121.04C842.777 121.427 842.734 121.81 842.734 122.19V128H841.034ZM853.915 128.19C852.849 128.19 851.905 127.953 851.085 127.48C850.272 127 849.632 126.347 849.165 125.52C848.705 124.687 848.475 123.74 848.475 122.68C848.475 121.62 848.705 120.68 849.165 119.86C849.632 119.04 850.272 118.397 851.085 117.93C851.905 117.463 852.849 117.23 853.915 117.23C854.982 117.23 855.922 117.463 856.735 117.93C857.555 118.397 858.195 119.04 858.655 119.86C859.122 120.68 859.355 121.62 859.355 122.68C859.355 123.74 859.122 124.687 858.655 125.52C858.195 126.347 857.555 127 856.735 127.48C855.922 127.953 854.982 128.19 853.915 128.19ZM853.915 126.63C854.649 126.63 855.295 126.467 855.855 126.14C856.415 125.813 856.852 125.353 857.165 124.76C857.485 124.167 857.645 123.473 857.645 122.68C857.645 121.887 857.485 121.2 857.165 120.62C856.852 120.033 856.415 119.583 855.855 119.27C855.295 118.95 854.649 118.79 853.915 118.79C853.189 118.79 852.542 118.95 851.975 119.27C851.415 119.583 850.975 120.033 850.655 120.62C850.342 121.2 850.185 121.887 850.185 122.68C850.185 123.473 850.342 124.167 850.655 124.76C850.975 125.353 851.415 125.813 851.975 126.14C852.542 126.467 853.189 126.63 853.915 126.63ZM860.26 132.46C860.074 132.46 859.9 132.453 859.74 132.44C859.58 132.427 859.454 132.41 859.36 132.39V131.09C859.454 131.117 859.584 131.14 859.75 131.16C859.91 131.18 860.08 131.19 860.26 131.19C860.72 131.19 861.084 131.12 861.35 130.98C861.617 130.84 861.81 130.657 861.93 130.43C862.057 130.21 862.137 129.963 862.17 129.69C862.21 129.423 862.23 129.16 862.23 128.9V117.38H863.93V128.97C863.93 129.41 863.887 129.837 863.8 130.25C863.72 130.663 863.557 131.037 863.31 131.37C863.064 131.703 862.697 131.967 862.21 132.16C861.724 132.36 861.074 132.46 860.26 132.46ZM863.12 114.94C862.807 114.94 862.534 114.853 862.3 114.68C862.074 114.5 861.96 114.257 861.96 113.95C861.96 113.65 862.074 113.413 862.3 113.24C862.534 113.06 862.807 112.97 863.12 112.97C863.434 112.97 863.704 113.06 863.93 113.24C864.157 113.413 864.27 113.65 864.27 113.95C864.27 114.257 864.157 114.5 863.93 114.68C863.704 114.853 863.434 114.94 863.12 114.94ZM867.678 123.37V121.85H875.888L875.588 122.35C875.588 122.31 875.588 122.273 875.588 122.24C875.588 122.2 875.588 122.163 875.588 122.13C875.588 121.517 875.458 120.957 875.198 120.45C874.944 119.937 874.564 119.527 874.058 119.22C873.551 118.913 872.924 118.76 872.178 118.76C871.424 118.76 870.761 118.92 870.188 119.24C869.614 119.56 869.168 120.013 868.848 120.6C868.528 121.18 868.368 121.873 868.368 122.68C868.368 123.5 868.521 124.207 868.828 124.8C869.141 125.393 869.584 125.85 870.158 126.17C870.731 126.49 871.411 126.65 872.198 126.65C872.758 126.65 873.244 126.593 873.658 126.48C874.071 126.36 874.411 126.203 874.678 126.01C874.951 125.81 875.158 125.593 875.298 125.36C875.438 125.127 875.521 124.893 875.548 124.66H877.248C877.214 125.087 877.081 125.51 876.848 125.93C876.614 126.35 876.284 126.733 875.858 127.08C875.431 127.42 874.908 127.693 874.288 127.9C873.668 128.107 872.954 128.21 872.148 128.21C871.081 128.21 870.141 127.977 869.328 127.51C868.514 127.043 867.874 126.397 867.408 125.57C866.948 124.743 866.718 123.793 866.718 122.72C866.718 121.633 866.951 120.68 867.418 119.86C867.884 119.033 868.528 118.387 869.348 117.92C870.168 117.453 871.104 117.22 872.158 117.22C873.231 117.22 874.161 117.453 874.948 117.92C875.734 118.387 876.341 119.027 876.768 119.84C877.194 120.647 877.408 121.567 877.408 122.6C877.408 122.707 877.404 122.847 877.398 123.02C877.391 123.193 877.381 123.31 877.368 123.37H867.678ZM885.097 128.2C884.084 128.2 883.164 127.98 882.337 127.54C881.511 127.093 880.854 126.457 880.367 125.63C879.887 124.803 879.647 123.82 879.647 122.68C879.647 121.54 879.887 120.563 880.367 119.75C880.854 118.93 881.511 118.303 882.337 117.87C883.164 117.437 884.084 117.22 885.097 117.22C885.871 117.22 886.561 117.34 887.167 117.58C887.774 117.813 888.287 118.127 888.707 118.52C889.127 118.913 889.447 119.347 889.667 119.82C889.894 120.287 890.007 120.753 890.007 121.22C890.007 121.227 890.007 121.237 890.007 121.25C890.007 121.263 890.007 121.277 890.007 121.29H888.317C888.317 121.257 888.314 121.22 888.307 121.18C888.301 121.133 888.294 121.087 888.287 121.04C888.234 120.593 888.064 120.203 887.777 119.87C887.491 119.53 887.117 119.263 886.657 119.07C886.197 118.877 885.674 118.78 885.087 118.78C884.427 118.78 883.814 118.923 883.247 119.21C882.687 119.49 882.234 119.92 881.887 120.5C881.547 121.073 881.377 121.8 881.377 122.68C881.377 123.553 881.547 124.283 881.887 124.87C882.227 125.457 882.677 125.9 883.237 126.2C883.804 126.493 884.421 126.64 885.087 126.64C885.807 126.64 886.401 126.527 886.867 126.3C887.334 126.073 887.684 125.773 887.917 125.4C888.157 125.02 888.291 124.613 888.317 124.18H890.007C890.007 124.66 889.901 125.14 889.687 125.62C889.474 126.093 889.161 126.527 888.747 126.92C888.334 127.307 887.821 127.617 887.207 127.85C886.601 128.083 885.897 128.2 885.097 128.2ZM896.64 128.16C896.313 128.16 895.993 128.123 895.68 128.05C895.367 127.977 895.083 127.847 894.83 127.66C894.583 127.467 894.387 127.197 894.24 126.85C894.093 126.497 894.02 126.043 894.02 125.49C894.02 125.35 894.02 125.207 894.02 125.06C894.02 124.907 894.02 124.747 894.02 124.58V118.88H891.43V117.38H893.09C893.317 117.38 893.493 117.373 893.62 117.36C893.747 117.34 893.837 117.297 893.89 117.23C893.95 117.157 893.987 117.047 894 116.9C894.013 116.747 894.02 116.537 894.02 116.27V113.86H895.73V117.38H899.05V118.88H895.73V124.03C895.73 124.177 895.73 124.32 895.73 124.46C895.73 124.6 895.73 124.73 895.73 124.85C895.73 125.417 895.797 125.86 895.93 126.18C896.07 126.5 896.38 126.66 896.86 126.66C897.053 126.66 897.237 126.643 897.41 126.61C897.583 126.577 897.713 126.543 897.8 126.51V127.99C897.687 128.03 897.527 128.067 897.32 128.1C897.12 128.14 896.893 128.16 896.64 128.16ZM904.938 128.2C904.298 128.2 903.704 128.133 903.158 128C902.618 127.86 902.144 127.66 901.738 127.4C901.338 127.133 901.024 126.807 900.798 126.42C900.578 126.033 900.468 125.59 900.468 125.09C900.468 125.037 900.468 124.983 900.468 124.93C900.468 124.87 900.468 124.82 900.468 124.78H902.178C902.178 124.82 902.178 124.853 902.178 124.88C902.178 124.907 902.178 124.947 902.178 125C902.178 125.54 902.428 125.953 902.928 126.24C903.428 126.52 904.111 126.66 904.978 126.66C905.511 126.66 905.988 126.607 906.408 126.5C906.828 126.393 907.158 126.23 907.398 126.01C907.644 125.79 907.768 125.513 907.768 125.18C907.768 124.627 907.508 124.233 906.988 124C906.474 123.76 905.704 123.553 904.678 123.38C904.138 123.287 903.624 123.167 903.138 123.02C902.651 122.867 902.218 122.67 901.838 122.43C901.464 122.19 901.168 121.893 900.948 121.54C900.734 121.18 900.628 120.75 900.628 120.25C900.628 119.603 900.818 119.057 901.198 118.61C901.584 118.157 902.104 117.813 902.758 117.58C903.411 117.34 904.138 117.22 904.938 117.22C905.711 117.22 906.424 117.343 907.078 117.59C907.731 117.837 908.254 118.197 908.648 118.67C909.048 119.137 909.248 119.713 909.248 120.4C909.248 120.427 909.248 120.46 909.248 120.5C909.248 120.533 909.248 120.567 909.248 120.6H907.548C907.548 120.567 907.548 120.54 907.548 120.52C907.548 120.5 907.548 120.477 907.548 120.45C907.548 120.063 907.424 119.747 907.178 119.5C906.931 119.247 906.611 119.06 906.218 118.94C905.824 118.813 905.404 118.75 904.958 118.75C904.538 118.75 904.124 118.797 903.718 118.89C903.311 118.977 902.974 119.123 902.708 119.33C902.441 119.537 902.308 119.82 902.308 120.18C902.308 120.54 902.431 120.83 902.678 121.05C902.931 121.263 903.284 121.44 903.738 121.58C904.198 121.713 904.738 121.837 905.358 121.95C905.911 122.05 906.434 122.177 906.928 122.33C907.421 122.477 907.854 122.667 908.228 122.9C908.608 123.133 908.904 123.43 909.118 123.79C909.338 124.143 909.448 124.577 909.448 125.09C909.448 125.61 909.328 126.063 909.088 126.45C908.854 126.837 908.528 127.16 908.108 127.42C907.694 127.68 907.214 127.873 906.668 128C906.128 128.133 905.551 128.2 904.938 128.2ZM922.129 128.2C921.115 128.2 920.195 127.98 919.369 127.54C918.542 127.093 917.885 126.457 917.399 125.63C916.919 124.803 916.679 123.82 916.679 122.68C916.679 121.54 916.919 120.563 917.399 119.75C917.885 118.93 918.542 118.303 919.369 117.87C920.195 117.437 921.115 117.22 922.129 117.22C922.902 117.22 923.592 117.34 924.199 117.58C924.805 117.813 925.319 118.127 925.739 118.52C926.159 118.913 926.479 119.347 926.699 119.82C926.925 120.287 927.039 120.753 927.039 121.22C927.039 121.227 927.039 121.237 927.039 121.25C927.039 121.263 927.039 121.277 927.039 121.29H925.349C925.349 121.257 925.345 121.22 925.339 121.18C925.332 121.133 925.325 121.087 925.319 121.04C925.265 120.593 925.095 120.203 924.809 119.87C924.522 119.53 924.149 119.263 923.689 119.07C923.229 118.877 922.705 118.78 922.119 118.78C921.459 118.78 920.845 118.923 920.279 119.21C919.719 119.49 919.265 119.92 918.919 120.5C918.579 121.073 918.409 121.8 918.409 122.68C918.409 123.553 918.579 124.283 918.919 124.87C919.259 125.457 919.709 125.9 920.269 126.2C920.835 126.493 921.452 126.64 922.119 126.64C922.839 126.64 923.432 126.527 923.899 126.3C924.365 126.073 924.715 125.773 924.949 125.4C925.189 125.02 925.322 124.613 925.349 124.18H927.039C927.039 124.66 926.932 125.14 926.719 125.62C926.505 126.093 926.192 126.527 925.779 126.92C925.365 127.307 924.852 127.617 924.239 127.85C923.632 128.083 922.929 128.2 922.129 128.2ZM934.716 128.19C933.65 128.19 932.706 127.953 931.886 127.48C931.073 127 930.433 126.347 929.966 125.52C929.506 124.687 929.276 123.74 929.276 122.68C929.276 121.62 929.506 120.68 929.966 119.86C930.433 119.04 931.073 118.397 931.886 117.93C932.706 117.463 933.65 117.23 934.716 117.23C935.783 117.23 936.723 117.463 937.536 117.93C938.356 118.397 938.996 119.04 939.456 119.86C939.923 120.68 940.156 121.62 940.156 122.68C940.156 123.74 939.923 124.687 939.456 125.52C938.996 126.347 938.356 127 937.536 127.48C936.723 127.953 935.783 128.19 934.716 128.19ZM934.716 126.63C935.45 126.63 936.096 126.467 936.656 126.14C937.216 125.813 937.653 125.353 937.966 124.76C938.286 124.167 938.446 123.473 938.446 122.68C938.446 121.887 938.286 121.2 937.966 120.62C937.653 120.033 937.216 119.583 936.656 119.27C936.096 118.95 935.45 118.79 934.716 118.79C933.99 118.79 933.343 118.95 932.776 119.27C932.216 119.583 931.776 120.033 931.456 120.62C931.143 121.2 930.986 121.887 930.986 122.68C930.986 123.473 931.143 124.167 931.456 124.76C931.776 125.353 932.216 125.813 932.776 126.14C933.343 126.467 933.99 126.63 934.716 126.63ZM949.341 128V123.31C949.341 122.897 949.341 122.54 949.341 122.24C949.341 121.933 949.341 121.677 949.341 121.47C949.341 121.21 949.321 120.93 949.281 120.63C949.248 120.323 949.165 120.037 949.031 119.77C948.898 119.497 948.688 119.273 948.401 119.1C948.121 118.927 947.731 118.84 947.231 118.84C946.725 118.84 946.298 118.94 945.951 119.14C945.605 119.333 945.325 119.59 945.111 119.91C944.898 120.23 944.745 120.583 944.651 120.97C944.558 121.35 944.511 121.727 944.511 122.1L943.551 121.71C943.551 120.91 943.718 120.17 944.051 119.49C944.385 118.81 944.851 118.263 945.451 117.85C946.058 117.43 946.768 117.22 947.581 117.22C948.388 117.22 949.045 117.383 949.551 117.71C950.058 118.037 950.431 118.487 950.671 119.06C950.911 119.633 951.031 120.293 951.031 121.04C951.031 121.307 951.031 121.65 951.031 122.07C951.031 122.483 951.031 122.957 951.031 123.49V128H949.341ZM942.811 128V117.38H944.511V128H942.811ZM955.851 128V123.31C955.851 122.857 955.851 122.483 955.851 122.19C955.851 121.89 955.851 121.637 955.851 121.43C955.851 121.17 955.835 120.89 955.801 120.59C955.768 120.29 955.685 120.01 955.551 119.75C955.418 119.483 955.205 119.267 954.911 119.1C954.625 118.927 954.221 118.84 953.701 118.84C953.188 118.84 952.758 118.937 952.411 119.13C952.071 119.323 951.798 119.577 951.591 119.89C951.391 120.203 951.248 120.543 951.161 120.91C951.075 121.27 951.031 121.617 951.031 121.95L950.071 121.58C950.071 120.82 950.231 120.11 950.551 119.45C950.878 118.783 951.338 118.247 951.931 117.84C952.531 117.427 953.241 117.22 954.061 117.22C954.828 117.22 955.468 117.37 955.981 117.67C956.501 117.97 956.891 118.393 957.151 118.94C957.418 119.48 957.551 120.123 957.551 120.87C957.551 121.15 957.551 121.497 957.551 121.91C957.551 122.323 957.551 122.79 957.551 123.31V128H955.851ZM960.507 132.37V117.38H962.207V132.37H960.507ZM965.697 128.2C964.877 128.2 964.11 128 963.397 127.6C962.683 127.193 962.103 126.637 961.657 125.93C961.217 125.223 960.997 124.417 960.997 123.51C960.997 123.49 960.997 123.473 960.997 123.46C960.997 123.447 960.997 123.43 960.997 123.41L962.217 123.38C962.217 123.393 962.217 123.41 962.217 123.43C962.217 123.443 962.217 123.457 962.217 123.47C962.217 124.043 962.367 124.567 962.667 125.04C962.973 125.513 963.373 125.89 963.867 126.17C964.36 126.45 964.89 126.59 965.457 126.59C966.397 126.59 967.177 126.27 967.797 125.63C968.423 124.983 968.737 124 968.737 122.68C968.737 121.353 968.427 120.373 967.807 119.74C967.187 119.1 966.403 118.78 965.457 118.78C964.89 118.78 964.36 118.92 963.867 119.2C963.373 119.473 962.973 119.843 962.667 120.31C962.367 120.777 962.217 121.3 962.217 121.88L960.997 121.84C960.997 120.927 961.217 120.123 961.657 119.43C962.103 118.737 962.683 118.197 963.397 117.81C964.11 117.417 964.877 117.22 965.697 117.22C966.557 117.22 967.35 117.433 968.077 117.86C968.803 118.28 969.387 118.897 969.827 119.71C970.267 120.523 970.487 121.513 970.487 122.68C970.487 123.867 970.27 124.873 969.837 125.7C969.403 126.52 968.823 127.143 968.097 127.57C967.37 127.99 966.57 128.2 965.697 128.2ZM974.973 112.37V128H973.293V112.37H974.973ZM978.635 123.37V121.85H986.845L986.545 122.35C986.545 122.31 986.545 122.273 986.545 122.24C986.545 122.2 986.545 122.163 986.545 122.13C986.545 121.517 986.415 120.957 986.155 120.45C985.901 119.937 985.521 119.527 985.015 119.22C984.508 118.913 983.881 118.76 983.135 118.76C982.381 118.76 981.718 118.92 981.145 119.24C980.571 119.56 980.125 120.013 979.805 120.6C979.485 121.18 979.325 121.873 979.325 122.68C979.325 123.5 979.478 124.207 979.785 124.8C980.098 125.393 980.541 125.85 981.115 126.17C981.688 126.49 982.368 126.65 983.155 126.65C983.715 126.65 984.201 126.593 984.615 126.48C985.028 126.36 985.368 126.203 985.635 126.01C985.908 125.81 986.115 125.593 986.255 125.36C986.395 125.127 986.478 124.893 986.505 124.66H988.205C988.171 125.087 988.038 125.51 987.805 125.93C987.571 126.35 987.241 126.733 986.815 127.08C986.388 127.42 985.865 127.693 985.245 127.9C984.625 128.107 983.911 128.21 983.105 128.21C982.038 128.21 981.098 127.977 980.285 127.51C979.471 127.043 978.831 126.397 978.365 125.57C977.905 124.743 977.675 123.793 977.675 122.72C977.675 121.633 977.908 120.68 978.375 119.86C978.841 119.033 979.485 118.387 980.305 117.92C981.125 117.453 982.061 117.22 983.115 117.22C984.188 117.22 985.118 117.453 985.905 117.92C986.691 118.387 987.298 119.027 987.725 119.84C988.151 120.647 988.365 121.567 988.365 122.6C988.365 122.707 988.361 122.847 988.355 123.02C988.348 123.193 988.338 123.31 988.325 123.37H978.635ZM995 128.16C994.673 128.16 994.353 128.123 994.04 128.05C993.726 127.977 993.443 127.847 993.19 127.66C992.943 127.467 992.746 127.197 992.6 126.85C992.453 126.497 992.38 126.043 992.38 125.49C992.38 125.35 992.38 125.207 992.38 125.06C992.38 124.907 992.38 124.747 992.38 124.58V118.88H989.79V117.38H991.45C991.676 117.38 991.853 117.373 991.98 117.36C992.106 117.34 992.196 117.297 992.25 117.23C992.31 117.157 992.346 117.047 992.36 116.9C992.373 116.747 992.38 116.537 992.38 116.27V113.86H994.09V117.38H997.41V118.88H994.09V124.03C994.09 124.177 994.09 124.32 994.09 124.46C994.09 124.6 994.09 124.73 994.09 124.85C994.09 125.417 994.156 125.86 994.29 126.18C994.43 126.5 994.74 126.66 995.22 126.66C995.413 126.66 995.596 126.643 995.77 126.61C995.943 126.577 996.073 126.543 996.16 126.51V127.99C996.046 128.03 995.886 128.067 995.68 128.1C995.48 128.14 995.253 128.16 995 128.16ZM999.787 123.37V121.85H1008L1007.7 122.35C1007.7 122.31 1007.7 122.273 1007.7 122.24C1007.7 122.2 1007.7 122.163 1007.7 122.13C1007.7 121.517 1007.57 120.957 1007.31 120.45C1007.05 119.937 1006.67 119.527 1006.17 119.22C1005.66 118.913 1005.03 118.76 1004.29 118.76C1003.53 118.76 1002.87 118.92 1002.3 119.24C1001.72 119.56 1001.28 120.013 1000.96 120.6C1000.64 121.18 1000.48 121.873 1000.48 122.68C1000.48 123.5 1000.63 124.207 1000.94 124.8C1001.25 125.393 1001.69 125.85 1002.27 126.17C1002.84 126.49 1003.52 126.65 1004.31 126.65C1004.87 126.65 1005.35 126.593 1005.77 126.48C1006.18 126.36 1006.52 126.203 1006.79 126.01C1007.06 125.81 1007.27 125.593 1007.41 125.36C1007.55 125.127 1007.63 124.893 1007.66 124.66H1009.36C1009.32 125.087 1009.19 125.51 1008.96 125.93C1008.72 126.35 1008.39 126.733 1007.97 127.08C1007.54 127.42 1007.02 127.693 1006.4 127.9C1005.78 128.107 1005.06 128.21 1004.26 128.21C1003.19 128.21 1002.25 127.977 1001.44 127.51C1000.62 127.043 999.984 126.397 999.517 125.57C999.057 124.743 998.827 123.793 998.827 122.72C998.827 121.633 999.06 120.68 999.527 119.86C999.994 119.033 1000.64 118.387 1001.46 117.92C1002.28 117.453 1003.21 117.22 1004.27 117.22C1005.34 117.22 1006.27 117.453 1007.06 117.92C1007.84 118.387 1008.45 119.027 1008.88 119.84C1009.3 120.647 1009.52 121.567 1009.52 122.6C1009.52 122.707 1009.51 122.847 1009.51 123.02C1009.5 123.193 1009.49 123.31 1009.48 123.37H999.787Z" fill="#391400"/>
</svg>
